<?xml version="1.0" encoding="UTF-8" standalone="no"?><!DOCTYPE svg PUBLIC "-//W3C//DTD SVG 1.1//EN" "http://www.w3.org/Graphics/SVG/1.1/DTD/svg11.dtd"><svg width="100%" height="100%" viewBox="0 0 146 72" version="1.1" xmlns="http://www.w3.org/2000/svg" xmlns:xlink="http://www.w3.org/1999/xlink" xml:space="preserve" xmlns:serif="http://www.serif.com/" style="fill-rule:evenodd;clip-rule:evenodd;stroke-linecap:round;stroke-linejoin:round;stroke-miterlimit:1.5;"><rect id="Plan-de-travail1" serif:id="Plan de travail1" x="0" y="0" width="145.286" height="71.305" style="fill:none;"/><path d="M48.032,11.662l0.083,0.002l0.17,0.005l0.169,0.008l0.167,0.011l0.166,0.014l0.165,0.016l0.163,0.019l0.163,0.021l0.16,0.024l0.16,0.026l0.157,0.028l0.157,0.031l0.155,0.032l0.153,0.035l0.152,0.037l0.15,0.038l0.149,0.041l0.147,0.042l0.146,0.044l0.144,0.045l0.143,0.047l0.141,0.049l0.139,0.05l0.138,0.052l0.136,0.052l0.134,0.055l0.133,0.055l0.132,0.056l0.13,0.058l0.128,0.058l0.127,0.06l0.125,0.06l0.123,0.061l0.122,0.062l0.12,0.063l0.119,0.064l0.117,0.064l0.115,0.064l0.114,0.066l0.112,0.065l0.111,0.067l0.109,0.066l0.108,0.067l0.106,0.067l0.104,0.068l0.103,0.067l0.101,0.068l0.1,0.068l0.098,0.068l0.096,0.068l0.095,0.068l0.093,0.068l0.092,0.067l0.09,0.068l0.088,0.067l0.087,0.067l0.086,0.067l0.083,0.066l0.085,0.069l0.157,0.128l0.152,0.129l0.147,0.126l0.14,0.123l0.133,0.121l0.127,0.117l0.12,0.113l0.066,0.063l0.046,-0.002l0.153,-0.005l0.159,-0.003l0.166,-0.001l0.16,0.001l0.011,0l0.176,0.009l0.182,0.012l0.182,0.015l0.1,0.009l0.096,0.009l0.097,0.01l0.099,0.011l0.1,0.012l0.101,0.013l0.102,0.014l0.103,0.015l0.104,0.015l0.105,0.017l0.105,0.018l0.107,0.019l0.108,0.02l0.109,0.021l0.109,0.022l0.11,0.024l0.111,0.024l0.112,0.026l0.113,0.027l0.113,0.029l0.114,0.03l0.114,0.031l0.116,0.032l0.115,0.034l0.117,0.036l0.117,0.037l0.117,0.038l0.118,0.04l0.118,0.041l0.119,0.043l0.119,0.045l0.12,0.046l0.119,0.048l0.12,0.049l0.12,0.051l0.121,0.053l0.121,0.055l0.12,0.056l0.121,0.059l0.121,0.06l0.121,0.062l0.121,0.064l0.121,0.066l0.12,0.067l0.121,0.07l0.12,0.072l0.12,0.073l0.088,0.056l0.032,0.02l0.12,0.078l0.119,0.08l0.119,0.083l0.118,0.084l0.118,0.086l0.117,0.089l0.117,0.09l0.116,0.093l0.116,0.095l0.114,0.097l0.115,0.1l0.113,0.101l0.112,0.104l0.112,0.106l0.111,0.108l0.11,0.111l0.109,0.113l0.108,0.115l0.106,0.117l0.106,0.12l0.105,0.122l0.103,0.124l0.102,0.126l0.102,0.129l0.099,0.131l0.099,0.134l0.097,0.135l0.096,0.138l0.094,0.141l0.093,0.142l0.091,0.145l0.09,0.148l0.067,0.113l0.066,0.113l0.063,0.115l0.062,0.115l0.06,0.115l0.058,0.116l0.056,0.117l0.055,0.117l0.015,0.034l0.04,0.083l0.053,0.117l0.052,0.117l0.05,0.119l0.048,0.118l0.047,0.119l0.045,0.12l0.043,0.12l0.042,0.12l0.04,0.121l0.038,0.121l0.037,0.121l0.035,0.122l0.033,0.122l0.032,0.123l0.031,0.122l0.029,0.124l0.027,0.123l0.026,0.123l0.024,0.124l0.023,0.124l0.021,0.124l0.02,0.125l0.018,0.124l0.017,0.125l0.016,0.125l0.014,0.125l0.012,0.125l0.012,0.126l0.01,0.125l0.008,0.126l0.007,0.125l0.006,0.126l0.005,0.126l0.003,0.126l0.002,0.126l0.001,0.126l-0.001,0.126l-0.002,0.126l-0.003,0.126l-0.005,0.126l-0.005,0.126l-0.007,0.126l-0.008,0.126l-0.009,0.126l-0.011,0.126l-0.011,0.126l-0.013,0.126l-0.014,0.126l-0.015,0.126l-0.016,0.126l-0.017,0.126l-0.019,0.125l-0.019,0.126l-0.021,0.125l-0.021,0.126l-0.023,0.125l-0.024,0.125l-0.025,0.125l-0.026,0.125l-0.027,0.125l-0.028,0.125l-0.029,0.124l-0.03,0.124l-0.03,0.124l-0.032,0.124l-0.033,0.124l-0.034,0.124l-0.035,0.123l-0.036,0.123l-0.037,0.123l-0.038,0.123l-0.038,0.123l-0.04,0.122l-0.041,0.122l-0.041,0.122l-0.042,0.122l-0.044,0.121l-0.044,0.121l-0.045,0.121l-0.046,0.12l-0.047,0.121l-0.047,0.12l-0.049,0.119l-0.049,0.119l-0.05,0.119l-0.051,0.119l-0.052,0.118l-0.053,0.118l-0.054,0.118l-0.054,0.117l-0.055,0.117l-0.056,0.117l-0.057,0.116l-0.057,0.116l-0.058,0.115l-0.059,0.115l-0.06,0.114l-0.061,0.115l-0.061,0.113l-0.062,0.113l-0.063,0.113l-0.064,0.113l-0.064,0.111l-0.013,0.022l-0.051,0.09l-0.065,0.111l-0.066,0.111l-0.067,0.11l-0.067,0.11l-0.068,0.109l-0.069,0.109l-0.069,0.108l-0.07,0.108l-0.071,0.107l-0.071,0.107l-0.019,0.028l0.036,0.116l0.046,0.143l0.047,0.143l0.049,0.143l0.05,0.141l0.05,0.14l0.052,0.14l0.053,0.139l0.054,0.138l0.056,0.138l0.056,0.136l0.058,0.136l0.058,0.135l0.06,0.134l0.061,0.133l0.063,0.132l0.063,0.132l0.065,0.131l0.066,0.13l0.067,0.129l0.069,0.128l0.069,0.128l0.071,0.126l0.072,0.126l0.074,0.125l0.075,0.124l0.076,0.124l0.077,0.122l0.079,0.122l0.015,0.023l0.065,0.097l0.083,0.119l0.083,0.119l0.085,0.118l0.086,0.116l0.088,0.116l0.089,0.115l0.09,0.114l0.092,0.114l0.093,0.112l0.095,0.112l0.096,0.111l0.097,0.11l0.099,0.109l0.1,0.108l0.102,0.107l0.104,0.106l0.104,0.106l0.086,0.085l0.021,0.019l0.109,0.103l0.111,0.101l0.112,0.101l0.114,0.099l0.115,0.099l0.117,0.098l0.118,0.097l0.12,0.096l0.122,0.095l0.123,0.094l0.125,0.093l0.131,0.095l0.137,0.116l0.114,0.137l0.09,0.154l0.061,0.168l0.033,0.176l0.002,0.178l-0.029,0.176l-0.058,0.169l-0.086,0.157l-0.112,0.139l-0.133,0.119l-0.152,0.093l-0.166,0.067l-0.174,0.037l-0.179,0.008l-0.158,-0.009l-0.024,-0.001l-0.188,-0.007l-0.187,-0.008l-0.186,-0.011l-0.185,-0.012l-0.185,-0.015l-0.184,-0.016l-0.184,-0.019l-0.182,-0.02l-0.149,-0.018l-0.034,-0.004l-0.182,-0.021l-0.181,-0.023l-0.181,-0.025l-0.18,-0.027l-0.179,-0.029l-0.179,-0.031l-0.178,-0.034l-0.177,-0.035l-0.177,-0.037l-0.176,-0.04l-0.175,-0.041l-0.175,-0.044l-0.055,-0.015l-0.119,-0.03l-0.174,-0.046l-0.173,-0.048l-0.173,-0.051l-0.172,-0.053l-0.171,-0.055l-0.17,-0.057l-0.17,-0.059l-0.168,-0.062l-0.169,-0.064l-0.167,-0.066l-0.167,-0.068l-0.166,-0.07l-0.165,-0.073l-0.164,-0.074l-0.163,-0.078l-0.163,-0.079l-0.162,-0.081l-0.161,-0.084l-0.16,-0.086l-0.159,-0.089l-0.158,-0.09l-0.158,-0.093l-0.156,-0.095l-0.156,-0.097l-0.155,-0.1l-0.154,-0.102l-0.152,-0.104l-0.152,-0.107l-0.151,-0.108l-0.15,-0.111l-0.044,-0.033l-0.105,-0.08l-0.149,-0.116l-0.147,-0.117l-0.039,-0.032l-0.186,0.167l-0.256,0.229l-0.133,0.117l-0.133,0.117l-0.136,0.118l-0.137,0.119l-0.14,0.118l-0.14,0.118l-0.142,0.117l-0.144,0.117l-0.004,0.003l-0.142,0.111l-0.148,0.112l-0.149,0.11l-0.148,0.107l-0.078,0.055l-0.076,0.052l-0.077,0.053l-0.077,0.051l-0.077,0.051l-0.078,0.05l-0.079,0.049l-0.079,0.049l-0.079,0.047l-0.081,0.047l-0.081,0.046l-0.082,0.045l-0.082,0.044l-0.084,0.042l-0.085,0.042l-0.082,0.039l-0.09,0.042l-0.087,0.039l-0.087,0.039l-0.087,0.037l-0.087,0.037l-0.087,0.036l-0.086,0.034l-0.087,0.034l-0.087,0.033l-0.086,0.033l-0.087,0.031l-0.086,0.03l-0.086,0.03l-0.086,0.028l-0.086,0.028l-0.087,0.027l-0.085,0.026l-0.086,0.025l-0.086,0.024l-0.086,0.023l-0.085,0.023l-0.086,0.022l-0.057,0.013l-0.028,0.006l-0.086,0.018l-0.085,0.016l-0.086,0.016l-0.085,0.015l-0.085,0.014l-0.085,0.013l-0.084,0.013l-0.085,0.011l-0.084,0.011l-0.084,0.01l-0.084,0.009l-0.083,0.009l-0.084,0.007l-0.083,0.007l-0.083,0.006l-0.082,0.005l-0.083,0.005l-0.082,0.003l-0.082,0.003l-0.081,0.002l-0.082,0.002l-0.081,0l-0.081,0l-0.08,-0.001l-0.08,-0.001l-0.08,-0.002l-0.08,-0.003l-0.079,-0.004l-0.084,-0.005l-0.119,-0.008l-0.034,-0.002l-0.156,-0.015l-0.154,-0.017l-0.154,-0.02l-0.152,-0.022l-0.15,-0.025l-0.149,-0.027l-0.148,-0.03l-0.146,-0.032l-0.145,-0.034l-0.143,-0.036l-0.142,-0.038l-0.14,-0.04l-0.139,-0.042l-0.137,-0.044l-0.136,-0.046l-0.133,-0.047l-0.133,-0.049l-0.131,-0.051l-0.129,-0.053l-0.127,-0.053l-0.126,-0.056l-0.125,-0.056l-0.122,-0.058l-0.121,-0.059l-0.12,-0.061l-0.056,-0.029l-0.062,-0.032l-0.116,-0.063l-0.114,-0.064l-0.113,-0.065l-0.111,-0.066l-0.11,-0.066l-0.108,-0.068l-0.106,-0.068l-0.105,-0.068l-0.103,-0.07l-0.102,-0.07l-0.1,-0.07l-0.098,-0.071l-0.097,-0.071l-0.095,-0.072l-0.094,-0.071l-0.092,-0.073l-0.091,-0.072l-0.089,-0.072l-0.088,-0.073l-0.086,-0.072l-0.084,-0.073l-0.083,-0.073l-0.082,-0.072l-0.079,-0.072l-0.079,-0.073l-0.077,-0.071l-0.075,-0.072l-0.074,-0.071l-0.072,-0.071l-0.071,-0.071l-0.07,-0.07l-0.068,-0.07l-0.066,-0.069l-0.065,-0.068l-0.065,-0.07l-0.121,-0.131l-0.116,-0.131l-0.111,-0.127l-0.104,-0.123l-0.099,-0.119l-0.004,-0.005l-0.077,0.014l-0.155,0.027l-0.161,0.025l-0.167,0.025l-0.17,0.022l-0.093,0.011l-0.09,0.01l-0.092,0.01l-0.093,0.008l-0.059,0.006l-0.036,0.003l-0.096,0.007l-0.098,0.007l-0.099,0.006l-0.1,0.005l-0.101,0.004l-0.102,0.004l-0.104,0.002l-0.105,0.002l-0.106,0l-0.107,0l-0.108,-0.002l-0.11,-0.003l-0.11,-0.003l-0.111,-0.006l-0.113,-0.006l-0.113,-0.007l-0.114,-0.009l-0.115,-0.011l-0.116,-0.011l-0.117,-0.014l-0.117,-0.014l-0.118,-0.017l-0.119,-0.018l-0.12,-0.019l-0.12,-0.021l-0.121,-0.023l-0.122,-0.025l-0.122,-0.027l-0.122,-0.028l-0.123,-0.031l-0.124,-0.032l-0.123,-0.035l-0.125,-0.036l-0.124,-0.039l-0.125,-0.041l-0.124,-0.043l-0.126,-0.045l-0.125,-0.048l-0.125,-0.05l-0.125,-0.052l-0.125,-0.055l-0.125,-0.058l-0.125,-0.059l-0.125,-0.063l-0.124,-0.065l-0.124,-0.067l-0.124,-0.071l-0.123,-0.073l-0.122,-0.076l-0.122,-0.078l-0.122,-0.081l-0.12,-0.084l-0.12,-0.087l-0.116,-0.088l-0.063,-0.048l-0.059,-0.047l-0.058,-0.047l-0.059,-0.048l-0.058,-0.049l-0.058,-0.05l-0.058,-0.05l-0.057,-0.051l-0.057,-0.052l-0.057,-0.052l-0.057,-0.054l-0.056,-0.054l-0.056,-0.054l-0.055,-0.056l-0.056,-0.056l-0.055,-0.057l-0.054,-0.058l-0.054,-0.058l-0.054,-0.059l-0.054,-0.06l-0.053,-0.061l-0.053,-0.061l-0.052,-0.062l-0.052,-0.063l-0.052,-0.064l-0.051,-0.064l-0.051,-0.065l-0.05,-0.066l-0.05,-0.067l-0.05,-0.067l-0.049,-0.068l-0.049,-0.069l-0.048,-0.07l-0.048,-0.07l-0.047,-0.071l-0.047,-0.072l-0.047,-0.072l-0.046,-0.074l-0.045,-0.074l-0.045,-0.075l-0.045,-0.075l-0.044,-0.076l-0.044,-0.077l-0.043,-0.078l-0.043,-0.079l-0.042,-0.079l-0.042,-0.08l-0.041,-0.081l-0.041,-0.082l-0.04,-0.082l-0.04,-0.083l-0.039,-0.084l-0.039,-0.084l-0.038,-0.086l-0.038,-0.086l-0.037,-0.087l-0.037,-0.087l-0.038,-0.093l-0.041,-0.082l-0.041,-0.086l-0.01,-0.022l-0.03,-0.063l-0.04,-0.086l-0.039,-0.086l-0.037,-0.085l-0.037,-0.086l-0.036,-0.085l-0.035,-0.085l-0.035,-0.086l-0.033,-0.085l-0.033,-0.085l-0.032,-0.084l-0.03,-0.085l-0.03,-0.085l-0.03,-0.084l-0.028,-0.084l-0.027,-0.085l-0.027,-0.084l-0.026,-0.084l-0.025,-0.084l-0.024,-0.083l-0.023,-0.084l-0.023,-0.083l-0.022,-0.084l-0.02,-0.083l-0.02,-0.083l-0.02,-0.083l-0.018,-0.083l-0.017,-0.082l-0.017,-0.083l-0.016,-0.082l-0.015,-0.082l-0.015,-0.082l-0.013,-0.082l-0.013,-0.081l-0.012,-0.082l-0.011,-0.081l-0.01,-0.081l-0.01,-0.081l-0.009,-0.081l-0.008,-0.08l-0.007,-0.081l-0.007,-0.08l-0.005,-0.08l-0.005,-0.079l-0.005,-0.08l-0.003,-0.079l-0.003,-0.079l-0.002,-0.083l-0.002,-0.152l0.001,-0.156l0.004,-0.155l0.007,-0.154l0.009,-0.152l0.012,-0.152l0.015,-0.15l0.018,-0.149l0.02,-0.148l0.022,-0.146l0.025,-0.145l0.027,-0.144l0.03,-0.142l0.032,-0.141l0.034,-0.14l0.036,-0.138l0.039,-0.136l0.04,-0.135l0.042,-0.134l0.044,-0.132l0.046,-0.13l0.048,-0.129l0.049,-0.127l0.051,-0.125l0.052,-0.124l0.054,-0.122l0.056,-0.121l0.056,-0.119l0.058,-0.117l0.06,-0.116l0.06,-0.114l0.061,-0.112l0.063,-0.111l0.063,-0.109l0.065,-0.107l0.065,-0.105l0.066,-0.104l0.067,-0.103l0.067,-0.1l0.019,-0.028l0.049,-0.071l0.069,-0.097l0.07,-0.095l0.07,-0.094l0.07,-0.092l0.071,-0.09l0.071,-0.089l0.071,-0.087l0.071,-0.086l0.072,-0.083l0.071,-0.083l0.072,-0.08l0.071,-0.08l0.071,-0.077l0.072,-0.076l0.071,-0.074l0.071,-0.073l0.07,-0.072l0.07,-0.069l0.07,-0.069l0.07,-0.066l0.069,-0.066l0.068,-0.063l0.072,-0.065l0.13,-0.117l0.095,-0.083l-0.007,-0.089l-0.01,-0.168l-0.006,-0.117l-0.002,-0.059l-0.004,-0.178l-0.001,-0.098l0,-0.095l0.001,-0.097l0.001,-0.098l0.002,-0.1l0.003,-0.102l0.004,-0.102l0.005,-0.105l0.006,-0.106l0.006,-0.107l0.008,-0.108l0.009,-0.11l0.01,-0.112l0.012,-0.112l0.012,-0.114l0.014,-0.115l0.015,-0.117l0.016,-0.118l0.018,-0.118l0.019,-0.12l0.021,-0.122l0.022,-0.122l0.023,-0.123l0.025,-0.125l0.027,-0.125l0.028,-0.126l0.03,-0.128l0.032,-0.128l0.034,-0.129l0.035,-0.13l0.037,-0.131l0.039,-0.132l0.041,-0.133l0.043,-0.133l0.045,-0.134l0.02,-0.057l0.03,-0.076l0.053,-0.133l0.056,-0.134l0.058,-0.134l0.06,-0.135l0.062,-0.135l0.064,-0.135l0.067,-0.135l0.069,-0.136l0.072,-0.136l0.074,-0.135l0.076,-0.136l0.079,-0.136l0.081,-0.136l0.083,-0.136l0.084,-0.131l0.003,-0.004l0.09,-0.135l0.092,-0.134l0.095,-0.134l0.098,-0.134l0.101,-0.133l0.103,-0.132l0.105,-0.132l0.109,-0.132l0.111,-0.131l0.114,-0.13l0.116,-0.13l0.119,-0.128l0.122,-0.128l0.125,-0.127l0.128,-0.127l0.13,-0.125l0.133,-0.124l0.136,-0.123l0.138,-0.122l0.021,-0.018l0.122,-0.103l0.145,-0.118l0.147,-0.118l0.151,-0.117l0.153,-0.115l0.157,-0.113l0.159,-0.113l0.158,-0.108l0.085,-0.058l0.083,-0.054l0.084,-0.054l0.084,-0.054l0.085,-0.054l0.085,-0.053l0.086,-0.052l0.087,-0.053l0.088,-0.051l0.088,-0.052l0.089,-0.051l0.09,-0.051l0.091,-0.05l0.091,-0.05l0.092,-0.049l0.093,-0.049l0.093,-0.049l0.094,-0.048l0.095,-0.048l0.097,-0.048l0.089,-0.043l0.091,-0.043l0.09,-0.043l0.091,-0.041l0.091,-0.04l0.091,-0.039l0.091,-0.039l0.091,-0.037l0.091,-0.036l0.091,-0.036l0.091,-0.034l0.091,-0.033l0.091,-0.033l0.091,-0.032l0.091,-0.03l0.091,-0.03l0.091,-0.029l0.091,-0.027l0.09,-0.027l0.091,-0.026l0.091,-0.025l0.091,-0.024l0.09,-0.023l0.091,-0.022l0.091,-0.022l0.09,-0.02l0.09,-0.02l0.09,-0.018l0.09,-0.018l0.09,-0.017l0.09,-0.016l0.09,-0.015l0.089,-0.014l0.09,-0.013l0.089,-0.013l0.089,-0.011l0.089,-0.011l0.088,-0.01l0.089,-0.009l0.088,-0.008l0.088,-0.007l0.088,-0.007l0.088,-0.006l0.087,-0.005l0.087,-0.004l0.093,-0.004l0.167,-0.004l0.172,-0.001l0.088,0Zm-0.063,2.602l-0.127,0.002l-0.127,0.004l-0.064,0.004l-0.064,0.003l-0.064,0.005l-0.064,0.004l-0.065,0.006l-0.064,0.006l-0.065,0.007l-0.065,0.007l-0.065,0.008l-0.065,0.008l-0.065,0.009l-0.065,0.01l-0.066,0.01l-0.065,0.011l-0.066,0.012l-0.066,0.012l-0.066,0.013l-0.066,0.014l-0.066,0.014l-0.066,0.015l-0.067,0.016l-0.066,0.016l-0.067,0.017l-0.066,0.018l-0.067,0.018l-0.067,0.02l-0.067,0.019l-0.067,0.021l-0.067,0.021l-0.068,0.022l-0.067,0.023l-0.068,0.023l-0.067,0.025l-0.068,0.024l-0.068,0.026l-0.068,0.027l-0.068,0.027l-0.068,0.028l-0.068,0.028l-0.068,0.03l-0.068,0.03l-0.069,0.031l-0.068,0.032l-0.069,0.033l-0.068,0.033l-0.069,0.035l-0.08,0.04l-0.078,0.041l-0.078,0.041l-0.078,0.041l-0.076,0.042l-0.076,0.042l-0.075,0.042l-0.074,0.042l-0.074,0.043l-0.073,0.042l-0.072,0.043l-0.071,0.044l-0.071,0.043l-0.07,0.044l-0.069,0.044l-0.069,0.045l-0.068,0.044l-0.067,0.045l-0.067,0.045l-0.066,0.045l-0.129,0.091l-0.128,0.092l-0.124,0.092l-0.122,0.094l-0.119,0.094l-0.116,0.094l-0.114,0.096l-0.112,0.096l-0.109,0.097l-0.106,0.097l-0.104,0.098l-0.102,0.099l-0.099,0.099l-0.097,0.1l-0.095,0.1l-0.092,0.1l-0.09,0.101l-0.088,0.101l-0.085,0.102l-0.084,0.102l-0.081,0.102l-0.079,0.103l-0.076,0.103l-0.075,0.103l-0.073,0.103l-0.071,0.103l-0.068,0.104l-0.067,0.103l-0.065,0.104l-0.062,0.104l-0.061,0.104l-0.059,0.104l-0.057,0.103l-0.056,0.104l-0.053,0.104l-0.052,0.103l-0.05,0.104l-0.048,0.103l-0.047,0.103l-0.045,0.103l-0.043,0.102l-0.042,0.103l-0.04,0.102l-0.039,0.102l-0.037,0.101l-0.036,0.101l-0.034,0.1l-0.032,0.101l-0.032,0.099l-0.03,0.099l-0.028,0.099l-0.027,0.098l-0.026,0.098l-0.025,0.097l-0.023,0.096l-0.023,0.095l-0.021,0.095l-0.02,0.095l-0.018,0.093l-0.018,0.093l-0.016,0.092l-0.016,0.091l-0.014,0.09l-0.014,0.09l-0.012,0.088l-0.012,0.088l-0.01,0.086l-0.01,0.086l-0.009,0.084l-0.008,0.084l-0.007,0.082l-0.006,0.082l-0.006,0.08l-0.005,0.079l-0.004,0.078l-0.003,0.077l-0.003,0.075l-0.002,0.074l-0.003,0.145l-0.001,0.139l0.002,0.134l0.003,0.127l0.004,0.122l0.006,0.115l0.007,0.109l0.008,0.103l0.008,0.095l0.009,0.088l0.009,0.081l0.009,0.073l0.009,0.066l0.008,0.057l0.014,0.09l0.01,0.056l0.004,0.018l-0.018,0.01l-0.052,0.027l-0.083,0.045l-0.052,0.03l-0.059,0.035l-0.065,0.038l-0.072,0.044l-0.077,0.048l-0.082,0.053l-0.088,0.057l-0.092,0.063l-0.096,0.066l-0.101,0.072l-0.104,0.076l-0.107,0.081l-0.11,0.085l-0.112,0.091l-0.057,0.046l-0.058,0.049l-0.058,0.049l-0.059,0.05l-0.058,0.052l-0.06,0.053l-0.059,0.054l-0.06,0.055l-0.06,0.056l-0.06,0.058l-0.06,0.058l-0.06,0.06l-0.06,0.061l-0.061,0.063l-0.06,0.063l-0.06,0.065l-0.06,0.066l-0.059,0.067l-0.06,0.068l-0.059,0.07l-0.059,0.071l-0.058,0.071l-0.058,0.074l-0.058,0.074l-0.057,0.075l-0.057,0.077l-0.056,0.078l-0.055,0.079l-0.055,0.081l-0.054,0.081l-0.053,0.083l-0.052,0.084l-0.052,0.085l-0.05,0.087l-0.05,0.087l-0.048,0.089l-0.048,0.09l-0.047,0.091l-0.045,0.093l-0.044,0.094l-0.043,0.095l-0.042,0.096l-0.041,0.097l-0.039,0.099l-0.038,0.1l-0.036,0.101l-0.035,0.102l-0.034,0.104l-0.032,0.105l-0.03,0.106l-0.028,0.107l-0.027,0.108l-0.026,0.11l-0.023,0.111l-0.022,0.112l-0.019,0.114l-0.018,0.114l-0.016,0.116l-0.014,0.117l-0.012,0.119l-0.01,0.12l-0.008,0.12l-0.005,0.123l-0.002,0.061l-0.002,0.062l0,0.062l-0.001,0.063l0.001,0.062l0.001,0.064l0.001,0.063l0.002,0.064l0.003,0.064l0.003,0.064l0.004,0.065l0.005,0.065l0.005,0.065l0.005,0.066l0.007,0.066l0.007,0.066l0.007,0.066l0.009,0.067l0.009,0.067l0.009,0.068l0.011,0.068l0.01,0.068l0.012,0.068l0.012,0.069l0.013,0.069l0.014,0.07l0.014,0.069l0.015,0.07l0.016,0.071l0.017,0.07l0.017,0.071l0.018,0.072l0.018,0.071l0.02,0.072l0.02,0.072l0.021,0.073l0.021,0.073l0.022,0.073l0.024,0.073l0.023,0.074l0.025,0.074l0.026,0.075l0.026,0.075l0.027,0.075l0.027,0.075l0.029,0.076l0.029,0.076l0.031,0.076l0.031,0.077l0.031,0.077l0.033,0.076l0.032,0.075l0.033,0.075l0.033,0.073l0.034,0.073l0.034,0.072l0.034,0.071l0.035,0.071l0.035,0.069l0.035,0.069l0.036,0.068l0.036,0.067l0.036,0.067l0.037,0.065l0.037,0.065l0.037,0.065l0.038,0.063l0.038,0.063l0.038,0.062l0.039,0.061l0.039,0.06l0.039,0.06l0.039,0.059l0.04,0.058l0.04,0.058l0.041,0.056l0.04,0.056l0.041,0.056l0.041,0.054l0.042,0.054l0.041,0.054l0.042,0.052l0.042,0.052l0.043,0.051l0.042,0.051l0.043,0.049l0.043,0.05l0.044,0.048l0.043,0.048l0.044,0.047l0.044,0.046l0.045,0.046l0.044,0.045l0.045,0.045l0.045,0.044l0.045,0.043l0.045,0.043l0.046,0.041l0.045,0.042l0.046,0.041l0.046,0.04l0.047,0.039l0.046,0.039l0.047,0.038l0.046,0.038l0.047,0.037l0.047,0.036l0.047,0.036l0.095,0.07l0.096,0.068l0.096,0.065l0.096,0.064l0.097,0.061l0.098,0.058l0.098,0.057l0.098,0.054l0.098,0.053l0.099,0.05l0.099,0.049l0.1,0.046l0.1,0.045l0.099,0.042l0.1,0.041l0.101,0.039l0.1,0.037l0.1,0.035l0.101,0.033l0.1,0.032l0.1,0.03l0.101,0.028l0.1,0.027l0.1,0.025l0.1,0.024l0.099,0.022l0.1,0.021l0.099,0.019l0.099,0.018l0.099,0.016l0.098,0.015l0.098,0.014l0.098,0.012l0.097,0.011l0.096,0.01l0.097,0.009l0.095,0.007l0.095,0.006l0.095,0.006l0.094,0.004l0.093,0.003l0.092,0.002l0.092,0.002l0.091,0l0.09,-0.001l0.09,-0.001l0.088,-0.002l0.088,-0.003l0.087,-0.004l0.086,-0.005l0.085,-0.005l0.083,-0.006l0.083,-0.007l0.082,-0.007l0.081,-0.008l0.079,-0.008l0.079,-0.009l0.077,-0.009l0.076,-0.01l0.148,-0.021l0.143,-0.022l0.137,-0.023l0.132,-0.024l0.126,-0.024l0.119,-0.025l0.113,-0.025l0.106,-0.025l0.099,-0.024l0.091,-0.024l0.084,-0.022l0.077,-0.021l0.068,-0.02l0.06,-0.018l0.094,-0.03l0.058,-0.019l0.02,-0.007l0.012,0.018l0.035,0.053l0.058,0.085l0.037,0.054l0.043,0.06l0.049,0.067l0.054,0.073l0.06,0.079l0.065,0.084l0.07,0.089l0.076,0.095l0.082,0.098l0.086,0.103l0.092,0.106l0.097,0.11l0.103,0.112l0.107,0.116l0.056,0.058l0.057,0.059l0.058,0.06l0.06,0.06l0.06,0.06l0.062,0.061l0.064,0.061l0.064,0.061l0.066,0.061l0.067,0.062l0.068,0.061l0.07,0.062l0.07,0.062l0.072,0.062l0.073,0.062l0.075,0.061l0.075,0.062l0.077,0.061l0.078,0.061l0.079,0.061l0.08,0.06l0.082,0.061l0.083,0.059l0.084,0.059l0.085,0.059l0.086,0.058l0.087,0.058l0.089,0.057l0.089,0.056l0.091,0.056l0.092,0.055l0.093,0.054l0.094,0.053l0.096,0.052l0.096,0.051l0.098,0.051l0.098,0.049l0.1,0.048l0.101,0.047l0.102,0.046l0.103,0.045l0.104,0.043l0.106,0.042l0.106,0.041l0.107,0.039l0.109,0.038l0.109,0.037l0.111,0.035l0.112,0.033l0.112,0.032l0.114,0.03l0.115,0.028l0.116,0.027l0.116,0.025l0.118,0.023l0.119,0.021l0.12,0.019l0.121,0.017l0.122,0.016l0.123,0.013l0.124,0.011l0.125,0.009l0.063,0.003l0.063,0.004l0.063,0.002l0.064,0.002l0.064,0.001l0.064,0.001l0.064,0.001l0.065,-0.001l0.064,-0.001l0.065,-0.001l0.066,-0.002l0.065,-0.003l0.066,-0.003l0.066,-0.004l0.066,-0.005l0.067,-0.005l0.066,-0.006l0.067,-0.007l0.068,-0.007l0.067,-0.008l0.068,-0.008l0.068,-0.009l0.068,-0.01l0.068,-0.011l0.069,-0.011l0.068,-0.012l0.07,-0.012l0.069,-0.013l0.069,-0.014l0.07,-0.015l0.07,-0.015l0.07,-0.016l0.071,-0.017l0.07,-0.018l0.071,-0.018l0.071,-0.019l0.072,-0.02l0.071,-0.02l0.072,-0.022l0.072,-0.022l0.072,-0.023l0.073,-0.023l0.073,-0.025l0.072,-0.025l0.074,-0.026l0.073,-0.026l0.074,-0.028l0.073,-0.028l0.074,-0.029l0.075,-0.03l0.074,-0.031l0.075,-0.032l0.061,-0.027l0.061,-0.028l0.062,-0.029l0.062,-0.031l0.063,-0.032l0.064,-0.034l0.064,-0.034l0.064,-0.036l0.065,-0.037l0.065,-0.038l0.066,-0.04l0.066,-0.04l0.066,-0.041l0.067,-0.042l0.067,-0.043l0.067,-0.044l0.135,-0.091l0.136,-0.093l0.136,-0.097l0.137,-0.098l0.137,-0.101l0.137,-0.103l0.137,-0.104l0.137,-0.105l0.136,-0.106l0.135,-0.107l0.135,-0.106l0.133,-0.107l0.263,-0.212l0.257,-0.207l0.248,-0.201l0.239,-0.192l0.115,-0.091l0.113,-0.088l0.109,-0.085l0.106,-0.081l0.12,0.129l0.121,0.126l0.122,0.124l0.123,0.123l0.124,0.12l0.125,0.118l0.126,0.116l0.126,0.114l0.128,0.112l0.129,0.111l0.13,0.108l0.13,0.106l0.132,0.104l0.133,0.102l0.133,0.1l0.135,0.098l0.135,0.096l0.136,0.094l0.138,0.092l0.138,0.09l0.139,0.088l0.14,0.087l0.141,0.084l0.142,0.082l0.143,0.08l0.144,0.079l0.145,0.076l0.146,0.075l0.146,0.072l0.148,0.071l0.148,0.069l0.15,0.067l0.15,0.064l0.151,0.063l0.152,0.061l0.154,0.06l0.153,0.057l0.155,0.055l0.156,0.054l0.157,0.052l0.157,0.049l0.159,0.048l0.159,0.046l0.16,0.045l0.161,0.042l0.162,0.04l0.163,0.039l0.164,0.037l0.164,0.035l0.166,0.033l0.166,0.031l0.167,0.03l0.168,0.028l0.169,0.026l0.17,0.024l0.171,0.022l0.171,0.021l0.173,0.018l0.173,0.017l0.174,0.015l0.175,0.014l0.176,0.011l0.176,0.01l0.178,0.008l-0.137,-0.097l-0.136,-0.098l-0.133,-0.1l-0.132,-0.101l-0.131,-0.101l-0.129,-0.103l-0.127,-0.104l-0.126,-0.105l-0.124,-0.106l-0.122,-0.107l-0.121,-0.108l-0.119,-0.109l-0.118,-0.111l-0.116,-0.111l-0.115,-0.112l-0.113,-0.114l-0.111,-0.114l-0.11,-0.115l-0.109,-0.117l-0.107,-0.117l-0.105,-0.118l-0.104,-0.12l-0.103,-0.12l-0.101,-0.121l-0.099,-0.123l-0.099,-0.123l-0.096,-0.124l-0.095,-0.125l-0.094,-0.127l-0.093,-0.127l-0.091,-0.128l-0.089,-0.129l-0.088,-0.13l-0.087,-0.131l-0.085,-0.131l-0.084,-0.133l-0.083,-0.134l-0.081,-0.134l-0.08,-0.136l-0.079,-0.136l-0.077,-0.137l-0.076,-0.138l-0.074,-0.139l-0.074,-0.14l-0.072,-0.141l-0.07,-0.141l-0.07,-0.143l-0.068,-0.143l-0.067,-0.144l-0.065,-0.145l-0.065,-0.146l-0.063,-0.146l-0.061,-0.148l-0.061,-0.148l-0.059,-0.149l-0.059,-0.15l-0.057,-0.151l-0.055,-0.151l-0.055,-0.153l-0.053,-0.153l-0.053,-0.154l-0.051,-0.154l-0.05,-0.156l-0.048,-0.156l0.066,-0.098l0.066,-0.099l0.066,-0.1l0.065,-0.1l0.064,-0.1l0.063,-0.101l0.063,-0.102l0.062,-0.102l0.062,-0.102l0.061,-0.103l0.06,-0.104l0.06,-0.104l0.059,-0.104l0.058,-0.104l0.058,-0.106l0.057,-0.105l0.056,-0.106l0.055,-0.106l0.055,-0.107l0.054,-0.107l0.054,-0.107l0.052,-0.108l0.052,-0.108l0.051,-0.108l0.051,-0.109l0.049,-0.109l0.049,-0.109l0.048,-0.11l0.048,-0.11l0.046,-0.11l0.046,-0.11l0.045,-0.111l0.044,-0.11l0.044,-0.111l0.042,-0.112l0.042,-0.111l0.041,-0.112l0.04,-0.111l0.04,-0.112l0.038,-0.113l0.038,-0.112l0.037,-0.112l0.036,-0.113l0.035,-0.113l0.034,-0.112l0.033,-0.113l0.033,-0.113l0.032,-0.113l0.03,-0.113l0.03,-0.114l0.029,-0.113l0.028,-0.113l0.027,-0.113l0.027,-0.114l0.025,-0.113l0.024,-0.113l0.024,-0.114l0.022,-0.113l0.022,-0.113l0.02,-0.114l0.02,-0.113l0.019,-0.113l0.017,-0.113l0.017,-0.113l0.016,-0.113l0.015,-0.113l0.013,-0.112l0.013,-0.113l0.012,-0.113l0.011,-0.112l0.009,-0.112l0.009,-0.112l0.008,-0.112l0.007,-0.112l0.005,-0.111l0.005,-0.111l0.003,-0.111l0.003,-0.111l0.001,-0.111l0,-0.11l0,-0.11l-0.002,-0.11l-0.003,-0.11l-0.004,-0.109l-0.005,-0.109l-0.006,-0.109l-0.008,-0.108l-0.008,-0.108l-0.01,-0.108l-0.01,-0.107l-0.012,-0.108l-0.013,-0.106l-0.014,-0.107l-0.015,-0.106l-0.017,-0.105l-0.017,-0.105l-0.019,-0.105l-0.02,-0.104l-0.021,-0.104l-0.022,-0.104l-0.024,-0.103l-0.024,-0.102l-0.026,-0.103l-0.027,-0.101l-0.029,-0.101l-0.029,-0.101l-0.031,-0.1l-0.032,-0.1l-0.033,-0.099l-0.035,-0.098l-0.035,-0.098l-0.037,-0.098l-0.038,-0.097l-0.04,-0.096l-0.041,-0.096l-0.042,-0.095l-0.043,-0.094l-0.045,-0.094l-0.046,-0.093l-0.047,-0.093l-0.049,-0.092l-0.049,-0.091l-0.052,-0.091l-0.052,-0.09l-0.054,-0.089l-0.055,-0.088l-0.057,-0.088l-0.058,-0.087l-0.082,-0.121l-0.084,-0.118l-0.084,-0.116l-0.085,-0.113l-0.086,-0.112l-0.087,-0.109l-0.088,-0.106l-0.088,-0.105l-0.089,-0.102l-0.09,-0.1l-0.091,-0.098l-0.091,-0.096l-0.092,-0.094l-0.092,-0.091l-0.093,-0.09l-0.094,-0.088l-0.094,-0.085l-0.095,-0.084l-0.095,-0.081l-0.095,-0.08l-0.096,-0.077l-0.097,-0.076l-0.097,-0.074l-0.097,-0.072l-0.097,-0.07l-0.098,-0.069l-0.098,-0.066l-0.099,-0.065l-0.098,-0.063l-0.099,-0.061l-0.099,-0.06l-0.099,-0.058l-0.1,-0.056l-0.099,-0.054l-0.1,-0.053l-0.099,-0.052l-0.1,-0.05l-0.1,-0.048l-0.1,-0.047l-0.099,-0.045l-0.1,-0.043l-0.099,-0.043l-0.1,-0.041l-0.099,-0.039l-0.099,-0.038l-0.099,-0.037l-0.099,-0.035l-0.099,-0.034l-0.098,-0.032l-0.098,-0.032l-0.098,-0.03l-0.097,-0.029l-0.097,-0.027l-0.097,-0.027l-0.096,-0.025l-0.096,-0.024l-0.095,-0.023l-0.095,-0.022l-0.095,-0.021l-0.094,-0.02l-0.093,-0.018l-0.093,-0.018l-0.092,-0.017l-0.092,-0.015l-0.091,-0.015l-0.09,-0.014l-0.09,-0.013l-0.089,-0.012l-0.088,-0.011l-0.087,-0.011l-0.087,-0.009l-0.086,-0.009l-0.085,-0.008l-0.084,-0.007l-0.083,-0.006l-0.082,-0.006l-0.082,-0.005l-0.08,-0.005l-0.08,-0.004l-0.078,-0.003l-0.154,-0.004l-0.149,-0.003l-0.145,0l-0.14,0.001l-0.135,0.004l-0.13,0.004l-0.125,0.006l-0.119,0.007l-0.114,0.008l-0.107,0.009l-0.102,0.009l-0.095,0.01l-0.089,0.01l-0.082,0.01l-0.075,0.01l-0.068,0.01l-0.114,0.018l-0.084,0.014l-0.051,0.01l-0.018,0.004l-0.014,-0.017l-0.044,-0.049l-0.072,-0.079l-0.046,-0.049l-0.053,-0.056l-0.059,-0.062l-0.067,-0.067l-0.072,-0.073l-0.079,-0.077l-0.085,-0.082l-0.092,-0.087l-0.097,-0.09l-0.103,-0.095l-0.11,-0.097l-0.114,-0.1l-0.121,-0.103l-0.126,-0.105l-0.132,-0.107l-0.137,-0.109l-0.071,-0.054l-0.071,-0.056l-0.073,-0.055l-0.075,-0.055l-0.076,-0.056l-0.076,-0.055l-0.079,-0.056l-0.079,-0.056l-0.081,-0.056l-0.081,-0.055l-0.083,-0.056l-0.085,-0.055l-0.085,-0.055l-0.087,-0.055l-0.087,-0.055l-0.089,-0.054l-0.09,-0.054l-0.091,-0.053l-0.092,-0.053l-0.093,-0.053l-0.095,-0.052l-0.095,-0.051l-0.096,-0.051l-0.098,-0.05l-0.098,-0.05l-0.1,-0.048l-0.1,-0.048l-0.102,-0.047l-0.102,-0.046l-0.104,-0.046l-0.104,-0.044l-0.105,-0.043l-0.107,-0.042l-0.107,-0.041l-0.108,-0.04l-0.109,-0.039l-0.11,-0.037l-0.11,-0.037l-0.112,-0.035l-0.112,-0.033l-0.114,-0.033l-0.114,-0.03l-0.114,-0.03l-0.116,-0.028l-0.116,-0.026l-0.118,-0.024l-0.118,-0.023l-0.118,-0.022l-0.12,-0.019l-0.12,-0.018l-0.121,-0.016l-0.121,-0.014l-0.122,-0.012l-0.123,-0.011l-0.124,-0.008l-0.124,-0.006l-0.125,-0.004l-0.125,-0.002l-0.126,0Zm46.771,-13.785l0.212,0.004l0.212,0.007l0.213,0.009l0.213,0.012l0.213,0.014l0.214,0.017l0.213,0.019l0.214,0.022l0.214,0.024l0.214,0.027l0.215,0.029l0.214,0.031l0.214,0.034l0.215,0.037l0.215,0.039l0.214,0.042l0.183,0.037l0.032,0.007l0.214,0.048l0.214,0.05l0.214,0.054l0.214,0.055l0.213,0.059l0.214,0.06l0.213,0.064l0.213,0.066l0.213,0.068l0.212,0.071l0.213,0.074l0.212,0.077l0.211,0.079l0.208,0.08l0.109,0.043l0.105,0.043l0.105,0.043l0.106,0.043l0.104,0.045l0.105,0.045l0.104,0.045l0.107,0.048l0.203,0.092l0.205,0.095l0.203,0.098l0.202,0.1l0.2,0.102l0.198,0.104l0.197,0.106l0.195,0.108l0.194,0.111l0.192,0.112l0.19,0.114l0.188,0.115l0.187,0.118l0.091,0.059l0.094,0.062l0.182,0.122l0.181,0.125l0.179,0.126l0.177,0.129l0.175,0.13l0.174,0.131l0.172,0.134l0.17,0.135l0.168,0.137l0.166,0.138l0.165,0.141l0.162,0.141l0.109,0.097l0.051,0.047l0.157,0.147l0.155,0.148l0.154,0.15l0.151,0.151l0.149,0.153l0.148,0.154l0.145,0.155l0.143,0.157l0.142,0.159l0.02,0.023l0.113,0.141l0.131,0.166l0.129,0.168l0.127,0.169l0.124,0.169l0.123,0.171l0.12,0.172l0.118,0.173l0.115,0.174l0.114,0.175l0.111,0.176l0.109,0.178l0.107,0.178l0.105,0.179l0.103,0.179l0.1,0.181l0.098,0.182l0.095,0.182l0.075,0.147l0.018,0.037l0.089,0.186l0.086,0.186l0.084,0.187l0.081,0.187l0.08,0.189l0.077,0.189l0.074,0.189l0.072,0.191l0.07,0.19l0.068,0.192l0.065,0.192l0.062,0.192l0.061,0.193l0.057,0.193l0.056,0.194l0.053,0.194l0.051,0.195l0.048,0.195l0.046,0.195l0.043,0.196l0.041,0.196l0.038,0.196l0.036,0.197l0.034,0.197l0.031,0.197l0.028,0.197l0.026,0.197l0.022,0.186l0.001,0.012l0.02,0.198l0.018,0.198l0.014,0.198l0.013,0.198l0.009,0.198l0.007,0.198l0.005,0.198l0.002,0.198l-0.001,0.198l-0.003,0.197l-0.006,0.198l-0.008,0.194l-0.005,0.102l-0.006,0.099l-0.006,0.098l-0.007,0.099l-0.008,0.098l-0.009,0.098l-0.009,0.099l-0.009,0.098l-0.011,0.098l-0.011,0.098l-0.012,0.098l-0.012,0.098l-0.013,0.098l-0.014,0.097l-0.014,0.098l-0.015,0.098l-0.016,0.097l-0.016,0.097l-0.017,0.097l-0.018,0.098l-0.018,0.097l-0.019,0.096l-0.02,0.097l-0.02,0.097l-0.021,0.096l-0.022,0.097l-0.022,0.096l-0.023,0.096l-0.024,0.096l-0.024,0.096l-0.025,0.095l-0.026,0.096l-0.026,0.095l-0.027,0.096l-0.028,0.095l-0.028,0.095l-0.029,0.094l-0.03,0.095l-0.03,0.094l-0.031,0.094l-0.032,0.094l-0.032,0.094l-0.033,0.094l-0.034,0.093l-0.034,0.094l-0.035,0.093l-0.036,0.092l-0.036,0.093l-0.037,0.093l-0.038,0.092l-0.039,0.092l-0.039,0.092l-0.039,0.091l-0.041,0.092l-0.041,0.091l-0.042,0.091l-0.042,0.09l-0.043,0.091l-0.044,0.09l-0.044,0.089l-0.001,0.001l-0.045,0.09l-0.044,0.085l-0.041,0.096l-0.04,0.092l-0.04,0.092l-0.041,0.091l-0.041,0.091l-0.042,0.09l-0.043,0.09l-0.043,0.09l-0.044,0.089l-0.045,0.089l-0.045,0.088l-0.045,0.088l-0.046,0.087l-0.047,0.088l-0.047,0.086l-0.048,0.087l-0.048,0.086l-0.049,0.085l-0.05,0.085l-0.05,0.085l-0.051,0.084l-0.051,0.084l-0.051,0.083l-0.053,0.083l-0.052,0.083l-0.054,0.082l-0.053,0.081l-0.055,0.082l-0.055,0.08l-0.055,0.081l-0.056,0.08l-0.056,0.079l-0.057,0.079l-0.058,0.079l-0.058,0.078l-0.058,0.078l-0.059,0.077l-0.06,0.077l-0.059,0.076l-0.061,0.076l-0.061,0.076l-0.061,0.075l-0.062,0.074l-0.062,0.074l-0.063,0.074l-0.064,0.073l-0.063,0.073l-0.065,0.072l-0.064,0.072l-0.065,0.072l-0.066,0.07l-0.066,0.071l-0.067,0.07l-0.067,0.069l-0.067,0.069l-0.068,0.069l-0.068,0.068l-0.069,0.068l-0.069,0.067l-0.07,0.067l-0.07,0.066l-0.072,0.067l-0.14,0.129l-0.144,0.128l-0.146,0.126l-0.147,0.124l-0.148,0.123l-0.151,0.12l-0.151,0.119l-0.154,0.116l-0.154,0.115l-0.157,0.112l-0.157,0.111l-0.159,0.108l-0.161,0.107l-0.162,0.105l-0.163,0.102l-0.165,0.101l-0.166,0.099l-0.167,0.096l-0.168,0.095l-0.17,0.092l-0.171,0.091l-0.119,0.061l-0.053,0.027l-0.173,0.086l-0.175,0.084l-0.176,0.081l-0.177,0.08l-0.178,0.078l-0.179,0.075l-0.18,0.074l-0.181,0.071l-0.182,0.069l-0.183,0.067l-0.184,0.065l-0.185,0.063l-0.186,0.061l-0.187,0.058l-0.188,0.057l-0.188,0.054l-0.189,0.052l-0.191,0.05l-0.191,0.048l-0.191,0.045l-0.193,0.044l-0.193,0.041l-0.194,0.039l-0.194,0.037l-0.196,0.035l-0.195,0.032l-0.197,0.03l-0.197,0.028l-0.198,0.026l-0.198,0.024l-0.199,0.021l-0.199,0.019l-0.2,0.017l-0.2,0.015l-0.201,0.012l-0.201,0.01l-0.202,0.008l-0.202,0.005l-0.202,0.003l-0.084,0.001l-0.119,0l-0.203,-0.003l-0.204,-0.004l-0.203,-0.007l-0.204,-0.01l-0.204,-0.011l-0.205,-0.014l-0.204,-0.017l-0.205,-0.018l-0.205,-0.021l-0.205,-0.024l-0.205,-0.026l-0.205,-0.028l-0.206,-0.03l-0.205,-0.033l-0.192,-0.034l-0.013,-0.002l-0.205,-0.039l-0.205,-0.042l-0.205,-0.045l-0.205,-0.046l-0.205,-0.049l-0.204,-0.052l-0.205,-0.054l-0.204,-0.057l-0.204,-0.058l-0.204,-0.062l-0.054,-0.017l-0.148,-0.052l-0.201,-0.073l-0.2,-0.075l-0.2,-0.078l-0.2,-0.081l-0.199,-0.083l-0.198,-0.085l-0.196,-0.087l-0.101,-0.045l-0.098,-0.046l-0.099,-0.046l-0.099,-0.047l-0.123,-0.06l-0.124,-0.061l-0.124,-0.062l-0.123,-0.062l-0.122,-0.064l-0.122,-0.064l-0.121,-0.066l-0.121,-0.066l-0.12,-0.067l-0.12,-0.068l-0.119,-0.069l-0.119,-0.069l-0.008,-0.005l-0.109,-0.067l-0.117,-0.073l-0.115,-0.073l-0.116,-0.075l-0.115,-0.075l-0.114,-0.076l-0.113,-0.077l-0.113,-0.078l-0.112,-0.078l-0.112,-0.079l-0.09,-0.065l-0.028,0.022l-0.141,0.113l-0.142,0.11l-0.144,0.108l-0.144,0.106l-0.145,0.104l-0.146,0.101l-0.083,0.057l-0.064,0.043l-0.148,0.097l-0.148,0.096l-0.15,0.093l-0.15,0.091l-0.151,0.089l-0.152,0.086l-0.153,0.085l-0.154,0.082l-0.154,0.08l-0.156,0.078l-0.156,0.076l-0.157,0.074l-0.157,0.071l-0.159,0.069l-0.159,0.068l-0.16,0.065l-0.16,0.063l-0.162,0.061l-0.162,0.058l-0.162,0.057l-0.164,0.054l-0.164,0.053l-0.165,0.05l-0.165,0.048l-0.166,0.046l-0.167,0.045l-0.167,0.042l-0.168,0.04l-0.169,0.038l-0.169,0.036l-0.123,0.024l-0.046,0.01l-0.17,0.034l-0.171,0.031l-0.171,0.03l-0.172,0.027l-0.172,0.026l-0.173,0.024l-0.174,0.022l-0.174,0.02l-0.174,0.018l-0.176,0.016l-0.176,0.014l-0.176,0.012l-0.025,0.002l-0.152,0.011l-0.177,0.012l-0.178,0.01l-0.178,0.008l-0.18,0.007l-0.174,0.005l-0.18,-0.008l-0.176,-0.037l-0.167,-0.068l-0.154,-0.095l-0.134,-0.119l-0.113,-0.141l-0.087,-0.158l-0.058,-0.17l-0.029,-0.178l0.002,-0.18l0.033,-0.177l0.062,-0.169l0.091,-0.156l0.115,-0.138l0.138,-0.116l0.127,-0.088l0.121,-0.084l0.121,-0.085l0.021,-0.015l0.094,-0.074l0.114,-0.091l0.113,-0.092l0.111,-0.093l0.109,-0.094l0.108,-0.095l0.106,-0.095l0.105,-0.096l0.104,-0.098l0.102,-0.098l0.1,-0.099l0.1,-0.099l0.098,-0.101l0.053,-0.057l0.042,-0.045l0.094,-0.104l0.093,-0.104l0.091,-0.106l0.089,-0.106l0.089,-0.107l0.087,-0.107l0.085,-0.109l0.085,-0.109l0.083,-0.11l0.081,-0.111l0.081,-0.112l0.079,-0.112l0.078,-0.114l0.077,-0.114l0.075,-0.115l0.074,-0.116l0.073,-0.116l0.072,-0.118l0.026,-0.044l0.044,-0.074l0.068,-0.12l0.068,-0.12l0.066,-0.122l0.064,-0.122l0.064,-0.122l0.062,-0.124l0.062,-0.124l0.06,-0.125l0.059,-0.126l0.058,-0.127l0.056,-0.127l0.056,-0.128l0.055,-0.129l0.053,-0.13l0.052,-0.131l0.052,-0.131l0.05,-0.132l0.049,-0.133l0.048,-0.134l0.047,-0.134l0.046,-0.135l0.044,-0.136l0.044,-0.137l0.028,-0.089l-0.009,-0.014l-0.067,-0.101l-0.067,-0.102l-0.066,-0.102l-0.065,-0.102l-0.064,-0.103l-0.063,-0.103l-0.063,-0.103l-0.061,-0.104l-0.061,-0.104l-0.06,-0.105l-0.059,-0.104l-0.059,-0.106l-0.057,-0.105l-0.057,-0.106l-0.055,-0.106l-0.055,-0.106l-0.054,-0.107l-0.033,-0.065l-0.021,-0.042l-0.053,-0.107l-0.052,-0.107l-0.051,-0.108l-0.05,-0.108l-0.05,-0.108l-0.049,-0.108l-0.047,-0.109l-0.047,-0.109l-0.046,-0.109l-0.046,-0.11l-0.044,-0.11l-0.044,-0.11l-0.042,-0.11l-0.042,-0.111l-0.041,-0.11l-0.04,-0.112l-0.039,-0.111l-0.038,-0.111l-0.038,-0.112l-0.036,-0.112l-0.036,-0.112l-0.035,-0.112l-0.034,-0.113l-0.033,-0.113l-0.032,-0.113l-0.031,-0.113l-0.031,-0.113l-0.029,-0.114l-0.029,-0.113l-0.027,-0.114l-0.027,-0.114l-0.026,-0.114l-0.025,-0.115l-0.024,-0.114l-0.023,-0.115l-0.022,-0.115l-0.022,-0.115l-0.02,-0.115l-0.02,-0.115l-0.019,-0.115l-0.017,-0.116l-0.017,-0.115l-0.016,-0.116l-0.015,-0.115l-0.014,-0.116l-0.013,-0.116l-0.013,-0.116l-0.011,-0.116l-0.01,-0.117l-0.01,-0.116l-0.008,-0.116l-0.008,-0.116l-0.007,-0.117l-0.006,-0.116l-0.004,-0.117l-0.004,-0.117l-0.003,-0.116l-0.002,-0.117l-0.001,-0.117l-0.001,-0.116l0.001,-0.117l0.002,-0.117l0.003,-0.116l0.003,-0.117l0.005,-0.117l0.005,-0.117l0.007,-0.116l0.007,-0.117l0.009,-0.117l0.009,-0.116l0.01,-0.117l0.012,-0.117l0.012,-0.116l0.013,-0.116l0.014,-0.117l0.015,-0.116l0.016,-0.116l0.017,-0.117l0.018,-0.116l0.019,-0.116l0.02,-0.116l0.021,-0.116l0.022,-0.115l0.023,-0.116l0.024,-0.115l0.025,-0.116l0.026,-0.115l0.027,-0.115l0.027,-0.115l0.029,-0.115l0.03,-0.115l0.031,-0.114l0.031,-0.115l0.033,-0.114l0.034,-0.114l0.035,-0.114l0.035,-0.114l0.037,-0.113l0.038,-0.113l0.038,-0.113l0.04,-0.113l0.041,-0.113l0.041,-0.112l0.043,-0.113l0.043,-0.111l0.038,-0.095l0.012,-0.03l0.025,-0.065l0.037,-0.094l0.037,-0.094l0.038,-0.094l0.038,-0.094l0.04,-0.093l0.039,-0.093l0.041,-0.092l0.041,-0.092l0.042,-0.092l0.042,-0.092l0.043,-0.091l0.043,-0.09l0.045,-0.091l0.044,-0.09l0.046,-0.089l0.046,-0.09l0.046,-0.088l0.047,-0.089l0.048,-0.088l0.048,-0.088l0.049,-0.087l0.05,-0.087l0.05,-0.087l0.05,-0.086l0.052,-0.086l0.052,-0.085l0.052,-0.085l0.053,-0.085l0.053,-0.084l0.054,-0.084l0.055,-0.083l0.055,-0.083l0.056,-0.083l0.056,-0.082l0.057,-0.082l0.058,-0.081l0.058,-0.081l0.058,-0.08l0.059,-0.08l0.06,-0.08l0.06,-0.079l0.06,-0.079l0.061,-0.079l0.062,-0.078l0.062,-0.077l0.063,-0.077l0.063,-0.077l0.064,-0.076l0.064,-0.076l0.065,-0.076l0.065,-0.075l0.066,-0.074l0.066,-0.074l0.067,-0.074l0.048,-0.053l0.019,-0.02l0.068,-0.072l0.068,-0.073l0.069,-0.071l0.07,-0.071l0.072,-0.074l0.138,-0.137l0.143,-0.139l0.145,-0.136l0.146,-0.135l0.149,-0.132l0.15,-0.131l0.151,-0.129l0.154,-0.127l0.155,-0.125l0.157,-0.123l0.159,-0.122l0.16,-0.119l0.161,-0.117l0.164,-0.116l0.165,-0.113l0.166,-0.112l0.168,-0.109l0.169,-0.107l0.171,-0.106l0.173,-0.103l0.173,-0.101l0.176,-0.1l0.176,-0.097l0.178,-0.095l0.179,-0.093l0.17,-0.086l0.011,-0.005l0.185,-0.082l0.185,-0.08l0.187,-0.078l0.188,-0.076l0.189,-0.074l0.19,-0.071l0.191,-0.07l0.192,-0.067l0.193,-0.064l0.194,-0.063l0.194,-0.06l0.196,-0.059l0.197,-0.056l0.197,-0.053l0.198,-0.052l0.199,-0.049l0.2,-0.047l0.201,-0.044l0.201,-0.043l0.202,-0.04l0.203,-0.038l0.204,-0.035l0.204,-0.034l0.205,-0.03l0.205,-0.029l0.206,-0.026l0.207,-0.024l0.207,-0.022l0.208,-0.019l0.208,-0.017l0.209,-0.015l0.209,-0.012l0.21,-0.01l0.21,-0.007l0.211,-0.005l0.211,-0.003l0.211,0l0.212,0.002Zm-0.815,2.526l-0.182,0.003l-0.181,0.005l-0.181,0.007l-0.18,0.01l-0.18,0.011l-0.18,0.014l-0.179,0.015l-0.178,0.017l-0.179,0.02l-0.177,0.021l-0.177,0.024l-0.177,0.025l-0.176,0.028l-0.175,0.029l-0.175,0.032l-0.174,0.033l-0.173,0.035l-0.173,0.038l-0.172,0.039l-0.172,0.041l-0.17,0.043l-0.17,0.045l-0.169,0.047l-0.169,0.049l-0.167,0.051l-0.167,0.053l-0.166,0.054l-0.165,0.057l-0.164,0.058l-0.163,0.06l-0.163,0.063l-0.161,0.064l-0.16,0.065l-0.16,0.068l-0.158,0.07l-0.158,0.071l-0.156,0.073l-0.155,0.075l-0.155,0.077l-0.153,0.079l-0.152,0.08l-0.151,0.083l-0.15,0.084l-0.148,0.086l-0.148,0.087l-0.146,0.09l-0.145,0.091l-0.143,0.093l-0.143,0.095l-0.141,0.096l-0.14,0.098l-0.138,0.1l-0.138,0.102l-0.135,0.103l-0.135,0.105l-0.133,0.107l-0.131,0.109l-0.131,0.11l-0.128,0.112l-0.128,0.113l-0.063,0.058l-0.062,0.058l-0.063,0.058l-0.062,0.059l-0.061,0.059l-0.061,0.059l-0.061,0.06l-0.06,0.06l-0.06,0.061l-0.06,0.061l-0.059,0.062l-0.059,0.062l-0.058,0.062l-0.058,0.063l-0.058,0.063l-0.057,0.064l-0.057,0.064l-0.056,0.064l-0.056,0.065l-0.055,0.066l-0.056,0.065l-0.054,0.066l-0.054,0.067l-0.054,0.067l-0.053,0.067l-0.053,0.067l-0.053,0.069l-0.052,0.068l-0.052,0.069l-0.051,0.069l-0.05,0.07l-0.051,0.07l-0.049,0.07l-0.05,0.071l-0.049,0.071l-0.048,0.072l-0.048,0.072l-0.048,0.072l-0.047,0.073l-0.046,0.073l-0.046,0.074l-0.046,0.074l-0.045,0.074l-0.045,0.075l-0.044,0.075l-0.044,0.075l-0.043,0.076l-0.043,0.076l-0.042,0.077l-0.042,0.077l-0.041,0.077l-0.041,0.078l-0.04,0.078l-0.04,0.079l-0.039,0.079l-0.039,0.079l-0.038,0.079l-0.038,0.08l-0.037,0.081l-0.037,0.081l-0.036,0.081l-0.036,0.081l-0.041,0.097l-0.041,0.097l-0.04,0.097l-0.039,0.097l-0.038,0.098l-0.037,0.098l-0.036,0.098l-0.035,0.098l-0.035,0.099l-0.034,0.099l-0.033,0.099l-0.032,0.099l-0.031,0.099l-0.03,0.1l-0.03,0.1l-0.028,0.1l-0.028,0.1l-0.027,0.101l-0.026,0.1l-0.025,0.101l-0.025,0.101l-0.023,0.101l-0.023,0.101l-0.022,0.102l-0.021,0.101l-0.02,0.102l-0.019,0.102l-0.019,0.102l-0.017,0.102l-0.017,0.102l-0.016,0.102l-0.015,0.103l-0.014,0.103l-0.014,0.102l-0.012,0.103l-0.012,0.103l-0.011,0.103l-0.01,0.103l-0.009,0.104l-0.009,0.103l-0.007,0.103l-0.007,0.104l-0.006,0.103l-0.005,0.104l-0.004,0.104l-0.003,0.104l-0.003,0.103l-0.002,0.104l0,0.104l0,0.104l0,0.104l0.002,0.104l0.002,0.104l0.004,0.104l0.004,0.104l0.005,0.104l0.006,0.105l0.006,0.104l0.008,0.104l0.008,0.104l0.009,0.104l0.01,0.104l0.011,0.104l0.011,0.104l0.013,0.104l0.013,0.105l0.014,0.103l0.015,0.104l0.016,0.104l0.016,0.104l0.018,0.104l0.018,0.104l0.019,0.104l0.02,0.103l0.02,0.104l0.022,0.103l0.022,0.104l0.023,0.103l0.024,0.103l0.025,0.103l0.025,0.104l0.027,0.103l0.027,0.102l0.028,0.103l0.029,0.103l0.029,0.102l0.031,0.103l0.031,0.102l0.032,0.102l0.033,0.102l0.033,0.102l0.035,0.102l0.035,0.101l0.036,0.102l0.037,0.101l0.038,0.101l0.039,0.101l0.039,0.101l0.04,0.101l0.041,0.1l0.042,0.1l0.042,0.1l0.044,0.1l0.044,0.1l0.045,0.099l0.046,0.1l0.046,0.099l0.048,0.099l0.048,0.098l0.049,0.099l0.05,0.098l0.051,0.098l0.051,0.097l0.052,0.098l0.053,0.097l0.054,0.097l0.055,0.097l0.055,0.096l0.056,0.096l0.057,0.096l0.058,0.096l0.059,0.095l0.059,0.095l0.06,0.095l0.061,0.095l0.062,0.094l0.063,0.094l0.063,0.093l-0.046,0.149l-0.048,0.148l-0.049,0.147l-0.049,0.147l-0.051,0.146l-0.052,0.145l-0.053,0.144l-0.055,0.143l-0.055,0.143l-0.056,0.142l-0.058,0.141l-0.059,0.141l-0.06,0.139l-0.061,0.139l-0.063,0.138l-0.063,0.137l-0.065,0.137l-0.066,0.135l-0.068,0.135l-0.068,0.134l-0.07,0.133l-0.071,0.133l-0.072,0.131l-0.074,0.131l-0.075,0.13l-0.076,0.128l-0.077,0.129l-0.079,0.127l-0.08,0.126l-0.081,0.126l-0.083,0.124l-0.084,0.124l-0.085,0.123l-0.086,0.122l-0.088,0.121l-0.09,0.12l-0.09,0.119l-0.092,0.118l-0.094,0.118l-0.095,0.116l-0.096,0.116l-0.097,0.114l-0.099,0.114l-0.101,0.113l-0.102,0.112l-0.103,0.11l-0.105,0.11l-0.106,0.109l-0.108,0.108l-0.109,0.107l-0.11,0.106l-0.113,0.105l-0.113,0.104l-0.115,0.103l-0.117,0.102l-0.118,0.101l-0.119,0.1l-0.122,0.098l-0.122,0.098l-0.125,0.097l-0.125,0.096l-0.128,0.095l-0.129,0.094l-0.13,0.092l0.169,-0.007l0.168,-0.01l0.167,-0.011l0.167,-0.013l0.166,-0.014l0.165,-0.016l0.164,-0.018l0.163,-0.02l0.163,-0.021l0.161,-0.023l0.161,-0.024l0.16,-0.027l0.159,-0.028l0.159,-0.03l0.157,-0.031l0.157,-0.034l0.156,-0.035l0.155,-0.037l0.154,-0.038l0.154,-0.04l0.152,-0.043l0.152,-0.043l0.151,-0.046l0.15,-0.047l0.149,-0.05l0.148,-0.051l0.148,-0.052l0.146,-0.055l0.146,-0.056l0.145,-0.059l0.144,-0.06l0.143,-0.061l0.142,-0.064l0.142,-0.065l0.14,-0.068l0.14,-0.069l0.138,-0.071l0.138,-0.072l0.137,-0.075l0.136,-0.077l0.136,-0.078l0.134,-0.08l0.133,-0.082l0.133,-0.084l0.132,-0.086l0.13,-0.088l0.13,-0.089l0.129,-0.092l0.128,-0.093l0.127,-0.095l0.127,-0.097l0.125,-0.1l0.124,-0.101l0.124,-0.102l0.122,-0.105l0.122,-0.107l0.121,-0.109l0.12,-0.11l0.119,-0.113l0.117,-0.114l0.117,-0.117l0.117,-0.118l0.115,-0.121l0.114,-0.122l0.1,0.075l0.1,0.074l0.101,0.073l0.101,0.072l0.102,0.072l0.103,0.071l0.103,0.07l0.103,0.069l0.105,0.069l0.104,0.068l0.105,0.067l0.106,0.066l0.106,0.066l0.107,0.065l0.107,0.064l0.108,0.063l0.108,0.063l0.109,0.061l0.109,0.061l0.109,0.06l0.11,0.059l0.111,0.059l0.111,0.058l0.111,0.056l0.112,0.057l0.113,0.055l0.112,0.054l0.113,0.054l0.114,0.053l0.114,0.052l0.114,0.051l0.115,0.05l0.091,0.039l0.091,0.039l0.091,0.037l0.091,0.038l0.182,0.073l0.183,0.07l0.182,0.069l0.184,0.066l0.183,0.064l0.183,0.061l0.184,0.059l0.184,0.058l0.184,0.054l0.185,0.053l0.184,0.05l0.185,0.049l0.185,0.045l0.184,0.044l0.185,0.042l0.185,0.039l0.185,0.037l0.185,0.035l0.184,0.033l0.185,0.031l0.185,0.028l0.185,0.026l0.184,0.025l0.185,0.022l0.184,0.02l0.184,0.017l0.184,0.016l0.184,0.013l0.184,0.012l0.183,0.009l0.183,0.007l0.183,0.005l0.183,0.004l0.182,0l0.182,-0.001l0.181,-0.003l0.182,-0.005l0.181,-0.007l0.18,-0.01l0.18,-0.011l0.18,-0.013l0.179,-0.016l0.178,-0.017l0.179,-0.02l0.177,-0.021l0.177,-0.024l0.177,-0.025l0.176,-0.028l0.175,-0.029l0.175,-0.032l0.174,-0.033l0.173,-0.035l0.173,-0.038l0.172,-0.039l0.172,-0.041l0.17,-0.043l0.17,-0.045l0.169,-0.047l0.169,-0.049l0.167,-0.051l0.167,-0.053l0.166,-0.054l0.165,-0.057l0.164,-0.058l0.163,-0.06l0.163,-0.062l0.161,-0.064l0.16,-0.066l0.16,-0.068l0.158,-0.07l0.158,-0.071l0.156,-0.073l0.155,-0.075l0.155,-0.077l0.153,-0.079l0.152,-0.08l0.151,-0.083l0.149,-0.084l0.149,-0.085l0.147,-0.088l0.147,-0.09l0.145,-0.091l0.143,-0.093l0.143,-0.094l0.141,-0.097l0.14,-0.098l0.138,-0.1l0.137,-0.102l0.136,-0.103l0.135,-0.105l0.133,-0.107l0.131,-0.109l0.131,-0.11l0.128,-0.112l0.127,-0.113l0.064,-0.058l0.062,-0.058l0.063,-0.058l0.061,-0.059l0.062,-0.059l0.061,-0.059l0.061,-0.06l0.06,-0.06l0.06,-0.061l0.06,-0.061l0.059,-0.062l0.059,-0.062l0.058,-0.062l0.058,-0.063l0.058,-0.063l0.057,-0.064l0.057,-0.064l0.056,-0.064l0.056,-0.065l0.055,-0.065l0.055,-0.066l0.055,-0.066l0.054,-0.067l0.054,-0.066l0.053,-0.068l0.053,-0.067l0.053,-0.068l0.052,-0.069l0.051,-0.069l0.052,-0.069l0.05,-0.07l0.051,-0.07l0.049,-0.07l0.05,-0.071l0.049,-0.071l0.048,-0.072l0.048,-0.072l0.048,-0.072l0.047,-0.073l0.046,-0.073l0.046,-0.074l0.046,-0.073l0.045,-0.075l0.045,-0.075l0.044,-0.075l0.044,-0.075l0.043,-0.076l0.043,-0.076l0.042,-0.077l0.042,-0.077l0.041,-0.077l0.041,-0.078l0.04,-0.078l0.04,-0.079l0.039,-0.078l0.039,-0.08l0.038,-0.079l0.038,-0.08l0.037,-0.081l0.037,-0.08l0.036,-0.082l0.036,-0.081l0.035,-0.082l0.034,-0.082l0.034,-0.082l0.034,-0.082l0.032,-0.082l0.032,-0.082l0.031,-0.083l0.031,-0.082l0.03,-0.083l0.03,-0.083l0.029,-0.083l0.028,-0.083l0.028,-0.083l0.027,-0.083l0.026,-0.083l0.026,-0.084l0.025,-0.083l0.025,-0.084l0.024,-0.084l0.023,-0.083l0.023,-0.084l0.022,-0.084l0.022,-0.084l0.021,-0.084l0.02,-0.084l0.02,-0.085l0.019,-0.084l0.019,-0.084l0.018,-0.085l0.017,-0.084l0.017,-0.085l0.016,-0.084l0.015,-0.085l0.015,-0.085l0.015,-0.085l0.014,-0.084l0.013,-0.085l0.013,-0.085l0.012,-0.085l0.011,-0.085l0.011,-0.085l0.01,-0.085l0.01,-0.085l0.009,-0.085l0.009,-0.086l0.008,-0.085l0.007,-0.085l0.007,-0.085l0.006,-0.085l0.006,-0.086l0.005,-0.085l0.004,-0.085l0.004,-0.086l0.004,-0.085l0.002,-0.085l0.003,-0.086l0.001,-0.085l0.001,-0.085l0.001,-0.085l0,-0.086l-0.001,-0.085l-0.001,-0.085l-0.004,-0.171l-0.006,-0.17l-0.009,-0.171l-0.01,-0.17l-0.013,-0.17l-0.016,-0.17l-0.017,-0.17l-0.019,-0.169l-0.022,-0.17l-0.024,-0.169l-0.026,-0.169l-0.028,-0.169l-0.031,-0.168l-0.032,-0.168l-0.035,-0.168l-0.036,-0.168l-0.039,-0.167l-0.041,-0.167l-0.043,-0.166l-0.045,-0.166l-0.048,-0.166l-0.049,-0.165l-0.051,-0.164l-0.054,-0.165l-0.055,-0.163l-0.058,-0.164l-0.059,-0.162l-0.062,-0.162l-0.063,-0.162l-0.066,-0.161l-0.067,-0.16l-0.07,-0.16l-0.072,-0.159l-0.073,-0.158l-0.075,-0.158l-0.078,-0.157l-0.079,-0.157l-0.082,-0.155l-0.083,-0.155l-0.085,-0.154l-0.087,-0.153l-0.089,-0.153l-0.091,-0.151l-0.093,-0.151l-0.094,-0.15l-0.097,-0.149l-0.098,-0.148l-0.1,-0.147l-0.102,-0.147l-0.104,-0.145l-0.106,-0.144l-0.107,-0.144l-0.11,-0.142l-0.111,-0.141l-0.113,-0.141l-0.114,-0.139l-0.117,-0.138l-0.118,-0.137l-0.12,-0.136l-0.122,-0.135l-0.124,-0.133l-0.125,-0.133l-0.127,-0.131l-0.129,-0.13l-0.13,-0.129l-0.132,-0.127l-0.134,-0.126l-0.135,-0.125l-0.137,-0.124l-0.139,-0.122l-0.141,-0.121l-0.142,-0.12l-0.144,-0.118l-0.145,-0.117l-0.147,-0.115l-0.149,-0.114l-0.15,-0.113l-0.152,-0.111l-0.153,-0.11l-0.156,-0.108l-0.156,-0.106l-0.158,-0.105l-0.16,-0.104l-0.161,-0.101l-0.163,-0.101l-0.165,-0.098l-0.165,-0.097l-0.168,-0.096l-0.169,-0.093l-0.17,-0.092l-0.172,-0.09l-0.174,-0.089l-0.174,-0.087l-0.177,-0.085l-0.178,-0.083l-0.089,-0.041l-0.09,-0.04l-0.09,-0.04l-0.09,-0.04l-0.091,-0.039l-0.091,-0.038l-0.091,-0.038l-0.091,-0.038l-0.182,-0.073l-0.183,-0.07l-0.183,-0.069l-0.183,-0.066l-0.183,-0.063l-0.184,-0.062l-0.183,-0.059l-0.184,-0.057l-0.185,-0.055l-0.184,-0.053l-0.184,-0.05l-0.185,-0.048l-0.185,-0.046l-0.184,-0.044l-0.185,-0.042l-0.185,-0.039l-0.185,-0.037l-0.185,-0.035l-0.185,-0.033l-0.184,-0.031l-0.185,-0.028l-0.185,-0.026l-0.184,-0.024l-0.185,-0.023l-0.184,-0.019l-0.184,-0.018l-0.184,-0.016l-0.184,-0.013l-0.184,-0.012l-0.183,-0.009l-0.183,-0.007l-0.183,-0.005l-0.183,-0.003l-0.182,-0.001l-0.182,0.001Z" style="fill:#eee;"/><path d="M72.598,47.612c0,0 -7.572,1.562 -13.559,-2.603" style="fill:none;stroke:#eee;stroke-width:2.25px;"/><path d="M73.348,35.342c0,0 5.721,1.956 13.626,-2.395" style="fill:none;stroke:#eee;stroke-width:2.25px;"/><path d="M74.75,57.309l-2.8,0.005l-0.075,-44.448l2.8,-0.005l0.075,44.448Z" style="fill:#eee;"/><rect x="71.906" y="42.121" width="2.8" height="27.565" style="fill:#eee;"/><path d="M86.832,69.687l-13.485,0l0,-2.8l13.485,0l0,2.8Z" style="fill:#eee;"/><path d="M98.812,68.301l-2.79,0l0,-18.6l2.43,0l0.24,2.1c0.64,-0.72 1.405,-1.3 2.295,-1.74c0.89,-0.44 1.855,-0.66 2.895,-0.66c1.16,0 2.21,0.28 3.15,0.84c0.94,0.56 1.68,1.345 2.22,2.355c0.54,1.01 0.81,2.175 0.81,3.495c0,1.3 -0.29,2.445 -0.87,3.435c-0.58,0.99 -1.38,1.755 -2.4,2.295c-1.02,0.54 -2.16,0.81 -3.42,0.81c-0.9,0 -1.76,-0.195 -2.58,-0.585c-0.82,-0.39 -1.48,-0.915 -1.98,-1.575l0,7.83Zm-20.22,-12.3c0,-1.22 0.295,-2.335 0.885,-3.345c0.59,-1.01 1.41,-1.805 2.46,-2.385c1.05,-0.58 2.235,-0.87 3.555,-0.87c1.32,0 2.495,0.29 3.525,0.87c1.03,0.58 1.83,1.37 2.4,2.37c0.57,1 0.855,2.12 0.855,3.36c0,1.24 -0.285,2.365 -0.855,3.375c-0.57,1.01 -1.375,1.805 -2.415,2.385c-1.04,0.58 -2.23,0.87 -3.57,0.87c-1.3,0 -2.47,-0.275 -3.51,-0.825c-1.04,-0.55 -1.855,-1.325 -2.445,-2.325c-0.59,-1 -0.885,-2.16 -0.885,-3.48Zm41.04,4.23c1.04,0 2.05,-0.36 3.03,-1.08l1.29,2.07c-0.66,0.44 -1.375,0.785 -2.145,1.035c-0.77,0.25 -1.515,0.375 -2.235,0.375c-1.38,0 -2.585,-0.285 -3.615,-0.855c-1.03,-0.57 -1.825,-1.355 -2.385,-2.355c-0.56,-1 -0.84,-2.13 -0.84,-3.39c0,-1.22 0.305,-2.335 0.915,-3.345c0.61,-1.01 1.445,-1.81 2.505,-2.4c1.06,-0.59 2.22,-0.885 3.48,-0.885c1.62,0 2.975,0.475 4.065,1.425c1.09,0.95 1.835,2.275 2.235,3.975l-9.84,3.45c0.36,0.62 0.845,1.105 1.455,1.455c0.61,0.35 1.305,0.525 2.085,0.525Zm-74.478,1.164c-0.448,0.368 -0.98,0.656 -1.596,0.864c-0.616,0.208 -1.244,0.312 -1.884,0.312c-1.072,0 -2.02,-0.216 -2.844,-0.648c-0.824,-0.432 -1.464,-1.044 -1.92,-1.836c-0.456,-0.792 -0.684,-1.708 -0.684,-2.748c0,-1.024 0.24,-1.932 0.72,-2.724c0.48,-0.792 1.12,-1.404 1.92,-1.836c0.8,-0.432 1.664,-0.648 2.592,-0.648c1.52,0 2.776,0.416 3.768,1.248l-1.128,1.464c-0.32,-0.24 -0.688,-0.444 -1.104,-0.612c-0.416,-0.168 -0.864,-0.252 -1.344,-0.252c-0.592,0 -1.132,0.148 -1.62,0.444c-0.488,0.296 -0.872,0.7 -1.152,1.212c-0.28,0.512 -0.42,1.08 -0.42,1.704c0,0.624 0.148,1.192 0.444,1.704c0.296,0.512 0.7,0.92 1.212,1.224c0.512,0.304 1.096,0.456 1.752,0.456c0.816,0 1.528,-0.24 2.136,-0.72l1.152,1.392Zm10.608,-4.128c0,-0.976 0.236,-1.868 0.708,-2.676c0.472,-0.808 1.128,-1.444 1.968,-1.908c0.84,-0.464 1.788,-0.696 2.844,-0.696c1.056,0 1.996,0.232 2.82,0.696c0.824,0.464 1.464,1.096 1.92,1.896c0.456,0.8 0.684,1.696 0.684,2.688c0,0.992 -0.228,1.892 -0.684,2.7c-0.456,0.808 -1.1,1.444 -1.932,1.908c-0.832,0.464 -1.784,0.696 -2.856,0.696c-1.04,0 -1.976,-0.22 -2.808,-0.66c-0.832,-0.44 -1.484,-1.06 -1.956,-1.86c-0.472,-0.8 -0.708,-1.728 -0.708,-2.784Zm-42.36,5.064l-2.232,0l0,-9.936l2.016,0l0.168,1.872c0.384,-0.72 0.908,-1.28 1.572,-1.68c0.664,-0.4 1.42,-0.6 2.268,-0.6c0.8,0 1.472,0.188 2.016,0.564c0.544,0.376 0.896,0.892 1.056,1.548c0.416,-0.656 0.944,-1.172 1.584,-1.548c0.64,-0.376 1.328,-0.564 2.064,-0.564c0.96,0 1.724,0.272 2.292,0.816c0.568,0.544 0.868,1.264 0.9,2.16l0,7.368l-2.232,0l0,-6.552c-0.048,-1.168 -0.576,-1.784 -1.584,-1.848c-0.576,0 -1.092,0.172 -1.548,0.516c-0.456,0.344 -0.812,0.796 -1.068,1.356c-0.256,0.56 -0.392,1.16 -0.408,1.8l0,4.728l-2.256,0l0,-6.552c-0.048,-1.168 -0.592,-1.784 -1.632,-1.848c-0.56,0 -1.068,0.172 -1.524,0.516c-0.456,0.344 -0.812,0.8 -1.068,1.368c-0.256,0.568 -0.384,1.172 -0.384,1.812l0,4.704Zm19.8,0l-2.232,0l0,-9.936l2.232,0l0,9.936Zm17.064,0l-2.232,0l0,-9.936l1.992,0l0.168,2.352c0.256,-0.544 0.62,-1.024 1.092,-1.44c0.472,-0.416 0.972,-0.736 1.5,-0.96c0.528,-0.224 0.992,-0.344 1.392,-0.36l-0.096,2.232c-0.72,-0.032 -1.372,0.112 -1.956,0.432c-0.584,0.32 -1.04,0.764 -1.368,1.332c-0.328,0.568 -0.492,1.172 -0.492,1.812l0,4.536Zm7.752,-5.04c0,0.624 0.14,1.2 0.42,1.728c0.28,0.528 0.664,0.944 1.152,1.248c0.488,0.304 1.028,0.456 1.62,0.456c0.928,0 1.696,-0.328 2.304,-0.984c0.608,-0.656 0.912,-1.472 0.912,-2.448c0,-0.976 -0.304,-1.796 -0.912,-2.46c-0.608,-0.664 -1.376,-0.996 -2.304,-0.996c-0.608,0 -1.152,0.156 -1.632,0.468c-0.48,0.312 -0.86,0.732 -1.14,1.26c-0.28,0.528 -0.42,1.104 -0.42,1.728Zm44.814,3.09c0.78,0 1.505,-0.185 2.175,-0.555c0.67,-0.37 1.205,-0.88 1.605,-1.53c0.4,-0.65 0.6,-1.375 0.6,-2.175c0,-0.82 -0.185,-1.56 -0.555,-2.22c-0.37,-0.66 -0.875,-1.18 -1.515,-1.56c-0.64,-0.38 -1.35,-0.57 -2.13,-0.57c-1.06,0 -1.965,0.295 -2.715,0.885c-0.75,0.59 -1.245,1.385 -1.485,2.385l0,2.07c0.16,0.96 0.615,1.745 1.365,2.355c0.75,0.61 1.635,0.915 2.655,0.915Zm-21.42,-4.35c0,0.78 0.175,1.5 0.525,2.16c0.35,0.66 0.83,1.18 1.44,1.56c0.61,0.38 1.285,0.57 2.025,0.57c1.16,0 2.12,-0.41 2.88,-1.23c0.76,-0.82 1.14,-1.84 1.14,-3.06c0,-1.22 -0.38,-2.245 -1.14,-3.075c-0.76,-0.83 -1.72,-1.245 -2.88,-1.245c-0.76,0 -1.44,0.195 -2.04,0.585c-0.6,0.39 -1.075,0.915 -1.425,1.575c-0.35,0.66 -0.525,1.38 -0.525,2.16Zm38.01,-4.41c-1.14,0 -2.08,0.4 -2.82,1.2c-0.74,0.8 -1.11,1.82 -1.11,3.06c0,0.3 0.01,0.53 0.03,0.69l7.23,-2.67c-0.3,-0.68 -0.725,-1.23 -1.275,-1.65c-0.55,-0.42 -1.235,-0.63 -2.055,-0.63Zm-88.62,-2.802c0,-0.352 0.136,-0.648 0.408,-0.888c0.272,-0.24 0.584,-0.36 0.936,-0.36c0.352,0 0.66,0.12 0.924,0.36c0.264,0.24 0.396,0.536 0.396,0.888c0,0.352 -0.132,0.648 -0.396,0.888c-0.264,0.24 -0.572,0.36 -0.924,0.36c-0.352,0 -0.664,-0.12 -0.936,-0.36c-0.272,-0.24 -0.408,-0.536 -0.408,-0.888Zm89.61,-1.278l-1.8,0l2.49,-4.02l3.12,0l-3.81,4.02Z" style="fill:#eee;fill-rule:nonzero;"/></svg>