<?xml version="1.0" encoding="UTF-8" standalone="no"?><!DOCTYPE svg PUBLIC "-//W3C//DTD SVG 1.1//EN" "http://www.w3.org/Graphics/SVG/1.1/DTD/svg11.dtd"><svg width="100%" height="100%" viewBox="0 0 118 72" version="1.1" xmlns="http://www.w3.org/2000/svg" xmlns:xlink="http://www.w3.org/1999/xlink" xml:space="preserve" xmlns:serif="http://www.serif.com/" style="fill-rule:evenodd;clip-rule:evenodd;stroke-linecap:round;stroke-linejoin:round;stroke-miterlimit:1.5;"><rect id="Plan-de-travail1" serif:id="Plan de travail1" x="0" y="0" width="117.822" height="71.305" style="fill:none;"/><clipPath id="_clip1"><rect x="0" y="0" width="117.822" height="71.305"/></clipPath><g clip-path="url(#_clip1)"><g><rect x="-19.472" y="-22.05" width="164.321" height="128.071" style="fill:none;"/><path d="M99.284,22.951l0.182,0.085l-0.074,0.247l-0.034,0.112l-0.034,0.112l-0.035,0.112l-0.037,0.112l-0.036,0.111l-0.038,0.11l-0.038,0.11l-0.04,0.109l-0.039,0.109l-0.041,0.108l-0.041,0.108l-0.042,0.107l-0.043,0.107l-0.044,0.106l-0.044,0.105l-0.045,0.106l-0.046,0.104l-0.046,0.104l-0.048,0.103l-0.048,0.103l-0.048,0.103l-0.05,0.102l-0.05,0.101l-0.051,0.101l-0.008,0.015l-0.045,0.084l-0.055,0.098l-0.055,0.097l-0.055,0.097l-0.057,0.097l-0.057,0.096l-0.058,0.095l-0.058,0.095l-0.059,0.094l-0.06,0.093l-0.061,0.093l-0.061,0.093l-0.062,0.091l-0.062,0.092l-0.063,0.09l-0.064,0.09l-0.065,0.089l-0.065,0.089l-0.066,0.088l-0.066,0.088l-0.067,0.087l-0.068,0.086l-0.065,0.082l-0.004,0.004l-0.07,0.083l-0.072,0.082l-0.072,0.082l-0.073,0.081l-0.073,0.081l-0.074,0.08l-0.075,0.079l-0.075,0.079l-0.075,0.078l-0.077,0.077l-0.077,0.077l-0.036,0.036l-0.042,0.039l-0.08,0.073l-0.08,0.072l-0.081,0.071l-0.082,0.071l-0.082,0.07l-0.082,0.07l-0.083,0.069l-0.084,0.068l-0.084,0.067l-0.076,0.06l-0.009,0.006l-0.086,0.064l-0.088,0.062l-0.087,0.062l-0.088,0.061l-0.089,0.061l-0.089,0.06l-0.089,0.059l-0.09,0.058l-0.09,0.057l-0.091,0.057l-0.091,0.056l-0.092,0.056l-0.092,0.054l-0.092,0.054l-0.093,0.053l-0.093,0.053l-0.093,0.051l-0.039,0.021l-0.055,0.03l-0.095,0.049l-0.095,0.048l-0.096,0.048l-0.095,0.047l-0.097,0.046l-0.096,0.045l-0.097,0.045l-0.097,0.044l-0.098,0.043l-0.097,0.043l-0.099,0.042l-0.098,0.041l-0.099,0.04l-0.099,0.039l-0.099,0.039l-0.1,0.038l-0.1,0.038l-0.1,0.036l-0.101,0.036l-0.101,0.035l-0.059,0.02l-0.042,0.014l-0.102,0.033l-0.102,0.032l-0.102,0.031l-0.103,0.03l-0.102,0.03l-0.103,0.029l-0.104,0.028l-0.103,0.028l-0.104,0.027l-0.104,0.026l-0.104,0.025l-0.104,0.025l-0.105,0.024l-0.105,0.023l-0.105,0.022l-0.105,0.022l-0.106,0.021l-0.105,0.02l-0.106,0.019l-0.106,0.019l-0.106,0.018l-0.107,0.017l-0.106,0.017l-0.107,0.015l-0.107,0.015l-0.107,0.015l-0.108,0.013l-0.107,0.013l-0.108,0.012l-0.108,0.012l-0.107,0.01l-0.109,0.01l-0.108,0.01l-0.108,0.008l-0.109,0.008l-0.108,0.007l-0.109,0.006l-0.109,0.006l-0.109,0.005l-0.109,0.004l-0.11,0.004l-0.109,0.002l-0.11,0.003l-0.109,0.001l-0.11,0l-0.11,0l-0.1,0l-0.01,-0.001l-0.11,-0.002l-0.11,-0.003l-0.11,-0.004l-0.11,-0.004l-0.111,-0.005l-0.11,-0.006l-0.111,-0.007l-0.11,-0.007l-0.111,-0.008l-0.11,-0.009l-0.111,-0.01l-0.111,-0.01l-0.11,-0.011l-0.111,-0.011l-0.111,-0.012l-0.111,-0.013l-0.111,-0.014l-0.111,-0.014l-0.111,-0.015l-0.111,-0.016l-0.111,-0.017l-0.111,-0.017l-0.111,-0.018l-0.111,-0.018l-0.111,-0.02l-0.111,-0.02l-0.111,-0.02l-0.111,-0.022l-0.111,-0.022l-0.111,-0.022l-0.111,-0.024l-0.111,-0.024l-0.111,-0.025l-0.111,-0.025l-0.111,-0.027l-0.111,-0.026l-0.111,-0.028l-0.111,-0.028l-0.111,-0.029l-0.111,-0.03l-0.11,-0.03l-0.111,-0.031l-0.111,-0.032l-0.11,-0.032l-0.047,-0.014l-0.064,-0.02l-0.11,-0.034l-0.11,-0.035l-0.11,-0.036l-0.11,-0.037l-0.11,-0.037l-0.11,-0.038l-0.11,-0.039l-0.109,-0.039l-0.11,-0.04l-0.109,-0.041l-0.11,-0.041l-0.109,-0.042l-0.109,-0.043l-0.109,-0.043l-0.109,-0.044l-0.109,-0.045l-0.109,-0.045l-0.108,-0.046l-0.109,-0.047l-0.108,-0.047l-0.108,-0.048l-0.108,-0.049l-0.108,-0.049l-0.108,-0.05l-0.108,-0.051l-0.107,-0.051l-0.107,-0.052l-0.108,-0.053l-0.107,-0.053l-0.106,-0.054l-0.107,-0.055l-0.107,-0.055l-0.042,-0.023l-0.063,-0.036l-0.104,-0.06l-0.104,-0.061l-0.104,-0.061l-0.104,-0.062l-0.103,-0.063l-0.103,-0.064l-0.103,-0.064l-0.103,-0.064l-0.102,-0.066l-0.103,-0.066l-0.102,-0.066l-0.059,-0.04l-0.042,-0.029l-0.1,-0.07l-0.099,-0.071l-0.082,-0.059l-0.041,0.035l-0.101,0.087l-0.103,0.086l-0.104,0.085l-0.106,0.084l-0.107,0.084l-0.109,0.082l-0.11,0.082l-0.112,0.081l-0.113,0.08l-0.114,0.079l-0.115,0.078l-0.116,0.078l-0.118,0.076l-0.118,0.076l-0.064,0.04l-0.058,0.031l-0.125,0.066l-0.126,0.065l-0.127,0.064l-0.127,0.062l-0.127,0.062l-0.129,0.06l-0.128,0.059l-0.129,0.058l-0.129,0.056l-0.13,0.055l-0.129,0.053l-0.13,0.052l-0.129,0.051l-0.13,0.049l-0.129,0.048l-0.129,0.047l-0.129,0.044l-0.129,0.043l-0.091,0.03l-0.038,0.011l-0.128,0.039l-0.128,0.037l-0.127,0.035l-0.127,0.033l-0.126,0.032l-0.125,0.03l-0.125,0.027l-0.123,0.027l-0.122,0.024l-0.121,0.022l-0.12,0.02l-0.119,0.018l-0.118,0.017l-0.116,0.014l-0.114,0.012l-0.114,0.009l-0.111,0.008l-0.11,0.006l-0.108,0.003l-0.047,0l-0.057,0l-0.24,0.001l-0.032,-0.198l-0.031,-0.196l0.228,-0.077l0.052,-0.017l0.042,-0.014l0.091,-0.033l0.093,-0.035l0.094,-0.038l0.094,-0.04l0.095,-0.043l0.096,-0.045l0.096,-0.047l0.097,-0.049l0.098,-0.051l0.098,-0.053l0.099,-0.056l0.099,-0.057l0.099,-0.059l0.099,-0.061l0.1,-0.063l0.1,-0.064l0.1,-0.066l0.1,-0.068l0.099,-0.069l0.03,-0.021l0.071,-0.049l0.1,-0.071l0.1,-0.073l0.1,-0.073l0.099,-0.076l0.1,-0.076l0.098,-0.077l0.098,-0.079l0.098,-0.08l0.097,-0.08l0.096,-0.082l0.096,-0.082l0.094,-0.084l0.094,-0.084l0.093,-0.085l0.092,-0.085l0.09,-0.087l0.09,-0.086l0.088,-0.087l0.04,-0.041l0.05,-0.043l0.091,-0.081l0.089,-0.081l0.088,-0.082l0.087,-0.082l0.085,-0.082l0.084,-0.082l0.082,-0.082l0.08,-0.083l0.078,-0.082l0.076,-0.082l0.075,-0.082l0.072,-0.081l0.07,-0.081l0.068,-0.081l0.066,-0.08l0.064,-0.079l0.06,-0.079l0.059,-0.077l0.056,-0.077l0.053,-0.076l0.012,-0.018l0.04,-0.055l0.049,-0.072l0.046,-0.071l0.051,-0.077l0.136,-0.154l0.161,-0.129l0.18,-0.099l0.195,-0.067l0.203,-0.034l0.206,0.002l0.202,0.037l0.193,0.071l0.179,0.103l0.096,0.06l0.095,0.057l0.095,0.056l0.095,0.055l0.095,0.055l0.095,0.054l0.095,0.053l0.095,0.053l0.096,0.052l0.095,0.052l0.096,0.051l0.04,0.021l0.055,0.031l0.094,0.052l0.094,0.051l0.095,0.051l0.094,0.051l0.095,0.05l0.095,0.049l0.094,0.048l0.095,0.048l0.095,0.047l0.095,0.047l0.096,0.046l0.057,0.027l0.037,0.02l0.094,0.048l0.093,0.048l0.094,0.047l0.094,0.047l0.093,0.046l0.094,0.045l0.095,0.045l0.094,0.044l0.094,0.044l0.094,0.043l0.095,0.042l0.094,0.042l0.095,0.041l0.094,0.041l0.095,0.04l0.095,0.039l0.095,0.039l0.095,0.038l0.095,0.038l0.095,0.037l0.095,0.036l0.095,0.036l0.095,0.035l0.095,0.035l0.095,0.034l0.096,0.033l0.095,0.033l0.095,0.032l0.096,0.032l0.095,0.031l0.095,0.03l0.096,0.03l0.055,0.017l0.04,0.012l0.095,0.03l0.096,0.028l0.095,0.029l0.095,0.027l0.095,0.027l0.096,0.026l0.095,0.026l0.095,0.025l0.095,0.025l0.095,0.024l0.096,0.023l0.095,0.022l0.095,0.023l0.095,0.021l0.095,0.021l0.095,0.02l0.096,0.02l0.095,0.019l0.095,0.018l0.095,0.018l0.094,0.017l0.095,0.017l0.095,0.016l0.095,0.015l0.095,0.015l0.094,0.014l0.095,0.014l0.094,0.013l0.095,0.012l0.094,0.012l0.095,0.011l0.094,0.011l0.094,0.01l0.094,0.009l0.094,0.009l0.094,0.008l0.094,0.008l0.093,0.007l0.094,0.006l0.093,0.006l0.094,0.005l0.093,0.004l0.093,0.004l0.093,0.004l0.009,0l0.084,0.003l0.093,0.003l0.093,0.002l0.092,0.002l0.093,0.001l0.092,0l0.093,0l0.092,0l0.092,-0.002l0.092,-0.002l0.091,-0.002l0.092,-0.003l0.091,-0.004l0.092,-0.005l0.091,-0.005l0.091,-0.005l0.091,-0.006l0.09,-0.007l0.091,-0.008l0.09,-0.008l0.091,-0.008l0.09,-0.01l0.09,-0.009l0.089,-0.011l0.09,-0.011l0.089,-0.012l0.09,-0.012l0.089,-0.013l0.088,-0.013l0.089,-0.015l0.089,-0.014l0.088,-0.016l0.088,-0.016l0.088,-0.016l0.088,-0.017l0.087,-0.018l0.087,-0.019l0.088,-0.019l0.086,-0.019l0.087,-0.021l0.087,-0.02l0.086,-0.022l0.086,-0.022l0.086,-0.023l0.085,-0.023l0.086,-0.024l0.085,-0.024l0.035,-0.011l0.05,-0.014l0.085,-0.025l0.085,-0.025l0.084,-0.027l0.085,-0.026l0.084,-0.028l0.084,-0.028l0.083,-0.028l0.084,-0.029l0.083,-0.03l0.083,-0.031l0.082,-0.031l0.083,-0.031l0.082,-0.033l0.082,-0.033l0.082,-0.033l0.081,-0.034l0.081,-0.035l0.081,-0.036l0.081,-0.036l0.08,-0.037l0.047,-0.022l0.034,-0.015l0.08,-0.037l0.08,-0.037l0.08,-0.038l0.08,-0.039l0.079,-0.04l0.079,-0.04l0.079,-0.041l0.079,-0.041l0.078,-0.043l0.078,-0.042l0.078,-0.044l0.078,-0.044l0.077,-0.045l0.077,-0.045l0.077,-0.046l0.076,-0.047l0.076,-0.047l0.007,-0.005l0.071,-0.041l0.077,-0.046l0.077,-0.047l0.077,-0.047l0.077,-0.048l0.076,-0.049l0.076,-0.05l0.076,-0.05l0.076,-0.051l0.075,-0.052l0.039,-0.027l0.037,-0.024l0.077,-0.051l0.076,-0.051l0.077,-0.053l0.076,-0.053l0.075,-0.053l0.076,-0.055l0.075,-0.055l0.075,-0.056l0.075,-0.057l0.075,-0.057l0.074,-0.058l0.004,-0.003l0.072,-0.054l0.076,-0.058l0.075,-0.059l0.075,-0.06l0.075,-0.06l0.075,-0.061l0.074,-0.062l0.074,-0.062l0.074,-0.064l0.074,-0.064l0.073,-0.065l0.073,-0.066l0.073,-0.067l0.073,-0.068l0.072,-0.068l0.072,-0.069l0.071,-0.071l0.072,-0.07l0.071,-0.072l0.071,-0.073l0.07,-0.073l0.07,-0.074l0.059,-0.064l0.011,-0.011l0.072,-0.075l0.071,-0.075l0.071,-0.077l0.07,-0.077l0.071,-0.078l0.07,-0.079l0.069,-0.08l0.07,-0.08l0.069,-0.082l0.068,-0.082l0.068,-0.084l0.068,-0.084l0.068,-0.085l0.067,-0.087l0.067,-0.087l0.067,-0.087l0.066,-0.089l0.065,-0.09l0.066,-0.091l0.065,-0.091l0.064,-0.093l0.064,-0.093l0.064,-0.094l0.064,-0.096l0.143,-0.215l0.18,0.084Z" style="fill:#fff;fill-opacity:0.46003;"/><path d="M84.786,0.247l0.212,0.004l0.212,0.007l0.213,0.01l0.213,0.011l0.213,0.015l0.213,0.016l0.214,0.019l0.214,0.022l0.214,0.024l0.214,0.027l0.214,0.029l0.215,0.031l0.214,0.034l0.215,0.037l0.214,0.039l0.215,0.042l0.183,0.037l0.031,0.007l0.214,0.048l0.214,0.051l0.214,0.053l0.214,0.055l0.214,0.059l0.213,0.061l0.214,0.063l0.213,0.066l0.212,0.068l0.213,0.072l0.212,0.073l0.212,0.077l0.212,0.079l0.207,0.08l0.109,0.043l0.106,0.043l0.105,0.043l0.105,0.044l0.105,0.044l0.105,0.045l0.104,0.045l0.107,0.048l0.203,0.092l0.205,0.096l0.203,0.098l0.201,0.099l0.2,0.102l0.199,0.104l0.197,0.107l0.195,0.108l0.193,0.11l0.192,0.112l0.19,0.114l0.189,0.116l0.187,0.117l0.091,0.06l0.093,0.061l0.183,0.123l0.181,0.124l0.178,0.127l0.178,0.128l0.175,0.13l0.174,0.132l0.171,0.133l0.17,0.135l0.168,0.137l0.167,0.139l0.164,0.14l0.163,0.141l0.108,0.097l0.052,0.047l0.157,0.147l0.155,0.148l0.153,0.15l0.152,0.151l0.149,0.153l0.147,0.154l0.145,0.156l0.144,0.157l0.141,0.158l0.02,0.023l0.114,0.141l0.131,0.167l0.129,0.167l0.126,0.169l0.125,0.17l0.122,0.17l0.12,0.172l0.118,0.173l0.116,0.174l0.114,0.176l0.111,0.176l0.109,0.177l0.107,0.178l0.105,0.179l0.102,0.18l0.1,0.18l0.098,0.182l0.096,0.183l0.074,0.146l0.019,0.037l0.088,0.186l0.087,0.186l0.083,0.187l0.082,0.188l0.079,0.188l0.077,0.189l0.075,0.19l0.072,0.19l0.07,0.191l0.067,0.191l0.065,0.192l0.063,0.192l0.06,0.193l0.058,0.193l0.056,0.194l0.053,0.194l0.05,0.195l0.049,0.195l0.045,0.195l0.044,0.196l0.04,0.196l0.039,0.196l0.036,0.197l0.033,0.197l0.031,0.197l0.029,0.197l0.026,0.198l0.022,0.185l0.001,0.012l0.02,0.198l0.017,0.198l0.015,0.198l0.012,0.198l0.01,0.198l0.007,0.198l0.005,0.198l0.002,0.198l-0.001,0.198l-0.003,0.198l-0.006,0.197l-0.008,0.194l-0.005,0.102l-0.006,0.099l-0.007,0.098l-0.007,0.099l-0.008,0.098l-0.008,0.099l-0.009,0.098l-0.01,0.098l-0.01,0.098l-0.011,0.098l-0.012,0.098l-0.012,0.098l-0.013,0.098l-0.014,0.098l-0.014,0.097l-0.015,0.098l-0.016,0.097l-0.016,0.097l-0.017,0.098l-0.018,0.097l-0.018,0.097l-0.019,0.097l-0.02,0.096l-0.02,0.097l-0.021,0.097l-0.022,0.096l-0.022,0.096l-0.023,0.096l-0.024,0.096l-0.024,0.096l-0.025,0.096l-0.026,0.095l-0.026,0.096l-0.027,0.095l-0.028,0.095l-0.028,0.095l-0.029,0.094l-0.03,0.095l-0.03,0.094l-0.031,0.095l-0.032,0.094l-0.032,0.093l-0.033,0.094l-0.034,0.093l-0.035,0.094l-0.035,0.093l-0.035,0.093l-0.037,0.092l-0.037,0.093l-0.038,0.092l-0.038,0.092l-0.039,0.092l-0.04,0.091l-0.04,0.092l-0.041,0.091l-0.042,0.091l-0.043,0.091l-0.043,0.09l-0.043,0.09l-0.044,0.089l-0.001,0.001l-0.045,0.09l-0.045,0.085l-0.04,0.097l-0.04,0.091l-0.04,0.092l-0.041,0.091l-0.042,0.091l-0.042,0.09l-0.043,0.09l-0.043,0.09l-0.044,0.089l-0.044,0.089l-0.045,0.088l-0.046,0.088l-0.046,0.088l-0.046,0.087l-0.048,0.087l-0.047,0.086l-0.049,0.086l-0.049,0.085l-0.049,0.085l-0.05,0.085l-0.051,0.084l-0.051,0.084l-0.052,0.083l-0.052,0.083l-0.053,0.083l-0.053,0.082l-0.054,0.082l-0.054,0.081l-0.055,0.081l-0.055,0.08l-0.056,0.08l-0.057,0.079l-0.057,0.079l-0.057,0.079l-0.058,0.078l-0.059,0.078l-0.058,0.077l-0.06,0.077l-0.06,0.076l-0.06,0.076l-0.061,0.076l-0.062,0.075l-0.061,0.075l-0.063,0.074l-0.063,0.073l-0.063,0.074l-0.064,0.072l-0.064,0.073l-0.065,0.071l-0.065,0.072l-0.065,0.071l-0.067,0.07l-0.066,0.07l-0.067,0.07l-0.067,0.069l-0.068,0.068l-0.069,0.068l-0.068,0.068l-0.07,0.067l-0.069,0.067l-0.07,0.066l-0.073,0.068l-0.14,0.128l-0.144,0.128l-0.145,0.126l-0.147,0.125l-0.149,0.122l-0.15,0.12l-0.152,0.119l-0.153,0.116l-0.155,0.115l-0.156,0.112l-0.158,0.111l-0.159,0.109l-0.16,0.106l-0.162,0.105l-0.163,0.103l-0.165,0.1l-0.166,0.099l-0.167,0.096l-0.169,0.095l-0.169,0.092l-0.171,0.091l-0.12,0.061l-0.052,0.027l-0.174,0.086l-0.175,0.084l-0.175,0.082l-0.177,0.079l-0.178,0.078l-0.179,0.075l-0.18,0.074l-0.182,0.071l-0.182,0.069l-0.183,0.067l-0.184,0.065l-0.185,0.063l-0.186,0.061l-0.186,0.058l-0.188,0.057l-0.189,0.054l-0.189,0.052l-0.19,0.05l-0.191,0.048l-0.192,0.046l-0.192,0.043l-0.193,0.041l-0.194,0.039l-0.195,0.037l-0.195,0.035l-0.196,0.032l-0.196,0.031l-0.197,0.028l-0.198,0.025l-0.198,0.024l-0.199,0.021l-0.199,0.019l-0.2,0.017l-0.201,0.015l-0.2,0.012l-0.202,0.01l-0.201,0.008l-0.202,0.005l-0.203,0.003l-0.084,0.001l-0.118,0l-0.204,-0.003l-0.203,-0.004l-0.204,-0.007l-0.203,-0.01l-0.205,-0.011l-0.204,-0.014l-0.205,-0.017l-0.204,-0.018l-0.205,-0.021l-0.205,-0.024l-0.205,-0.026l-0.206,-0.028l-0.205,-0.03l-0.205,-0.033l-0.193,-0.033l-0.013,-0.003l-0.205,-0.039l-0.205,-0.042l-0.205,-0.044l-0.204,-0.047l-0.205,-0.049l-0.205,-0.052l-0.204,-0.054l-0.204,-0.056l-0.204,-0.059l-0.204,-0.062l-0.054,-0.017l-0.148,-0.051l-0.201,-0.074l-0.2,-0.075l-0.2,-0.078l-0.2,-0.08l-0.199,-0.083l-0.198,-0.086l-0.196,-0.087l-0.101,-0.045l-0.099,-0.046l-0.098,-0.046l-0.099,-0.047l-0.124,-0.059l-0.124,-0.061l-0.123,-0.062l-0.123,-0.063l-0.123,-0.064l-0.121,-0.064l-0.122,-0.066l-0.121,-0.066l-0.12,-0.067l-0.119,-0.068l-0.12,-0.069l-0.118,-0.069l-0.009,-0.005l-0.108,-0.067l-0.117,-0.073l-0.116,-0.073l-0.115,-0.075l-0.115,-0.075l-0.114,-0.076l-0.114,-0.077l-0.113,-0.077l-0.112,-0.079l-0.111,-0.079l-0.09,-0.065l-0.028,0.022l-0.141,0.113l-0.143,0.11l-0.143,0.108l-0.144,0.106l-0.145,0.104l-0.146,0.102l-0.084,0.056l-0.063,0.043l-0.148,0.098l-0.149,0.095l-0.149,0.093l-0.15,0.091l-0.152,0.089l-0.152,0.087l-0.153,0.084l-0.153,0.082l-0.155,0.08l-0.155,0.078l-0.156,0.076l-0.157,0.074l-0.158,0.071l-0.158,0.07l-0.159,0.067l-0.16,0.065l-0.161,0.063l-0.161,0.061l-0.162,0.058l-0.163,0.057l-0.163,0.055l-0.164,0.052l-0.165,0.05l-0.166,0.049l-0.166,0.046l-0.166,0.044l-0.168,0.042l-0.167,0.04l-0.169,0.038l-0.169,0.036l-0.123,0.024l-0.047,0.01l-0.17,0.034l-0.17,0.031l-0.171,0.03l-0.172,0.028l-0.172,0.025l-0.173,0.024l-0.174,0.022l-0.174,0.02l-0.175,0.018l-0.175,0.016l-0.176,0.014l-0.176,0.012l-0.025,0.002l-0.152,0.011l-0.177,0.012l-0.178,0.01l-0.179,0.009l-0.179,0.006l-0.174,0.005l-0.181,-0.007l-0.176,-0.038l-0.167,-0.068l-0.153,-0.095l-0.135,-0.119l-0.112,-0.141l-0.087,-0.158l-0.059,-0.17l-0.028,-0.178l0.002,-0.18l0.033,-0.177l0.062,-0.169l0.09,-0.156l0.116,-0.138l0.137,-0.116l0.128,-0.087l0.121,-0.084l0.12,-0.086l0.021,-0.015l0.095,-0.074l0.114,-0.091l0.112,-0.092l0.111,-0.093l0.109,-0.094l0.108,-0.094l0.107,-0.096l0.105,-0.096l0.103,-0.097l0.102,-0.099l0.101,-0.098l0.099,-0.1l0.098,-0.101l0.054,-0.057l0.042,-0.045l0.094,-0.104l0.092,-0.104l0.091,-0.105l0.09,-0.106l0.088,-0.107l0.087,-0.108l0.086,-0.109l0.084,-0.109l0.083,-0.11l0.082,-0.111l0.08,-0.112l0.08,-0.112l0.078,-0.114l0.076,-0.114l0.076,-0.115l0.074,-0.116l0.073,-0.116l0.072,-0.118l0.026,-0.043l0.044,-0.075l0.068,-0.12l0.067,-0.12l0.066,-0.121l0.065,-0.122l0.064,-0.123l0.062,-0.124l0.061,-0.124l0.06,-0.125l0.059,-0.126l0.058,-0.127l0.057,-0.127l0.056,-0.128l0.054,-0.129l0.054,-0.13l0.052,-0.131l0.051,-0.131l0.05,-0.132l0.049,-0.133l0.048,-0.133l0.047,-0.135l0.046,-0.135l0.045,-0.136l0.044,-0.136l0.028,-0.09l-0.009,-0.014l-0.068,-0.101l-0.066,-0.102l-0.066,-0.102l-0.065,-0.102l-0.064,-0.103l-0.064,-0.103l-0.062,-0.103l-0.062,-0.104l-0.061,-0.104l-0.06,-0.105l-0.059,-0.104l-0.058,-0.105l-0.057,-0.106l-0.057,-0.106l-0.056,-0.106l-0.055,-0.106l-0.054,-0.107l-0.032,-0.065l-0.021,-0.042l-0.053,-0.107l-0.052,-0.107l-0.051,-0.108l-0.051,-0.107l-0.049,-0.109l-0.049,-0.108l-0.048,-0.109l-0.047,-0.109l-0.046,-0.109l-0.045,-0.11l-0.045,-0.11l-0.043,-0.11l-0.043,-0.11l-0.041,-0.11l-0.041,-0.111l-0.04,-0.111l-0.04,-0.112l-0.038,-0.111l-0.037,-0.112l-0.037,-0.112l-0.035,-0.112l-0.035,-0.112l-0.034,-0.113l-0.033,-0.113l-0.032,-0.113l-0.032,-0.113l-0.03,-0.113l-0.029,-0.114l-0.029,-0.113l-0.028,-0.114l-0.026,-0.114l-0.026,-0.114l-0.025,-0.115l-0.024,-0.114l-0.024,-0.115l-0.022,-0.114l-0.021,-0.115l-0.021,-0.115l-0.019,-0.116l-0.019,-0.115l-0.018,-0.115l-0.017,-0.116l-0.016,-0.116l-0.015,-0.115l-0.014,-0.116l-0.013,-0.116l-0.012,-0.116l-0.011,-0.116l-0.011,-0.116l-0.009,-0.117l-0.009,-0.116l-0.007,-0.116l-0.007,-0.117l-0.006,-0.116l-0.005,-0.117l-0.004,-0.116l-0.003,-0.117l-0.002,-0.117l-0.001,-0.116l0,-0.117l0.001,-0.117l0.002,-0.116l0.002,-0.117l0.004,-0.117l0.004,-0.117l0.006,-0.116l0.006,-0.117l0.008,-0.117l0.008,-0.117l0.01,-0.116l0.01,-0.117l0.011,-0.116l0.012,-0.117l0.014,-0.116l0.014,-0.117l0.015,-0.116l0.016,-0.116l0.017,-0.116l0.018,-0.117l0.019,-0.116l0.02,-0.116l0.021,-0.115l0.022,-0.116l0.023,-0.116l0.024,-0.115l0.024,-0.116l0.026,-0.115l0.027,-0.115l0.028,-0.115l0.029,-0.115l0.029,-0.115l0.031,-0.114l0.032,-0.115l0.033,-0.114l0.033,-0.114l0.035,-0.114l0.036,-0.113l0.037,-0.114l0.037,-0.113l0.039,-0.113l0.04,-0.113l0.04,-0.113l0.042,-0.112l0.043,-0.113l0.043,-0.111l0.038,-0.095l0.012,-0.03l0.025,-0.064l0.036,-0.095l0.038,-0.094l0.038,-0.094l0.038,-0.094l0.039,-0.093l0.04,-0.093l0.041,-0.092l0.041,-0.092l0.041,-0.092l0.043,-0.091l0.042,-0.092l0.044,-0.09l0.044,-0.091l0.045,-0.09l0.045,-0.089l0.046,-0.089l0.047,-0.089l0.047,-0.089l0.048,-0.088l0.048,-0.088l0.049,-0.087l0.049,-0.087l0.05,-0.086l0.051,-0.087l0.051,-0.085l0.052,-0.086l0.053,-0.085l0.052,-0.084l0.054,-0.085l0.054,-0.083l0.055,-0.084l0.055,-0.083l0.056,-0.082l0.056,-0.083l0.057,-0.081l0.057,-0.082l0.058,-0.081l0.059,-0.08l0.059,-0.08l0.059,-0.08l0.06,-0.079l0.061,-0.079l0.061,-0.079l0.062,-0.078l0.062,-0.077l0.063,-0.077l0.063,-0.077l0.064,-0.076l0.064,-0.076l0.065,-0.075l0.065,-0.075l0.066,-0.075l0.066,-0.074l0.067,-0.074l0.048,-0.052l0.019,-0.021l0.068,-0.072l0.068,-0.072l0.069,-0.072l0.069,-0.071l0.073,-0.073l0.138,-0.138l0.143,-0.138l0.144,-0.137l0.147,-0.135l0.148,-0.132l0.15,-0.131l0.152,-0.129l0.154,-0.127l0.155,-0.125l0.157,-0.123l0.158,-0.122l0.16,-0.119l0.162,-0.117l0.163,-0.116l0.165,-0.113l0.167,-0.111l0.168,-0.11l0.169,-0.107l0.171,-0.106l0.172,-0.103l0.174,-0.101l0.175,-0.1l0.177,-0.097l0.178,-0.095l0.179,-0.093l0.169,-0.086l0.012,-0.005l0.184,-0.082l0.186,-0.08l0.187,-0.078l0.188,-0.076l0.188,-0.074l0.19,-0.071l0.191,-0.069l0.192,-0.067l0.193,-0.065l0.194,-0.063l0.195,-0.06l0.196,-0.058l0.196,-0.056l0.198,-0.054l0.198,-0.051l0.199,-0.05l0.2,-0.047l0.2,-0.044l0.202,-0.043l0.202,-0.04l0.203,-0.038l0.203,-0.035l0.204,-0.033l0.205,-0.031l0.206,-0.029l0.206,-0.026l0.206,-0.024l0.208,-0.022l0.207,-0.019l0.209,-0.017l0.209,-0.015l0.209,-0.012l0.21,-0.01l0.21,-0.007l0.21,-0.005l0.211,-0.003l0.212,0l0.212,0.002Zm-0.815,2.526l-0.182,0.003l-0.181,0.005l-0.181,0.008l-0.181,0.009l-0.18,0.011l-0.179,0.014l-0.179,0.015l-0.179,0.018l-0.178,0.019l-0.178,0.022l-0.177,0.023l-0.176,0.026l-0.176,0.027l-0.176,0.029l-0.174,0.032l-0.174,0.033l-0.174,0.036l-0.173,0.037l-0.172,0.039l-0.171,0.041l-0.171,0.043l-0.17,0.046l-0.169,0.046l-0.168,0.049l-0.168,0.051l-0.167,0.053l-0.165,0.054l-0.165,0.057l-0.165,0.058l-0.163,0.061l-0.162,0.062l-0.161,0.064l-0.161,0.066l-0.159,0.067l-0.159,0.07l-0.157,0.071l-0.157,0.073l-0.155,0.076l-0.154,0.076l-0.153,0.079l-0.152,0.081l-0.151,0.082l-0.15,0.084l-0.149,0.086l-0.147,0.087l-0.146,0.09l-0.145,0.091l-0.144,0.093l-0.142,0.095l-0.141,0.096l-0.14,0.098l-0.139,0.1l-0.137,0.102l-0.136,0.103l-0.134,0.106l-0.133,0.106l-0.132,0.109l-0.13,0.11l-0.129,0.112l-0.127,0.114l-0.063,0.057l-0.063,0.058l-0.062,0.058l-0.062,0.059l-0.061,0.059l-0.062,0.059l-0.06,0.06l-0.061,0.061l-0.06,0.06l-0.059,0.062l-0.06,0.061l-0.058,0.062l-0.059,0.063l-0.058,0.062l-0.057,0.064l-0.057,0.063l-0.057,0.064l-0.056,0.065l-0.056,0.065l-0.056,0.065l-0.055,0.065l-0.055,0.066l-0.054,0.067l-0.054,0.067l-0.053,0.067l-0.053,0.068l-0.052,0.068l-0.052,0.068l-0.052,0.069l-0.051,0.069l-0.051,0.07l-0.05,0.07l-0.05,0.07l-0.049,0.071l-0.049,0.071l-0.049,0.072l-0.048,0.072l-0.047,0.072l-0.047,0.073l-0.047,0.073l-0.046,0.074l-0.045,0.074l-0.046,0.074l-0.044,0.075l-0.045,0.075l-0.043,0.075l-0.044,0.076l-0.042,0.076l-0.043,0.077l-0.041,0.077l-0.042,0.077l-0.04,0.078l-0.041,0.078l-0.039,0.079l-0.04,0.079l-0.038,0.079l-0.039,0.08l-0.038,0.08l-0.037,0.08l-0.036,0.081l-0.037,0.081l-0.035,0.081l-0.042,0.097l-0.04,0.097l-0.04,0.097l-0.039,0.098l-0.038,0.097l-0.037,0.098l-0.036,0.098l-0.036,0.099l-0.034,0.098l-0.034,0.099l-0.033,0.099l-0.032,0.099l-0.031,0.1l-0.031,0.099l-0.029,0.1l-0.029,0.1l-0.028,0.1l-0.026,0.101l-0.027,0.1l-0.025,0.101l-0.024,0.101l-0.024,0.101l-0.022,0.101l-0.022,0.102l-0.021,0.101l-0.02,0.102l-0.02,0.102l-0.018,0.102l-0.018,0.102l-0.017,0.102l-0.015,0.103l-0.016,0.102l-0.014,0.103l-0.013,0.103l-0.013,0.102l-0.012,0.103l-0.01,0.103l-0.01,0.104l-0.01,0.103l-0.008,0.103l-0.008,0.104l-0.006,0.103l-0.006,0.104l-0.005,0.103l-0.004,0.104l-0.004,0.104l-0.002,0.104l-0.002,0.103l-0.001,0.104l0,0.104l0.001,0.104l0.002,0.104l0.002,0.104l0.003,0.104l0.005,0.105l0.004,0.104l0.006,0.104l0.007,0.104l0.007,0.104l0.009,0.104l0.009,0.104l0.01,0.104l0.01,0.105l0.012,0.104l0.012,0.104l0.014,0.104l0.014,0.104l0.015,0.104l0.015,0.104l0.017,0.103l0.017,0.104l0.018,0.104l0.019,0.104l0.02,0.103l0.021,0.104l0.021,0.103l0.023,0.104l0.023,0.103l0.024,0.104l0.024,0.103l0.026,0.103l0.026,0.103l0.027,0.103l0.028,0.102l0.029,0.103l0.03,0.103l0.03,0.102l0.031,0.102l0.033,0.102l0.032,0.102l0.034,0.102l0.035,0.102l0.035,0.102l0.036,0.101l0.037,0.101l0.038,0.101l0.038,0.101l0.04,0.101l0.04,0.101l0.041,0.1l0.041,0.1l0.043,0.101l0.043,0.099l0.045,0.1l0.045,0.1l0.045,0.099l0.047,0.099l0.047,0.099l0.049,0.098l0.049,0.099l0.05,0.098l0.05,0.098l0.052,0.098l0.052,0.097l0.053,0.097l0.054,0.097l0.054,0.097l0.056,0.096l0.056,0.097l0.057,0.095l0.058,0.096l0.058,0.095l0.06,0.096l0.06,0.094l0.061,0.095l0.062,0.094l0.062,0.094l0.064,0.094l-0.047,0.148l-0.047,0.148l-0.049,0.148l-0.05,0.146l-0.051,0.146l-0.052,0.145l-0.053,0.144l-0.054,0.144l-0.055,0.142l-0.057,0.142l-0.058,0.141l-0.058,0.141l-0.061,0.139l-0.061,0.139l-0.062,0.138l-0.064,0.138l-0.065,0.136l-0.066,0.136l-0.067,0.134l-0.069,0.134l-0.069,0.134l-0.071,0.132l-0.073,0.131l-0.073,0.131l-0.075,0.13l-0.076,0.129l-0.077,0.128l-0.079,0.127l-0.08,0.126l-0.081,0.126l-0.083,0.124l-0.084,0.124l-0.085,0.123l-0.087,0.122l-0.088,0.121l-0.089,0.12l-0.091,0.119l-0.092,0.119l-0.093,0.117l-0.095,0.116l-0.096,0.116l-0.098,0.115l-0.099,0.113l-0.1,0.113l-0.102,0.112l-0.103,0.111l-0.105,0.109l-0.106,0.109l-0.108,0.108l-0.109,0.107l-0.111,0.106l-0.112,0.105l-0.114,0.104l-0.115,0.103l-0.116,0.102l-0.118,0.101l-0.12,0.1l-0.121,0.099l-0.123,0.098l-0.124,0.096l-0.126,0.096l-0.127,0.095l-0.129,0.094l-0.13,0.092l0.169,-0.007l0.168,-0.01l0.167,-0.011l0.167,-0.012l0.165,-0.015l0.165,-0.016l0.164,-0.018l0.164,-0.019l0.162,-0.022l0.162,-0.023l0.161,-0.024l0.16,-0.027l0.159,-0.028l0.158,-0.03l0.158,-0.031l0.157,-0.033l0.156,-0.036l0.155,-0.036l0.154,-0.039l0.153,-0.04l0.153,-0.042l0.152,-0.044l0.15,-0.046l0.15,-0.047l0.15,-0.049l0.148,-0.051l0.147,-0.053l0.147,-0.055l0.146,-0.056l0.144,-0.058l0.144,-0.06l0.144,-0.062l0.142,-0.064l0.141,-0.065l0.141,-0.067l0.139,-0.07l0.139,-0.07l0.138,-0.073l0.137,-0.075l0.136,-0.076l0.135,-0.079l0.135,-0.08l0.133,-0.082l0.133,-0.084l0.131,-0.086l0.131,-0.087l0.13,-0.09l0.129,-0.092l0.128,-0.093l0.127,-0.095l0.126,-0.097l0.126,-0.099l0.124,-0.101l0.123,-0.103l0.123,-0.105l0.122,-0.107l0.12,-0.109l0.12,-0.11l0.119,-0.113l0.118,-0.114l0.117,-0.117l0.116,-0.118l0.115,-0.12l0.115,-0.123l0.099,0.075l0.101,0.074l0.1,0.073l0.102,0.072l0.102,0.072l0.102,0.071l0.103,0.07l0.104,0.07l0.104,0.068l0.105,0.068l0.105,0.067l0.106,0.067l0.106,0.065l0.107,0.065l0.107,0.064l0.107,0.063l0.109,0.063l0.108,0.061l0.109,0.061l0.11,0.06l0.11,0.06l0.111,0.058l0.111,0.058l0.111,0.057l0.112,0.056l0.112,0.055l0.113,0.054l0.113,0.054l0.114,0.053l0.114,0.052l0.114,0.051l0.115,0.05l0.091,0.039l0.09,0.039l0.091,0.038l0.091,0.037l0.183,0.073l0.182,0.071l0.183,0.068l0.183,0.066l0.184,0.064l0.183,0.061l0.184,0.06l0.184,0.057l0.184,0.055l0.184,0.052l0.185,0.051l0.184,0.048l0.185,0.046l0.185,0.043l0.185,0.042l0.185,0.039l0.184,0.037l0.185,0.035l0.185,0.033l0.185,0.031l0.185,0.028l0.184,0.027l0.185,0.024l0.184,0.022l0.185,0.02l0.184,0.017l0.184,0.016l0.184,0.014l0.183,0.011l0.184,0.009l0.183,0.008l0.183,0.005l0.182,0.003l0.183,0.001l0.181,-0.001l0.182,-0.004l0.181,-0.005l0.181,-0.007l0.181,-0.009l0.18,-0.012l0.179,-0.013l0.179,-0.016l0.179,-0.017l0.178,-0.02l0.178,-0.021l0.177,-0.024l0.176,-0.025l0.176,-0.028l0.176,-0.029l0.174,-0.031l0.175,-0.034l0.173,-0.035l0.173,-0.037l0.172,-0.04l0.171,-0.041l0.171,-0.043l0.17,-0.045l0.169,-0.047l0.168,-0.049l0.168,-0.051l0.167,-0.052l0.165,-0.055l0.165,-0.056l0.165,-0.059l0.163,-0.06l0.162,-0.062l0.162,-0.064l0.16,-0.066l0.159,-0.068l0.159,-0.069l0.157,-0.072l0.157,-0.073l0.155,-0.075l0.154,-0.077l0.153,-0.079l0.152,-0.08l0.151,-0.082l0.15,-0.084l0.149,-0.086l0.147,-0.088l0.146,-0.089l0.145,-0.092l0.144,-0.093l0.142,-0.094l0.141,-0.097l0.14,-0.098l0.139,-0.1l0.137,-0.102l0.136,-0.103l0.134,-0.105l0.133,-0.107l0.132,-0.108l0.13,-0.111l0.129,-0.111l0.127,-0.114l0.063,-0.058l0.063,-0.057l0.062,-0.059l0.062,-0.058l0.062,-0.059l0.061,-0.06l0.06,-0.06l0.061,-0.06l0.06,-0.061l0.059,-0.061l0.06,-0.062l0.058,-0.062l0.059,-0.062l0.058,-0.063l0.057,-0.063l0.057,-0.064l0.057,-0.064l0.057,-0.064l0.055,-0.065l0.056,-0.065l0.055,-0.066l0.055,-0.066l0.054,-0.066l0.054,-0.067l0.053,-0.068l0.053,-0.067l0.052,-0.068l0.052,-0.069l0.052,-0.069l0.051,-0.069l0.051,-0.069l0.05,-0.07l0.05,-0.071l0.049,-0.071l0.049,-0.071l0.049,-0.071l0.048,-0.072l0.047,-0.073l0.047,-0.073l0.047,-0.073l0.046,-0.073l0.046,-0.074l0.045,-0.075l0.044,-0.074l0.045,-0.075l0.043,-0.076l0.044,-0.076l0.042,-0.076l0.043,-0.077l0.041,-0.077l0.042,-0.077l0.04,-0.078l0.041,-0.078l0.04,-0.078l0.039,-0.079l0.039,-0.079l0.038,-0.08l0.038,-0.08l0.037,-0.08l0.037,-0.081l0.036,-0.081l0.035,-0.082l0.036,-0.082l0.034,-0.081l0.034,-0.082l0.033,-0.083l0.033,-0.082l0.032,-0.082l0.031,-0.083l0.031,-0.082l0.03,-0.083l0.029,-0.083l0.029,-0.083l0.029,-0.083l0.027,-0.083l0.027,-0.083l0.027,-0.083l0.026,-0.084l0.025,-0.083l0.024,-0.084l0.024,-0.083l0.024,-0.084l0.023,-0.084l0.022,-0.084l0.021,-0.084l0.021,-0.084l0.021,-0.084l0.019,-0.084l0.02,-0.085l0.018,-0.084l0.018,-0.085l0.018,-0.084l0.016,-0.085l0.016,-0.084l0.016,-0.085l0.015,-0.085l0.014,-0.084l0.014,-0.085l0.014,-0.085l0.012,-0.085l0.012,-0.085l0.012,-0.085l0.011,-0.085l0.01,-0.085l0.01,-0.085l0.009,-0.085l0.008,-0.085l0.008,-0.086l0.008,-0.085l0.006,-0.085l0.007,-0.085l0.005,-0.086l0.005,-0.085l0.005,-0.085l0.004,-0.085l0.003,-0.086l0.003,-0.085l0.002,-0.085l0.002,-0.086l0.001,-0.085l0,-0.085l0,-0.086l0,-0.085l-0.001,-0.085l-0.004,-0.171l-0.007,-0.17l-0.008,-0.17l-0.011,-0.171l-0.013,-0.17l-0.015,-0.17l-0.017,-0.17l-0.02,-0.169l-0.021,-0.17l-0.024,-0.169l-0.026,-0.169l-0.029,-0.169l-0.03,-0.168l-0.032,-0.168l-0.035,-0.168l-0.037,-0.168l-0.039,-0.167l-0.041,-0.166l-0.043,-0.167l-0.045,-0.166l-0.047,-0.165l-0.049,-0.166l-0.052,-0.164l-0.053,-0.165l-0.056,-0.163l-0.057,-0.163l-0.06,-0.163l-0.061,-0.162l-0.064,-0.162l-0.065,-0.161l-0.068,-0.16l-0.069,-0.16l-0.072,-0.159l-0.073,-0.158l-0.076,-0.158l-0.077,-0.157l-0.08,-0.156l-0.081,-0.156l-0.083,-0.155l-0.085,-0.154l-0.087,-0.153l-0.089,-0.153l-0.091,-0.151l-0.093,-0.151l-0.095,-0.15l-0.096,-0.149l-0.098,-0.148l-0.101,-0.147l-0.102,-0.147l-0.103,-0.145l-0.106,-0.144l-0.108,-0.144l-0.109,-0.142l-0.111,-0.141l-0.113,-0.141l-0.115,-0.139l-0.116,-0.138l-0.119,-0.137l-0.12,-0.136l-0.121,-0.134l-0.124,-0.134l-0.125,-0.132l-0.127,-0.132l-0.129,-0.13l-0.13,-0.128l-0.132,-0.128l-0.134,-0.126l-0.136,-0.125l-0.137,-0.124l-0.139,-0.122l-0.14,-0.121l-0.142,-0.12l-0.144,-0.118l-0.146,-0.117l-0.147,-0.115l-0.148,-0.114l-0.151,-0.113l-0.151,-0.111l-0.154,-0.109l-0.155,-0.108l-0.157,-0.107l-0.158,-0.105l-0.159,-0.103l-0.162,-0.102l-0.163,-0.1l-0.164,-0.099l-0.166,-0.097l-0.167,-0.095l-0.169,-0.094l-0.171,-0.092l-0.172,-0.09l-0.173,-0.089l-0.175,-0.087l-0.176,-0.085l-0.178,-0.083l-0.089,-0.041l-0.09,-0.04l-0.09,-0.04l-0.091,-0.04l-0.091,-0.039l-0.09,-0.038l-0.091,-0.038l-0.091,-0.037l-0.183,-0.073l-0.182,-0.071l-0.183,-0.068l-0.183,-0.066l-0.183,-0.064l-0.184,-0.062l-0.184,-0.059l-0.184,-0.057l-0.184,-0.055l-0.184,-0.053l-0.185,-0.05l-0.184,-0.048l-0.185,-0.046l-0.185,-0.044l-0.185,-0.041l-0.184,-0.04l-0.185,-0.037l-0.185,-0.035l-0.185,-0.033l-0.185,-0.03l-0.185,-0.029l-0.184,-0.026l-0.185,-0.024l-0.184,-0.022l-0.185,-0.02l-0.184,-0.018l-0.184,-0.016l-0.184,-0.013l-0.183,-0.012l-0.184,-0.009l-0.183,-0.007l-0.183,-0.005l-0.182,-0.003l-0.182,-0.001l-0.182,0.001Z" style="fill:#fff;"/><path d="M38.157,11.868l0.163,0.003l0.161,0.006l0.16,0.009l0.16,0.011l0.158,0.013l0.157,0.017l0.155,0.018l0.155,0.021l0.153,0.023l0.152,0.025l0.15,0.028l0.149,0.029l0.148,0.032l0.147,0.034l0.145,0.035l0.144,0.037l0.142,0.039l0.141,0.041l0.14,0.042l0.138,0.044l0.137,0.045l0.135,0.047l0.134,0.048l0.132,0.049l0.131,0.051l0.13,0.052l0.128,0.053l0.126,0.054l0.125,0.055l0.124,0.056l0.122,0.057l0.121,0.058l0.109,0.054l0.01,0.005l0.117,0.06l0.116,0.061l0.115,0.061l0.112,0.062l0.112,0.063l0.11,0.063l0.108,0.064l0.107,0.064l0.105,0.064l0.104,0.065l0.102,0.065l0.101,0.065l0.099,0.066l0.098,0.065l0.096,0.066l0.095,0.065l0.093,0.066l0.092,0.066l0.09,0.065l0.089,0.065l0.087,0.066l0.085,0.064l0.084,0.065l0.082,0.064l0.084,0.066l0.154,0.125l0.151,0.125l0.144,0.122l0.138,0.12l0.131,0.117l0.125,0.113l0.119,0.11l0.111,0.106l0.036,0.034l0.067,-0.004l0.143,-0.007l0.029,-0.002l0.121,-0.001l0.155,-0.001l0.162,0.002l0.167,0.004l0.172,0.006l0.177,0.009l0.179,0.011l0.096,0.007l0.094,0.008l0.096,0.009l0.096,0.009l0.098,0.01l0.098,0.011l0.1,0.012l0.101,0.013l0.101,0.014l0.103,0.014l0.104,0.016l0.104,0.017l0.106,0.018l0.106,0.019l0.107,0.02l0.108,0.021l0.109,0.023l0.109,0.023l0.111,0.025l0.111,0.026l0.111,0.028l0.113,0.028l0.113,0.03l0.113,0.032l0.114,0.033l0.115,0.034l0.115,0.035l0.116,0.038l0.116,0.038l0.117,0.04l0.117,0.042l0.117,0.043l0.118,0.045l0.118,0.047l0.118,0.048l0.118,0.05l0.006,0.002l0.113,0.051l0.118,0.055l0.118,0.056l0.119,0.059l0.118,0.06l0.118,0.062l0.119,0.063l0.118,0.066l0.118,0.068l0.118,0.069l0.118,0.072l0.117,0.073l0.118,0.076l0.117,0.077l0.116,0.08l0.116,0.081l0.116,0.084l0.115,0.086l0.115,0.088l0.114,0.09l0.114,0.092l0.113,0.094l0.112,0.097l0.111,0.098l0.111,0.101l0.11,0.103l0.109,0.105l0.108,0.108l0.108,0.11l0.106,0.112l0.106,0.114l0.104,0.116l0.103,0.119l0.102,0.121l0.101,0.123l0.1,0.126l0.099,0.128l0.098,0.13l0.096,0.133l0.095,0.135l0.093,0.137l0.092,0.139l0.091,0.142l0.09,0.144l0.021,0.035l0.045,0.075l0.066,0.11l0.063,0.111l0.062,0.112l0.06,0.112l0.058,0.113l0.056,0.113l0.055,0.114l0.053,0.115l0.051,0.115l0.05,0.116l0.048,0.116l0.046,0.116l0.045,0.117l0.042,0.118l0.042,0.118l0.039,0.118l0.038,0.119l0.037,0.119l0.035,0.119l0.033,0.12l0.032,0.12l0.03,0.12l0.029,0.121l0.027,0.12l0.025,0.121l0.024,0.122l0.023,0.121l0.021,0.122l0.02,0.122l0.018,0.122l0.017,0.123l0.015,0.122l0.014,0.123l0.013,0.123l0.011,0.123l0.01,0.123l0.009,0.123l0.007,0.123l0.006,0.123l0.004,0.124l0.003,0.123l0.002,0.124l0.001,0.124l-0.001,0.123l-0.001,0.124l-0.003,0.124l-0.005,0.124l-0.005,0.123l-0.007,0.124l-0.008,0.124l-0.009,0.124l-0.01,0.124l-0.012,0.123l-0.013,0.124l-0.012,0.114l-0.001,0.01l-0.013,0.124l-0.015,0.123l-0.015,0.124l-0.017,0.124l-0.017,0.123l-0.019,0.124l-0.02,0.123l-0.021,0.124l-0.022,0.123l-0.022,0.123l-0.024,0.124l-0.026,0.123l-0.026,0.123l-0.027,0.122l-0.028,0.123l-0.029,0.123l-0.03,0.122l-0.031,0.123l-0.032,0.122l-0.033,0.122l-0.034,0.121l-0.035,0.122l-0.036,0.122l-0.036,0.121l-0.038,0.121l-0.012,0.038l-0.025,0.083l-0.038,0.121l-0.038,0.121l-0.04,0.121l-0.04,0.121l-0.041,0.12l-0.042,0.12l-0.043,0.12l-0.044,0.12l-0.045,0.12l-0.045,0.119l-0.047,0.119l-0.047,0.118l-0.048,0.119l-0.049,0.118l-0.05,0.117l-0.05,0.118l-0.052,0.117l-0.052,0.117l-0.053,0.116l-0.054,0.116l-0.054,0.116l-0.056,0.116l-0.038,0.077l-0.017,0.038l-0.055,0.115l-0.056,0.116l-0.057,0.115l-0.057,0.114l-0.058,0.114l-0.059,0.114l-0.06,0.113l-0.06,0.113l-0.062,0.112l-0.061,0.112l-0.063,0.112l-0.063,0.111l-0.064,0.111l-0.065,0.11l-0.066,0.11l-0.066,0.109l-0.067,0.109l-0.067,0.108l-0.013,0.02l0.015,0.043l0.05,0.143l0.052,0.142l0.053,0.142l0.053,0.14l0.055,0.14l0.056,0.138l0.057,0.138l0.058,0.137l0.059,0.136l0.06,0.135l0.062,0.134l0.062,0.134l0.063,0.132l0.065,0.132l0.045,0.088l0.021,0.042l0.068,0.129l0.069,0.129l0.07,0.127l0.071,0.126l0.073,0.126l0.073,0.124l0.075,0.124l0.076,0.123l0.077,0.121l0.078,0.121l0.079,0.12l0.081,0.119l0.082,0.118l0.083,0.117l0.084,0.116l0.086,0.115l0.086,0.115l0.088,0.113l0.09,0.112l0.09,0.112l0.092,0.11l0.093,0.11l0.095,0.108l0.096,0.108l0.097,0.107l0.098,0.105l0.1,0.105l0.101,0.104l0.103,0.103l0.104,0.102l0.105,0.101l0.107,0.1l0.108,0.099l0.109,0.099l0.111,0.097l0.113,0.096l0.114,0.096l0.115,0.094l0.117,0.093l0.119,0.093l0.12,0.091l0.121,0.091l0.123,0.09l0.125,0.088l0.132,0.092l0.17,0.145l0.143,0.171l0.112,0.193l0.077,0.209l0.041,0.22l0.002,0.223l-0.035,0.22l-0.073,0.211l-0.108,0.196l-0.139,0.174l-0.167,0.148l-0.19,0.118l-0.207,0.083l-0.218,0.047l-0.223,0.009l-0.184,-0.007l-0.19,-0.009l-0.006,0l-0.184,-0.01l-0.188,-0.012l-0.188,-0.014l-0.188,-0.016l-0.187,-0.018l-0.186,-0.02l-0.185,-0.022l-0.185,-0.024l-0.184,-0.026l-0.183,-0.028l-0.183,-0.03l-0.181,-0.032l-0.182,-0.034l-0.18,-0.036l-0.18,-0.038l-0.179,-0.04l-0.178,-0.042l-0.177,-0.045l-0.177,-0.046l-0.176,-0.049l-0.175,-0.05l-0.174,-0.053l-0.173,-0.055l-0.173,-0.057l-0.172,-0.059l-0.171,-0.061l-0.17,-0.064l-0.169,-0.065l-0.169,-0.068l-0.167,-0.07l-0.167,-0.072l-0.165,-0.074l-0.165,-0.077l-0.164,-0.078l-0.163,-0.081l-0.162,-0.083l-0.16,-0.085l-0.16,-0.088l-0.159,-0.089l-0.158,-0.092l-0.157,-0.094l-0.156,-0.096l-0.155,-0.098l-0.154,-0.101l-0.153,-0.103l-0.152,-0.105l-0.15,-0.107l-0.15,-0.109l-0.148,-0.111l-0.148,-0.114l-0.146,-0.116l-0.145,-0.118l-0.144,-0.12l-0.143,-0.122l-0.119,-0.105l-0.184,0.153l-0.264,0.219l-0.136,0.111l-0.137,0.112l-0.14,0.113l-0.14,0.112l-0.143,0.113l-0.144,0.112l-0.145,0.111l-0.146,0.111l-0.147,0.109l-0.148,0.107l-0.15,0.106l-0.148,0.102l-0.078,0.052l-0.076,0.05l-0.076,0.05l-0.077,0.049l-0.077,0.048l-0.077,0.047l-0.078,0.047l-0.078,0.045l-0.078,0.045l-0.079,0.044l-0.08,0.043l-0.08,0.042l-0.081,0.041l-0.081,0.04l-0.082,0.039l-0.08,0.036l-0.089,0.039l-0.086,0.036l-0.086,0.036l-0.086,0.035l-0.085,0.034l-0.086,0.033l-0.085,0.033l-0.086,0.031l-0.085,0.03l-0.085,0.03l-0.085,0.029l-0.084,0.028l-0.085,0.027l-0.085,0.026l-0.084,0.025l-0.084,0.024l-0.085,0.024l-0.084,0.023l-0.084,0.021l-0.083,0.021l-0.084,0.02l-0.083,0.02l-0.084,0.018l-0.083,0.018l-0.083,0.017l-0.082,0.016l-0.027,0.005l-0.056,0.01l-0.082,0.015l-0.083,0.013l-0.082,0.013l-0.081,0.012l-0.082,0.012l-0.082,0.01l-0.081,0.01l-0.081,0.009l-0.081,0.008l-0.08,0.008l-0.081,0.006l-0.08,0.006l-0.08,0.005l-0.08,0.005l-0.079,0.003l-0.079,0.003l-0.079,0.003l-0.079,0.001l-0.079,0.001l-0.078,0l-0.078,-0.001l-0.078,-0.001l-0.077,-0.002l-0.078,-0.003l-0.08,-0.004l-0.149,-0.008l-0.152,-0.012l-0.151,-0.014l-0.149,-0.017l-0.149,-0.019l-0.147,-0.022l-0.145,-0.023l-0.145,-0.027l-0.143,-0.028l-0.142,-0.031l-0.14,-0.032l-0.139,-0.035l-0.138,-0.037l-0.136,-0.039l-0.134,-0.04l-0.134,-0.043l-0.131,-0.044l-0.131,-0.046l-0.129,-0.047l-0.127,-0.049l-0.126,-0.051l-0.124,-0.052l-0.123,-0.053l-0.122,-0.055l-0.12,-0.055l-0.118,-0.058l-0.117,-0.058l-0.115,-0.059l-0.114,-0.06l-0.113,-0.062l-0.11,-0.062l-0.11,-0.063l-0.107,-0.064l-0.107,-0.065l-0.105,-0.065l-0.103,-0.066l-0.102,-0.067l-0.1,-0.067l-0.099,-0.068l-0.097,-0.068l-0.096,-0.069l-0.094,-0.069l-0.093,-0.069l-0.091,-0.069l-0.09,-0.07l-0.088,-0.07l-0.087,-0.07l-0.085,-0.07l-0.084,-0.07l-0.082,-0.069l-0.081,-0.07l-0.079,-0.07l-0.078,-0.07l-0.076,-0.069l-0.075,-0.069l-0.073,-0.069l-0.072,-0.068l-0.071,-0.068l-0.069,-0.067l-0.067,-0.067l-0.066,-0.067l-0.067,-0.068l-0.122,-0.128l-0.119,-0.126l-0.113,-0.124l-0.107,-0.12l-0.092,-0.106l-0.002,0l-0.147,0.031l-0.153,0.03l-0.16,0.029l-0.167,0.029l-0.17,0.026l-0.092,0.013l-0.09,0.012l-0.092,0.011l-0.093,0.012l-0.094,0.01l-0.097,0.01l-0.097,0.009l-0.099,0.008l-0.1,0.008l-0.101,0.007l-0.103,0.006l-0.104,0.005l-0.105,0.004l-0.106,0.003l-0.108,0.002l-0.108,0.001l-0.11,0l-0.111,-0.001l-0.112,-0.002l-0.113,-0.004l-0.114,-0.004l-0.114,-0.007l-0.116,-0.007l-0.117,-0.009l-0.118,-0.011l-0.119,-0.012l-0.119,-0.013l-0.12,-0.015l-0.121,-0.017l-0.122,-0.019l-0.122,-0.02l-0.124,-0.022l-0.123,-0.024l-0.125,-0.026l-0.125,-0.028l-0.125,-0.03l-0.126,-0.031l-0.127,-0.034l-0.126,-0.037l-0.128,-0.038l-0.127,-0.041l-0.128,-0.043l-0.128,-0.045l-0.128,-0.048l-0.128,-0.05l-0.129,-0.053l-0.128,-0.055l-0.128,-0.058l-0.128,-0.061l-0.128,-0.063l-0.128,-0.066l-0.128,-0.068l-0.127,-0.072l-0.126,-0.074l-0.127,-0.077l-0.125,-0.08l-0.126,-0.083l-0.124,-0.086l-0.12,-0.087l-0.065,-0.048l-0.062,-0.046l-0.061,-0.047l-0.061,-0.048l-0.06,-0.049l-0.061,-0.049l-0.06,-0.05l-0.06,-0.051l-0.059,-0.051l-0.06,-0.053l-0.059,-0.053l-0.059,-0.054l-0.058,-0.055l-0.058,-0.055l-0.058,-0.056l-0.058,-0.057l-0.057,-0.058l-0.057,-0.059l-0.057,-0.059l-0.056,-0.06l-0.056,-0.061l-0.055,-0.061l-0.056,-0.063l-0.054,-0.063l-0.055,-0.064l-0.054,-0.065l-0.054,-0.065l-0.053,-0.066l-0.053,-0.067l-0.052,-0.068l-0.052,-0.069l-0.052,-0.069l-0.051,-0.07l-0.051,-0.071l-0.05,-0.072l-0.05,-0.072l-0.049,-0.074l-0.049,-0.074l-0.049,-0.075l-0.048,-0.075l-0.048,-0.076l-0.047,-0.078l-0.047,-0.077l-0.046,-0.079l-0.046,-0.08l-0.045,-0.08l-0.045,-0.081l-0.044,-0.082l-0.044,-0.082l-0.043,-0.083l-0.043,-0.085l-0.042,-0.084l-0.042,-0.086l-0.042,-0.087l-0.041,-0.087l-0.04,-0.088l-0.04,-0.089l-0.059,-0.133l-0.02,-0.046l-0.039,-0.089l-0.038,-0.089l-0.037,-0.089l-0.013,-0.031l-0.023,-0.058l-0.036,-0.089l-0.034,-0.088l-0.034,-0.089l-0.032,-0.088l-0.032,-0.088l-0.031,-0.088l-0.03,-0.088l-0.03,-0.088l-0.028,-0.087l-0.028,-0.087l-0.026,-0.088l-0.026,-0.087l-0.025,-0.087l-0.024,-0.086l-0.024,-0.087l-0.022,-0.086l-0.022,-0.087l-0.02,-0.086l-0.02,-0.085l-0.019,-0.086l-0.019,-0.086l-0.017,-0.085l-0.017,-0.085l-0.016,-0.085l-0.015,-0.085l-0.014,-0.084l-0.013,-0.085l-0.013,-0.084l-0.011,-0.084l-0.011,-0.084l-0.01,-0.083l-0.01,-0.083l-0.008,-0.083l-0.008,-0.083l-0.007,-0.083l-0.006,-0.082l-0.006,-0.082l-0.004,-0.082l-0.004,-0.082l-0.003,-0.081l-0.003,-0.081l-0.001,-0.081l-0.001,-0.08l0,-0.081l0,-0.084l0.004,-0.155l0.006,-0.157l0.009,-0.157l0.012,-0.155l0.015,-0.155l0.017,-0.152l0.02,-0.152l0.022,-0.15l0.025,-0.148l0.014,-0.075l0.014,-0.072l0.03,-0.146l0.033,-0.143l0.035,-0.143l0.037,-0.141l0.04,-0.139l0.041,-0.137l0.043,-0.136l0.046,-0.134l0.047,-0.132l0.049,-0.131l0.05,-0.129l0.053,-0.127l0.054,-0.126l0.055,-0.123l0.057,-0.122l0.058,-0.121l0.06,-0.118l0.061,-0.117l0.062,-0.115l0.063,-0.113l0.064,-0.111l0.065,-0.11l0.067,-0.108l0.067,-0.106l0.068,-0.104l0.068,-0.103l0.07,-0.101l0.07,-0.099l0.07,-0.098l0.071,-0.095l0.072,-0.095l0.072,-0.092l0.072,-0.091l0.073,-0.089l0.073,-0.087l0.073,-0.086l0.073,-0.084l0.073,-0.082l0.074,-0.081l0.073,-0.08l0.074,-0.077l0.073,-0.076l0.073,-0.075l0.073,-0.073l0.073,-0.071l0.072,-0.07l0.072,-0.068l0.072,-0.067l0.071,-0.065l0.071,-0.064l0.07,-0.062l0.069,-0.06l0.073,-0.062l0.022,-0.019l0.112,-0.09l0.135,-0.105l0.132,-0.1l0.056,-0.041l-0.001,-0.042l-0.002,-0.164l0.001,-0.171l0.003,-0.173l0.003,-0.095l0.004,-0.092l0.004,-0.094l0.005,-0.095l0.006,-0.097l0.007,-0.098l0.007,-0.1l0.009,-0.1l0.01,-0.103l0.011,-0.103l0.011,-0.105l0.013,-0.106l0.014,-0.107l0.015,-0.108l0.017,-0.11l0.018,-0.11l0.018,-0.112l0.021,-0.113l0.021,-0.114l0.023,-0.115l0.024,-0.115l0.026,-0.117l0.028,-0.118l0.028,-0.119l0.031,-0.119l0.032,-0.12l0.033,-0.122l0.035,-0.121l0.037,-0.123l0.039,-0.123l0.041,-0.124l0.042,-0.125l0.044,-0.125l0.046,-0.126l0.048,-0.126l0.05,-0.127l0.052,-0.127l0.053,-0.128l0.056,-0.128l0.058,-0.128l0.06,-0.128l0.063,-0.129l0.064,-0.129l0.067,-0.129l0.069,-0.13l0.071,-0.129l0.073,-0.129l0.076,-0.13l0.078,-0.129l0.081,-0.129l0.083,-0.129l0.085,-0.129l0.088,-0.129l0.09,-0.128l0.093,-0.128l0.095,-0.128l0.098,-0.127l0.101,-0.127l0.103,-0.126l0.105,-0.126l0.109,-0.125l0.111,-0.125l0.113,-0.124l0.117,-0.123l0.118,-0.122l0.122,-0.121l0.124,-0.121l0.128,-0.12l0.129,-0.119l0.133,-0.118l0.135,-0.116l0.138,-0.116l0.141,-0.115l0.144,-0.113l0.146,-0.113l0.15,-0.111l0.152,-0.11l0.152,-0.107l0.081,-0.056l0.08,-0.053l0.08,-0.053l0.08,-0.053l0.082,-0.053l0.082,-0.052l0.083,-0.052l0.083,-0.051l0.084,-0.051l0.085,-0.051l0.086,-0.051l0.086,-0.05l0.088,-0.049l0.048,-0.027l0.04,-0.023l0.088,-0.048l0.09,-0.048l0.09,-0.048l0.091,-0.048l0.092,-0.047l0.093,-0.047l0.086,-0.042l0.086,-0.042l0.087,-0.041l0.086,-0.04l0.087,-0.039l0.086,-0.038l0.087,-0.038l0.087,-0.036l0.087,-0.035l0.086,-0.035l0.087,-0.033l0.087,-0.033l0.087,-0.031l0.086,-0.031l0.087,-0.03l0.087,-0.029l0.087,-0.028l0.086,-0.027l0.087,-0.026l0.086,-0.026l0.087,-0.024l0.086,-0.024l0.087,-0.022l0.086,-0.022l0.086,-0.021l0.086,-0.02l0.086,-0.019l0.086,-0.018l0.086,-0.018l0.086,-0.017l0.085,-0.015l0.086,-0.015l0.085,-0.014l0.085,-0.014l0.085,-0.012l0.085,-0.012l0.085,-0.01l0.085,-0.011l0.084,-0.009l0.084,-0.008l0.084,-0.008l0.084,-0.007l0.084,-0.006l0.083,-0.005l0.083,-0.005l0.088,-0.004l0.161,-0.005l0.164,-0.002l0.163,0Zm-0.143,2.164l-0.126,0.002l-0.128,0.005l-0.064,0.003l-0.064,0.003l-0.064,0.005l-0.064,0.005l-0.064,0.005l-0.065,0.006l-0.064,0.007l-0.065,0.007l-0.065,0.008l-0.065,0.008l-0.065,0.01l-0.066,0.009l-0.065,0.011l-0.066,0.011l-0.065,0.011l-0.066,0.013l-0.066,0.013l-0.066,0.013l-0.066,0.015l-0.067,0.015l-0.066,0.015l-0.066,0.017l-0.067,0.017l-0.067,0.017l-0.067,0.019l-0.066,0.019l-0.068,0.02l-0.067,0.02l-0.067,0.021l-0.067,0.022l-0.068,0.023l-0.067,0.024l-0.068,0.024l-0.067,0.025l-0.068,0.025l-0.068,0.027l-0.068,0.027l-0.068,0.028l-0.068,0.029l-0.069,0.029l-0.068,0.031l-0.068,0.031l-0.069,0.031l-0.068,0.033l-0.069,0.034l-0.069,0.034l-0.079,0.04l-0.079,0.041l-0.078,0.041l-0.077,0.041l-0.076,0.042l-0.076,0.042l-0.075,0.042l-0.075,0.042l-0.073,0.043l-0.073,0.043l-0.072,0.043l-0.072,0.043l-0.07,0.044l-0.07,0.043l-0.07,0.044l-0.068,0.045l-0.068,0.044l-0.068,0.045l-0.066,0.045l-0.066,0.045l-0.13,0.091l-0.127,0.092l-0.124,0.092l-0.122,0.094l-0.119,0.094l-0.117,0.095l-0.114,0.095l-0.111,0.096l-0.109,0.097l-0.107,0.098l-0.104,0.098l-0.102,0.098l-0.099,0.099l-0.097,0.1l-0.094,0.1l-0.092,0.1l-0.09,0.101l-0.088,0.101l-0.086,0.102l-0.083,0.102l-0.081,0.102l-0.079,0.103l-0.077,0.103l-0.075,0.103l-0.072,0.103l-0.071,0.103l-0.069,0.104l-0.066,0.104l-0.065,0.103l-0.063,0.104l-0.061,0.104l-0.059,0.104l-0.057,0.104l-0.055,0.103l-0.054,0.104l-0.051,0.103l-0.05,0.104l-0.049,0.103l-0.046,0.103l-0.045,0.103l-0.044,0.103l-0.041,0.102l-0.041,0.102l-0.038,0.102l-0.037,0.101l-0.036,0.101l-0.034,0.101l-0.033,0.1l-0.031,0.099l-0.03,0.1l-0.029,0.098l-0.027,0.098l-0.026,0.098l-0.024,0.097l-0.024,0.096l-0.022,0.096l-0.021,0.095l-0.02,0.094l-0.019,0.093l-0.017,0.093l-0.017,0.092l-0.015,0.091l-0.015,0.09l-0.013,0.09l-0.012,0.088l-0.012,0.088l-0.01,0.086l-0.01,0.086l-0.009,0.084l-0.008,0.084l-0.007,0.083l-0.006,0.081l-0.006,0.08l-0.005,0.079l-0.004,0.078l-0.004,0.077l-0.003,0.075l-0.002,0.075l-0.003,0.144l0,0.139l0.001,0.134l0.003,0.128l0.005,0.121l0.006,0.116l0.007,0.109l0.007,0.102l0.009,0.095l0.009,0.088l0.009,0.081l0.009,0.074l0.008,0.065l0.009,0.058l0.014,0.09l0.01,0.055l0.004,0.019l-0.018,0.009l-0.052,0.027l-0.083,0.046l-0.052,0.029l-0.059,0.035l-0.066,0.039l-0.071,0.043l-0.077,0.048l-0.083,0.053l-0.087,0.058l-0.092,0.062l-0.097,0.067l-0.1,0.071l-0.104,0.076l-0.107,0.081l-0.11,0.086l-0.113,0.09l-0.057,0.047l-0.057,0.048l-0.058,0.049l-0.059,0.05l-0.059,0.052l-0.059,0.053l-0.059,0.054l-0.06,0.055l-0.06,0.056l-0.06,0.058l-0.06,0.059l-0.061,0.06l-0.06,0.061l-0.06,0.062l-0.06,0.064l-0.06,0.064l-0.06,0.066l-0.06,0.067l-0.059,0.069l-0.059,0.069l-0.059,0.071l-0.059,0.072l-0.058,0.073l-0.057,0.074l-0.058,0.076l-0.056,0.076l-0.056,0.078l-0.055,0.079l-0.055,0.081l-0.054,0.081l-0.053,0.083l-0.052,0.084l-0.052,0.085l-0.05,0.087l-0.05,0.087l-0.049,0.089l-0.047,0.09l-0.047,0.092l-0.045,0.092l-0.045,0.094l-0.043,0.095l-0.042,0.096l-0.04,0.097l-0.039,0.099l-0.038,0.1l-0.037,0.101l-0.035,0.102l-0.033,0.104l-0.032,0.105l-0.03,0.106l-0.029,0.107l-0.027,0.109l-0.025,0.109l-0.023,0.111l-0.022,0.112l-0.02,0.114l-0.018,0.115l-0.016,0.115l-0.014,0.118l-0.012,0.118l-0.009,0.12l-0.008,0.121l-0.006,0.122l-0.002,0.061l-0.001,0.062l-0.001,0.062l0,0.063l0,0.063l0.001,0.063l0.002,0.063l0.002,0.064l0.003,0.064l0.003,0.064l0.004,0.065l0.004,0.065l0.005,0.065l0.006,0.066l0.006,0.066l0.007,0.066l0.008,0.067l0.008,0.066l0.009,0.068l0.01,0.067l0.01,0.068l0.011,0.068l0.012,0.069l0.012,0.068l0.013,0.069l0.014,0.07l0.014,0.069l0.015,0.071l0.016,0.07l0.016,0.071l0.017,0.07l0.018,0.072l0.019,0.071l0.019,0.072l0.02,0.073l0.021,0.072l0.022,0.073l0.022,0.073l0.023,0.074l0.024,0.073l0.025,0.075l0.025,0.074l0.026,0.075l0.027,0.075l0.028,0.075l0.029,0.076l0.029,0.076l0.03,0.077l0.031,0.076l0.032,0.077l0.032,0.076l0.033,0.075l0.033,0.075l0.033,0.073l0.033,0.073l0.034,0.072l0.035,0.071l0.034,0.071l0.035,0.069l0.036,0.069l0.036,0.068l0.036,0.067l0.036,0.067l0.037,0.066l0.037,0.065l0.037,0.064l0.038,0.063l0.038,0.063l0.038,0.062l0.038,0.061l0.039,0.06l0.04,0.06l0.039,0.059l0.04,0.058l0.04,0.058l0.04,0.057l0.041,0.056l0.041,0.055l0.041,0.055l0.041,0.054l0.042,0.053l0.042,0.052l0.042,0.052l0.042,0.051l0.043,0.051l0.043,0.05l0.043,0.049l0.043,0.048l0.044,0.048l0.044,0.047l0.044,0.047l0.044,0.045l0.045,0.046l0.044,0.044l0.045,0.044l0.045,0.043l0.046,0.043l0.045,0.042l0.046,0.041l0.046,0.041l0.046,0.04l0.046,0.039l0.047,0.039l0.046,0.038l0.047,0.038l0.047,0.037l0.047,0.037l0.047,0.035l0.095,0.07l0.095,0.068l0.096,0.066l0.097,0.063l0.097,0.061l0.097,0.059l0.098,0.056l0.098,0.055l0.099,0.052l0.099,0.051l0.099,0.048l0.1,0.046l0.099,0.045l0.1,0.042l0.1,0.041l0.1,0.039l0.1,0.037l0.101,0.035l0.1,0.033l0.101,0.032l0.1,0.03l0.1,0.029l0.1,0.026l0.1,0.026l0.1,0.023l0.1,0.022l0.1,0.021l0.099,0.019l0.099,0.018l0.098,0.016l0.099,0.015l0.098,0.014l0.097,0.012l0.097,0.011l0.097,0.01l0.096,0.009l0.096,0.007l0.095,0.007l0.094,0.005l0.094,0.004l0.093,0.003l0.093,0.003l0.092,0.001l0.091,0l0.09,0l0.089,-0.002l0.089,-0.002l0.088,-0.003l0.086,-0.004l0.086,-0.005l0.085,-0.005l0.084,-0.006l0.083,-0.007l0.082,-0.007l0.08,-0.008l0.08,-0.008l0.078,-0.009l0.078,-0.009l0.076,-0.01l0.148,-0.02l0.143,-0.022l0.137,-0.024l0.132,-0.024l0.125,-0.024l0.119,-0.025l0.113,-0.025l0.106,-0.025l0.099,-0.024l0.092,-0.023l0.084,-0.023l0.076,-0.021l0.069,-0.02l0.06,-0.018l0.094,-0.03l0.058,-0.019l0.02,-0.007l0.011,0.019l0.035,0.053l0.058,0.084l0.038,0.054l0.043,0.06l0.048,0.067l0.054,0.073l0.06,0.079l0.065,0.084l0.071,0.09l0.076,0.094l0.081,0.098l0.087,0.103l0.092,0.106l0.097,0.11l0.102,0.113l0.108,0.115l0.055,0.058l0.057,0.059l0.059,0.06l0.059,0.06l0.061,0.06l0.062,0.061l0.063,0.061l0.065,0.061l0.065,0.061l0.068,0.062l0.068,0.062l0.069,0.061l0.071,0.062l0.072,0.062l0.073,0.062l0.074,0.061l0.076,0.062l0.077,0.061l0.078,0.061l0.079,0.061l0.08,0.061l0.082,0.06l0.082,0.059l0.084,0.06l0.085,0.058l0.086,0.059l0.088,0.057l0.088,0.057l0.09,0.056l0.091,0.056l0.092,0.055l0.093,0.054l0.094,0.053l0.095,0.052l0.097,0.051l0.097,0.051l0.099,0.049l0.1,0.048l0.101,0.047l0.102,0.046l0.103,0.045l0.104,0.043l0.105,0.042l0.106,0.041l0.108,0.039l0.108,0.038l0.11,0.037l0.11,0.035l0.112,0.033l0.113,0.032l0.114,0.03l0.114,0.028l0.116,0.027l0.117,0.025l0.118,0.023l0.119,0.021l0.12,0.019l0.121,0.018l0.122,0.015l0.123,0.013l0.124,0.011l0.125,0.009l0.062,0.004l0.063,0.003l0.064,0.002l0.063,0.002l0.064,0.002l0.064,0.001l0.065,0l0.064,-0.001l0.065,-0.001l0.065,-0.001l0.065,-0.002l0.066,-0.003l0.066,-0.003l0.066,-0.004l0.066,-0.005l0.066,-0.005l0.067,-0.006l0.067,-0.006l0.067,-0.008l0.068,-0.007l0.067,-0.009l0.068,-0.009l0.068,-0.01l0.069,-0.01l0.068,-0.012l0.069,-0.011l0.069,-0.013l0.069,-0.013l0.07,-0.014l0.07,-0.015l0.07,-0.015l0.07,-0.016l0.07,-0.017l0.071,-0.018l0.071,-0.018l0.071,-0.019l0.071,-0.02l0.072,-0.02l0.072,-0.021l0.072,-0.023l0.072,-0.022l0.072,-0.024l0.073,-0.024l0.073,-0.025l0.073,-0.026l0.074,-0.027l0.073,-0.028l0.074,-0.028l0.074,-0.029l0.074,-0.03l0.075,-0.031l0.074,-0.032l0.061,-0.026l0.062,-0.029l0.061,-0.029l0.063,-0.031l0.063,-0.032l0.063,-0.034l0.064,-0.034l0.065,-0.036l0.065,-0.037l0.065,-0.038l0.066,-0.039l0.066,-0.041l0.066,-0.041l0.067,-0.042l0.066,-0.043l0.068,-0.044l0.135,-0.091l0.136,-0.093l0.136,-0.097l0.137,-0.098l0.137,-0.101l0.137,-0.103l0.137,-0.104l0.136,-0.105l0.137,-0.106l0.135,-0.106l0.134,-0.107l0.134,-0.107l0.263,-0.211l0.256,-0.208l0.249,-0.201l0.238,-0.191l0.116,-0.092l0.113,-0.088l0.109,-0.085l0.106,-0.081l0.12,0.129l0.121,0.126l0.122,0.124l0.123,0.123l0.124,0.12l0.124,0.118l0.126,0.116l0.127,0.115l0.128,0.112l0.129,0.11l0.129,0.108l0.131,0.106l0.132,0.104l0.132,0.102l0.134,0.1l0.134,0.098l0.136,0.096l0.136,0.094l0.137,0.092l0.139,0.09l0.139,0.089l0.14,0.086l0.141,0.084l0.142,0.082l0.143,0.081l0.144,0.078l0.145,0.076l0.145,0.075l0.147,0.073l0.148,0.07l0.148,0.069l0.149,0.067l0.151,0.065l0.151,0.063l0.152,0.061l0.153,0.059l0.154,0.057l0.155,0.056l0.156,0.053l0.156,0.052l0.158,0.05l0.158,0.048l0.16,0.046l0.16,0.044l0.161,0.042l0.162,0.041l0.163,0.038l0.163,0.037l0.165,0.035l0.165,0.033l0.167,0.032l0.167,0.029l0.168,0.028l0.169,0.026l0.17,0.024l0.17,0.022l0.172,0.021l0.172,0.018l0.174,0.017l0.174,0.016l0.175,0.013l0.175,0.012l0.177,0.009l0.177,0.009l-0.137,-0.098l-0.135,-0.098l-0.134,-0.1l-0.132,-0.1l-0.13,-0.102l-0.129,-0.103l-0.127,-0.104l-0.126,-0.105l-0.124,-0.106l-0.122,-0.107l-0.121,-0.108l-0.12,-0.109l-0.117,-0.11l-0.116,-0.112l-0.115,-0.112l-0.113,-0.113l-0.112,-0.115l-0.11,-0.115l-0.108,-0.116l-0.107,-0.118l-0.106,-0.118l-0.104,-0.119l-0.102,-0.121l-0.101,-0.121l-0.1,-0.122l-0.098,-0.124l-0.097,-0.124l-0.095,-0.125l-0.094,-0.126l-0.092,-0.127l-0.091,-0.129l-0.089,-0.129l-0.089,-0.129l-0.086,-0.131l-0.086,-0.132l-0.084,-0.133l-0.082,-0.133l-0.082,-0.135l-0.079,-0.135l-0.079,-0.137l-0.077,-0.137l-0.076,-0.138l-0.075,-0.139l-0.073,-0.14l-0.072,-0.14l-0.071,-0.142l-0.069,-0.142l-0.068,-0.144l-0.067,-0.144l-0.066,-0.145l-0.064,-0.146l-0.063,-0.146l-0.062,-0.148l-0.06,-0.148l-0.06,-0.149l-0.058,-0.15l-0.057,-0.151l-0.056,-0.151l-0.054,-0.152l-0.054,-0.154l-0.052,-0.153l-0.051,-0.155l-0.05,-0.155l-0.049,-0.157l0.067,-0.098l0.066,-0.099l0.065,-0.099l0.065,-0.101l0.064,-0.1l0.064,-0.101l0.063,-0.102l0.062,-0.102l0.062,-0.102l0.061,-0.103l0.06,-0.103l0.06,-0.104l0.059,-0.105l0.058,-0.104l0.057,-0.105l0.057,-0.106l0.057,-0.106l0.055,-0.106l0.055,-0.107l0.054,-0.107l0.053,-0.107l0.053,-0.108l0.052,-0.108l0.051,-0.108l0.05,-0.109l0.05,-0.109l0.049,-0.109l0.048,-0.11l0.047,-0.109l0.047,-0.11l0.046,-0.111l0.045,-0.11l0.044,-0.111l0.043,-0.111l0.043,-0.111l0.042,-0.112l0.041,-0.111l0.04,-0.112l0.039,-0.112l0.039,-0.112l0.037,-0.113l0.037,-0.112l0.036,-0.113l0.035,-0.112l0.035,-0.113l0.033,-0.113l0.033,-0.113l0.031,-0.113l0.031,-0.113l0.03,-0.113l0.029,-0.114l0.028,-0.113l0.027,-0.113l0.026,-0.114l0.025,-0.113l0.025,-0.113l0.023,-0.114l0.023,-0.113l0.021,-0.113l0.021,-0.113l0.02,-0.114l0.018,-0.113l0.018,-0.113l0.017,-0.113l0.015,-0.113l0.015,-0.113l0.014,-0.112l0.013,-0.113l0.012,-0.112l0.01,-0.113l0.01,-0.112l0.009,-0.112l0.007,-0.112l0.007,-0.111l0.006,-0.112l0.004,-0.111l0.004,-0.111l0.002,-0.111l0.002,-0.111l0,-0.11l-0.001,-0.11l-0.001,-0.11l-0.003,-0.109l-0.004,-0.11l-0.005,-0.109l-0.007,-0.109l-0.007,-0.108l-0.008,-0.108l-0.01,-0.108l-0.011,-0.107l-0.011,-0.107l-0.013,-0.107l-0.014,-0.106l-0.016,-0.106l-0.016,-0.106l-0.018,-0.105l-0.018,-0.105l-0.02,-0.104l-0.021,-0.104l-0.023,-0.104l-0.023,-0.103l-0.025,-0.102l-0.026,-0.102l-0.027,-0.102l-0.028,-0.101l-0.03,-0.101l-0.03,-0.1l-0.032,-0.1l-0.033,-0.099l-0.035,-0.098l-0.036,-0.098l-0.037,-0.098l-0.038,-0.096l-0.039,-0.097l-0.041,-0.095l-0.042,-0.096l-0.044,-0.094l-0.044,-0.094l-0.046,-0.093l-0.047,-0.093l-0.049,-0.092l-0.05,-0.091l-0.051,-0.091l-0.052,-0.089l-0.054,-0.09l-0.056,-0.088l-0.056,-0.088l-0.058,-0.087l-0.083,-0.121l-0.083,-0.118l-0.084,-0.116l-0.086,-0.113l-0.086,-0.111l-0.087,-0.109l-0.087,-0.107l-0.089,-0.105l-0.089,-0.102l-0.09,-0.1l-0.09,-0.098l-0.091,-0.096l-0.092,-0.094l-0.093,-0.091l-0.093,-0.09l-0.093,-0.087l-0.094,-0.086l-0.095,-0.083l-0.095,-0.082l-0.096,-0.08l-0.096,-0.077l-0.096,-0.076l-0.097,-0.074l-0.097,-0.072l-0.098,-0.07l-0.098,-0.068l-0.098,-0.067l-0.098,-0.065l-0.099,-0.063l-0.099,-0.061l-0.099,-0.06l-0.099,-0.057l-0.099,-0.057l-0.1,-0.054l-0.099,-0.053l-0.1,-0.052l-0.1,-0.049l-0.099,-0.049l-0.1,-0.046l-0.1,-0.046l-0.099,-0.043l-0.1,-0.043l-0.099,-0.04l-0.099,-0.04l-0.1,-0.038l-0.099,-0.036l-0.098,-0.036l-0.099,-0.034l-0.098,-0.032l-0.098,-0.032l-0.098,-0.03l-0.097,-0.029l-0.098,-0.027l-0.096,-0.027l-0.097,-0.025l-0.095,-0.024l-0.096,-0.023l-0.095,-0.022l-0.094,-0.021l-0.094,-0.02l-0.094,-0.018l-0.092,-0.018l-0.093,-0.017l-0.091,-0.015l-0.091,-0.015l-0.091,-0.014l-0.089,-0.013l-0.089,-0.012l-0.088,-0.011l-0.088,-0.01l-0.086,-0.01l-0.086,-0.009l-0.085,-0.008l-0.084,-0.007l-0.083,-0.006l-0.083,-0.006l-0.081,-0.005l-0.08,-0.005l-0.08,-0.003l-0.078,-0.004l-0.154,-0.004l-0.149,-0.003l-0.145,0l-0.14,0.002l-0.136,0.003l-0.13,0.004l-0.124,0.006l-0.12,0.007l-0.113,0.008l-0.108,0.009l-0.101,0.01l-0.096,0.009l-0.088,0.01l-0.082,0.01l-0.076,0.01l-0.068,0.01l-0.114,0.018l-0.083,0.014l-0.052,0.01l-0.017,0.004l-0.015,-0.017l-0.043,-0.049l-0.072,-0.079l-0.046,-0.049l-0.053,-0.056l-0.06,-0.061l-0.066,-0.068l-0.073,-0.072l-0.078,-0.078l-0.086,-0.082l-0.091,-0.087l-0.097,-0.09l-0.104,-0.094l-0.109,-0.098l-0.115,-0.1l-0.121,-0.103l-0.126,-0.105l-0.131,-0.107l-0.137,-0.109l-0.071,-0.054l-0.072,-0.055l-0.073,-0.056l-0.074,-0.055l-0.076,-0.056l-0.077,-0.055l-0.078,-0.056l-0.079,-0.056l-0.081,-0.055l-0.082,-0.056l-0.083,-0.056l-0.084,-0.055l-0.085,-0.055l-0.087,-0.055l-0.088,-0.055l-0.088,-0.054l-0.09,-0.054l-0.091,-0.053l-0.093,-0.053l-0.093,-0.053l-0.094,-0.052l-0.095,-0.051l-0.097,-0.051l-0.097,-0.05l-0.099,-0.049l-0.099,-0.049l-0.101,-0.048l-0.101,-0.047l-0.103,-0.046l-0.103,-0.045l-0.105,-0.045l-0.105,-0.043l-0.106,-0.042l-0.107,-0.041l-0.108,-0.04l-0.109,-0.039l-0.11,-0.037l-0.111,-0.037l-0.111,-0.035l-0.113,-0.033l-0.113,-0.032l-0.114,-0.031l-0.115,-0.03l-0.115,-0.027l-0.117,-0.027l-0.117,-0.024l-0.118,-0.023l-0.119,-0.021l-0.119,-0.02l-0.12,-0.018l-0.121,-0.016l-0.122,-0.014l-0.122,-0.012l-0.123,-0.01l-0.123,-0.009l-0.124,-0.006l-0.125,-0.004l-0.126,-0.002l-0.126,0Z" style="fill:#fff;"/><path d="M62.643,47.38c0,0 -7.572,1.562 -13.559,-2.603" style="fill:none;stroke:#fff;stroke-width:2.25px;"/><path d="M63.393,35.11c0,0 5.722,1.956 13.626,-2.395" style="fill:none;stroke:#fff;stroke-width:2.25px;"/><rect x="61.923" y="12.632" width="2.8" height="58.65" style="fill:#fff;"/><path d="M29.548,38.31l0.227,0.036l0.297,0.048l0.538,0.089l0.244,0.04l0.227,0.036l0.213,0.034l0.199,0.03l0.186,0.027l0.089,0.012l0.085,0.011l0.083,0.009l0.081,0.009l0.078,0.008l0.075,0.007l0.074,0.006l0.071,0.005l0.069,0.004l0.068,0.003l0.066,0.002l0.064,0l0.063,0l0.062,-0.001l0.061,-0.003l0.06,-0.003l0.059,-0.004l0.059,-0.006l0.058,-0.007l0.059,-0.007l0.059,-0.009l0.012,-0.002l0.047,-0.008l0.059,-0.011l0.061,-0.012l0.061,-0.013l0.062,-0.014l0.064,-0.016l0.065,-0.017l0.067,-0.018l0.069,-0.02l0.07,-0.022l0.073,-0.022l0.074,-0.025l0.078,-0.025l0.079,-0.028l0.082,-0.029l0.085,-0.03l0.088,-0.032l0.185,-0.069l0.198,-0.076l0.212,-0.083l0.229,-0.087l0.094,-0.022l0.097,-0.006l0.097,0.011l0.093,0.027l0.088,0.043l0.079,0.058l0.068,0.07l0.117,0.133l0.117,0.127l0.118,0.125l0.116,0.122l0.117,0.119l0.116,0.117l0.116,0.115l0.116,0.112l0.115,0.11l0.115,0.107l0.115,0.105l0.022,0.019l0.09,0.086l0.111,0.103l0.11,0.101l0.111,0.098l0.11,0.096l0.11,0.094l0.11,0.091l0.109,0.089l0.109,0.087l0.109,0.084l0.108,0.082l0.109,0.08l0.108,0.077l0.107,0.075l0.108,0.073l0.107,0.071l0.107,0.068l0.106,0.066l0.106,0.064l0.106,0.062l0.105,0.06l0.106,0.057l0.104,0.055l0.105,0.053l0.104,0.051l0.104,0.049l0.104,0.047l0.103,0.045l0.103,0.042l0.102,0.041l0.002,0.001l0.1,0.038l0.102,0.038l0.101,0.035l0.101,0.033l0.101,0.032l0.1,0.03l0.101,0.027l0.1,0.026l0.099,0.024l0.1,0.022l0.099,0.02l0.099,0.018l0.099,0.017l0.099,0.015l0.098,0.013l0.099,0.011l0.098,0.009l0.098,0.008l0.098,0.005l0.098,0.005l0.098,0.002l0.098,0.001l0.098,-0.002l0.097,-0.002l0.03,-0.002l0.068,-0.002l0.098,-0.005l0.097,-0.007l0.098,-0.008l0.098,-0.01l0.098,-0.012l0.098,-0.013l0.099,-0.015l0.098,-0.017l0.098,-0.019l0.099,-0.02l0.099,-0.022l0.099,-0.024l0.099,-0.025l0.099,-0.027l0.1,-0.029l0.099,-0.03l0.1,-0.032l0.1,-0.034l0.095,-0.034l0.006,-0.002l0.101,-0.035l0.101,-0.038l0.102,-0.039l0.102,-0.04l0.102,-0.043l0.102,-0.044l0.103,-0.046l0.103,-0.048l0.103,-0.05l0.104,-0.051l0.103,-0.053l0.104,-0.055l0.104,-0.056l0.105,-0.058l0.105,-0.06l0.105,-0.062l0.105,-0.064l0.105,-0.065l0.106,-0.067l0.106,-0.068l0.106,-0.071l0.106,-0.072l0.107,-0.074l0.106,-0.076l0.107,-0.077l0.107,-0.079l0.108,-0.081l0.107,-0.082l0.108,-0.084l0.108,-0.086l0.108,-0.088l0.108,-0.089l0.108,-0.091l0.109,-0.093l0.109,-0.094l0.109,-0.097l0.109,-0.097l0.109,-0.1l0.109,-0.101l0.11,-0.102l0.109,-0.105l0.11,-0.106l0.103,-0.1l0.015,-0.035l0.019,-0.043l0.022,-0.045l0.027,-0.051l0.034,-0.059l0.046,-0.07l0.067,-0.085l0.088,-0.089l0.085,-0.068l0.092,-0.059l0.116,-0.056l0.141,-0.045l0.164,-0.024l0.174,0.005l0.168,0.037l0.15,0.061l0.123,0.074l0.076,0.062l0.16,0.148l0.139,0.127l0.139,0.126l0.139,0.125l0.139,0.124l0.139,0.123l0.138,0.121l0.139,0.121l0.138,0.119l0.139,0.118l0.138,0.116l0.138,0.115l0.138,0.114l0.138,0.112l0.138,0.111l0.137,0.109l0.138,0.107l0.137,0.106l0.137,0.104l0.137,0.102l0.137,0.1l0.137,0.099l0.136,0.097l0.137,0.094l0.136,0.093l0.136,0.091l0.135,0.088l0.136,0.087l0.135,0.084l0.135,0.082l0.135,0.08l0.134,0.078l0.134,0.075l0.134,0.073l0.134,0.07l0.134,0.069l0.065,0.033l0.067,0.032l0.066,0.032l0.066,0.031l0.066,0.031l0.067,0.03l0.01,0.004l-0.074,-0.08l-0.114,-0.127l-0.112,-0.129l-0.11,-0.13l-0.059,-0.073l-0.048,-0.059l-0.106,-0.133l-0.103,-0.134l-0.101,-0.135l-0.1,-0.137l-0.097,-0.137l-0.096,-0.139l-0.093,-0.14l-0.092,-0.14l-0.09,-0.142l-0.087,-0.143l-0.086,-0.144l-0.084,-0.145l-0.083,-0.146l-0.08,-0.147l-0.079,-0.148l-0.077,-0.149l-0.075,-0.15l-0.073,-0.151l-0.071,-0.151l-0.07,-0.153l-0.068,-0.154l-0.007,-0.014l-0.059,-0.14l-0.064,-0.156l-0.063,-0.156l-0.06,-0.157l-0.059,-0.158l-0.058,-0.159l-0.056,-0.16l-0.054,-0.16l-0.053,-0.161l-0.051,-0.162l-0.05,-0.162l-0.048,-0.164l-0.047,-0.164l-0.045,-0.165l-0.044,-0.165l-0.043,-0.166l-0.041,-0.167l-0.025,-0.104l-0.014,-0.06l-0.02,-0.128l0,-0.129l0.021,-0.127l0.042,-0.122l0.061,-0.113l0.079,-0.102l0.056,-0.057l0.053,-0.056l0.053,-0.056l0.052,-0.056l0.053,-0.057l0.051,-0.056l0.051,-0.058l0.051,-0.057l0.051,-0.058l0.049,-0.059l0.05,-0.059l0.049,-0.059l0.049,-0.059l0.048,-0.06l0.048,-0.06l0.047,-0.061l0.047,-0.061l0.046,-0.061l0.046,-0.062l0.027,-0.037l0.019,-0.025l0.046,-0.062l0.046,-0.062l0.045,-0.063l0.045,-0.063l0.044,-0.064l0.044,-0.063l0.044,-0.065l0.043,-0.064l0.042,-0.066l0.042,-0.065l0.042,-0.066l0.042,-0.066l0.04,-0.067l0.041,-0.067l0.04,-0.068l0.039,-0.068l0.04,-0.069l0.038,-0.069l0.039,-0.069l0.037,-0.07l0.038,-0.07l0.037,-0.07l0.015,-0.029l0.022,-0.042l0.037,-0.071l0.036,-0.072l0.036,-0.072l0.036,-0.072l0.035,-0.073l0.035,-0.074l0.034,-0.073l0.034,-0.075l0.033,-0.074l0.033,-0.076l0.032,-0.075l0.032,-0.076l0.032,-0.077l0.031,-0.077l0.031,-0.078l0.03,-0.078l0.029,-0.078l0.03,-0.079l0.028,-0.08l0.029,-0.08l0.028,-0.08l0.027,-0.081l0.027,-0.081l0.026,-0.082l0.026,-0.082l0.026,-0.083l0.025,-0.083l0.025,-0.084l0.024,-0.084l0.023,-0.085l0.023,-0.085l0.023,-0.086l0.022,-0.086l0.022,-0.087l0.021,-0.087l0.021,-0.088l0.02,-0.088l0.019,-0.089l0.02,-0.089l0.018,-0.09l0.019,-0.09l0.017,-0.091l0.016,-0.083l0.002,-0.008l0.017,-0.091l0.017,-0.093l0.017,-0.092l0.016,-0.093l0.016,-0.094l0.015,-0.094l0.014,-0.095l0.015,-0.095l0.013,-0.096l0.013,-0.096l0.013,-0.097l0.012,-0.097l0.011,-0.098l0.011,-0.098l0.011,-0.099l0.01,-0.099l0.009,-0.1l0.009,-0.101l0.009,-0.101l0.008,-0.101l0.007,-0.102l0.007,-0.103l0.006,-0.103l0.006,-0.103l0.005,-0.105l0.005,-0.104l0.007,-0.211l0.006,-0.213l0.003,-0.215l0.002,-0.217l-0.001,-0.22l-0.004,-0.221l-0.005,-0.224l-0.008,-0.226l-0.006,-0.182l0.154,-0.015l0.155,-0.015l0.065,0.405l0.034,0.224l0.032,0.224l0.03,0.221l0.026,0.221l0.025,0.218l0.022,0.218l0.019,0.215l0.009,0.108l0.008,0.107l0.008,0.106l0.007,0.107l0.007,0.106l0.005,0.105l0.006,0.105l0.004,0.105l0.004,0.105l0.004,0.104l0.002,0.104l0.003,0.103l0.001,0.103l0.001,0.103l0.001,0.102l-0.001,0.102l0,0.102l-0.002,0.101l-0.002,0.101l-0.002,0.101l-0.004,0.1l-0.004,0.1l-0.004,0.1l-0.005,0.099l-0.006,0.099l-0.006,0.099l0,0.008l-0.008,0.09l-0.008,0.098l-0.009,0.097l-0.009,0.097l-0.011,0.097l-0.01,0.096l-0.012,0.096l-0.012,0.096l-0.012,0.095l-0.013,0.095l-0.014,0.095l-0.014,0.094l-0.015,0.094l-0.016,0.094l-0.016,0.093l-0.016,0.093l-0.018,0.092l-0.018,0.092l-0.018,0.092l-0.019,0.092l-0.02,0.091l-0.02,0.091l-0.021,0.09l-0.021,0.09l-0.022,0.09l-0.023,0.09l-0.023,0.089l-0.024,0.089l-0.024,0.088l-0.025,0.088l-0.025,0.088l-0.027,0.087l-0.026,0.087l-0.027,0.087l-0.028,0.086l-0.029,0.086l-0.029,0.086l-0.029,0.085l-0.031,0.085l-0.03,0.085l-0.032,0.084l-0.032,0.084l-0.032,0.084l-0.02,0.049l-0.014,0.034l-0.034,0.082l-0.035,0.083l-0.036,0.081l-0.036,0.082l-0.037,0.081l-0.038,0.081l-0.038,0.08l-0.038,0.08l-0.039,0.08l-0.04,0.079l-0.04,0.079l-0.041,0.078l-0.041,0.079l-0.042,0.077l-0.043,0.078l-0.043,0.077l-0.043,0.077l-0.045,0.076l-0.044,0.076l-0.046,0.076l-0.045,0.075l-0.047,0.075l-0.019,0.031l-0.028,0.043l-0.049,0.074l-0.048,0.073l-0.05,0.073l-0.05,0.072l-0.05,0.072l-0.051,0.072l-0.052,0.071l-0.052,0.071l-0.053,0.071l-0.053,0.07l-0.053,0.07l-0.055,0.069l-0.054,0.069l-0.05,0.062l0.023,0.081l0.045,0.15l0.047,0.149l0.047,0.149l0.048,0.147l0.05,0.146l0.051,0.145l0.053,0.145l0.053,0.143l0.055,0.142l0.056,0.141l0.058,0.14l0.058,0.139l0.06,0.138l0.062,0.136l0.057,0.123l0.005,0.013l0.064,0.135l0.064,0.134l0.067,0.133l0.067,0.131l0.069,0.131l0.07,0.129l0.072,0.129l0.073,0.127l0.075,0.126l0.076,0.125l0.078,0.124l0.079,0.123l0.08,0.122l0.083,0.12l0.083,0.12l0.085,0.118l0.087,0.117l0.089,0.116l0.089,0.115l0.092,0.113l0.093,0.113l0.043,0.05l0.052,0.062l0.096,0.11l0.097,0.11l0.1,0.108l0.101,0.107l0.103,0.106l0.106,0.107l0.051,0.051l0.054,0.051l0.054,0.052l0.054,0.051l0.055,0.051l0.055,0.05l0.056,0.051l0.056,0.05l0.057,0.049l0.057,0.05l0.057,0.049l0.058,0.049l0.059,0.048l0.059,0.049l0.059,0.048l0.06,0.047l0.061,0.048l0.061,0.047l0.061,0.047l0.062,0.046l0.063,0.046l0.062,0.046l0.064,0.046l0.064,0.045l0.064,0.045l0.065,0.045l0.066,0.044l0.066,0.044l0.066,0.044l0.067,0.043l0.068,0.043l0.068,0.043l0.068,0.043l0.07,0.042l0.069,0.042l0.073,0.043l0.121,0.087l0.104,0.106l0.085,0.122l0.064,0.134l0.041,0.144l0.016,0.148l-0.008,0.148l-0.034,0.145l-0.056,0.138l-0.079,0.126l-0.099,0.111l-0.116,0.093l-0.13,0.073l-0.14,0.05l-0.147,0.026l-0.079,0.008l-0.085,0.007l-0.084,0.006l-0.085,0.005l-0.084,0.004l-0.084,0.003l-0.085,0.002l-0.084,0.001l-0.084,0l-0.084,-0.001l-0.084,-0.002l-0.084,-0.003l-0.084,-0.004l-0.084,-0.006l-0.084,-0.006l-0.083,-0.007l-0.083,-0.008l-0.084,-0.008l-0.083,-0.01l-0.083,-0.011l-0.083,-0.012l-0.083,-0.012l-0.083,-0.014l-0.082,-0.014l-0.083,-0.015l-0.082,-0.016l-0.082,-0.017l-0.082,-0.018l-0.082,-0.019l-0.082,-0.019l-0.081,-0.021l-0.082,-0.021l-0.081,-0.022l-0.081,-0.022l-0.081,-0.024l-0.081,-0.024l-0.081,-0.025l-0.081,-0.026l-0.08,-0.027l-0.081,-0.027l-0.08,-0.028l-0.08,-0.029l-0.08,-0.029l-0.08,-0.031l-0.079,-0.031l-0.08,-0.031l-0.079,-0.032l-0.079,-0.033l-0.069,-0.029l-0.011,-0.005l-0.078,-0.035l-0.079,-0.035l-0.079,-0.036l-0.078,-0.036l-0.079,-0.037l-0.078,-0.038l-0.079,-0.039l-0.155,-0.078l-0.155,-0.081l-0.155,-0.083l-0.154,-0.085l-0.154,-0.088l-0.154,-0.09l-0.153,-0.092l-0.152,-0.094l-0.153,-0.095l-0.151,-0.098l-0.152,-0.1l-0.151,-0.102l-0.151,-0.103l-0.15,-0.105l-0.15,-0.107l-0.15,-0.108l-0.149,-0.11l-0.149,-0.112l-0.149,-0.113l-0.148,-0.114l-0.148,-0.116l-0.148,-0.117l-0.147,-0.119l-0.148,-0.12l-0.147,-0.121l-0.146,-0.122l-0.147,-0.123l-0.146,-0.125l-0.146,-0.125l-0.146,-0.126l-0.145,-0.128l-0.001,0l-0.003,0.003l-0.119,0.113l-0.12,0.113l-0.12,0.11l-0.12,0.109l-0.12,0.107l-0.12,0.106l-0.12,0.104l-0.12,0.103l-0.121,0.101l-0.12,0.1l-0.121,0.097l-0.121,0.097l-0.121,0.094l-0.121,0.093l-0.122,0.091l-0.121,0.09l-0.122,0.088l-0.122,0.086l-0.122,0.085l-0.122,0.082l-0.122,0.082l-0.123,0.079l-0.122,0.078l-0.123,0.076l-0.123,0.074l-0.124,0.072l-0.123,0.071l-0.124,0.069l-0.124,0.067l-0.124,0.065l-0.124,0.064l-0.125,0.061l-0.125,0.06l-0.125,0.058l-0.125,0.056l-0.126,0.054l-0.125,0.053l-0.126,0.05l-0.126,0.048l-0.127,0.047l-0.126,0.044l-0.007,0.002l-0.121,0.039l-0.127,0.039l-0.128,0.037l-0.128,0.034l-0.128,0.033l-0.128,0.031l-0.128,0.028l-0.128,0.027l-0.129,0.024l-0.129,0.022l-0.128,0.02l-0.129,0.018l-0.129,0.016l-0.129,0.013l-0.129,0.012l-0.129,0.009l-0.129,0.007l-0.13,0.004l-0.129,0.003l-0.09,0l-0.039,0l-0.129,-0.004l-0.129,-0.005l-0.129,-0.008l-0.129,-0.01l-0.128,-0.012l-0.129,-0.015l-0.128,-0.017l-0.129,-0.019l-0.128,-0.022l-0.128,-0.024l-0.127,-0.026l-0.128,-0.028l-0.127,-0.031l-0.127,-0.033l-0.126,-0.035l-0.127,-0.038l-0.126,-0.04l-0.126,-0.042l-0.125,-0.044l-0.126,-0.047l-0.124,-0.049l-0.125,-0.051l-0.124,-0.054l-0.122,-0.054l-0.002,-0.001l-0.123,-0.059l-0.123,-0.061l-0.123,-0.064l-0.122,-0.065l-0.121,-0.068l-0.122,-0.07l-0.121,-0.072l-0.12,-0.075l-0.12,-0.076l-0.12,-0.079l-0.12,-0.081l-0.119,-0.084l-0.118,-0.085l-0.119,-0.088l-0.118,-0.09l-0.117,-0.092l-0.118,-0.094l-0.117,-0.097l-0.116,-0.099l-0.117,-0.101l-0.116,-0.103l-0.115,-0.105l-0.115,-0.108l-0.115,-0.11l-0.115,-0.112l-0.115,-0.114l-0.114,-0.117l-0.113,-0.119l-0.114,-0.121l-0.091,-0.099l-0.021,-0.024l-0.11,-0.129l-0.109,-0.131l-0.109,-0.133l-0.109,-0.135l-0.108,-0.138l-0.107,-0.14l-0.108,-0.142l-0.107,-0.144l-0.107,-0.147l-0.006,-0.008l-0.055,0.014l-0.214,0.052l-0.201,0.048l-0.097,0.022l-0.095,0.021l-0.092,0.02l-0.09,0.019l-0.088,0.017l-0.086,0.017l-0.085,0.015l-0.083,0.014l-0.082,0.013l-0.08,0.012l-0.08,0.01l-0.078,0.009l-0.078,0.008l-0.077,0.007l-0.076,0.005l-0.075,0.004l-0.059,0.002l-0.016,0l-0.075,0.001l-0.074,0l-0.074,-0.002l-0.074,-0.003l-0.074,-0.005l-0.074,-0.006l-0.074,-0.007l-0.075,-0.009l-0.075,-0.01l-0.075,-0.011l-0.076,-0.012l-0.076,-0.014l-0.078,-0.015l-0.078,-0.017l-0.079,-0.017l-0.081,-0.019l-0.083,-0.02l-0.084,-0.021l-0.085,-0.022l-0.088,-0.024l-0.09,-0.025l-0.187,-0.053l-0.197,-0.057l-0.209,-0.063l-0.222,-0.068l-0.236,-0.073l-0.521,-0.16l-0.286,-0.087l-0.22,-0.067l-0.087,-0.026l-0.159,-0.049l0.034,-0.151l0.035,-0.151l0.254,0.041Zm20.854,0.232l-0.067,-0.05l-0.009,-0.004l0.076,0.054Z" style="fill:#fff;fill-opacity:0.450913;"/></g><g><path d="M13.959,53.63c0.96,0 1.724,0.272 2.292,0.816c0.568,0.544 0.868,1.264 0.9,2.16l0,7.368l-2.232,0l0,-6.552c-0.048,-1.168 -0.576,-1.784 -1.584,-1.848c-0.576,0 -1.092,0.172 -1.548,0.516c-0.456,0.344 -0.812,0.796 -1.068,1.356c-0.256,0.56 -0.392,1.16 -0.408,1.8l0,4.728l-2.256,0l0,-6.552c-0.048,-1.168 -0.592,-1.784 -1.632,-1.848c-0.56,0 -1.068,0.172 -1.524,0.516c-0.456,0.344 -0.812,0.8 -1.068,1.368c-0.256,0.568 -0.384,1.172 -0.384,1.812l0,4.704l-2.232,0l0,-9.936l2.016,0l0.168,1.872c0.384,-0.72 0.908,-1.28 1.572,-1.68c0.664,-0.4 1.42,-0.6 2.268,-0.6c0.8,0 1.472,0.188 2.016,0.564c0.544,0.376 0.896,0.892 1.056,1.548c0.416,-0.656 0.944,-1.172 1.584,-1.548c0.64,-0.376 1.328,-0.564 2.064,-0.564Z" style="fill:#fff;fill-rule:nonzero;"/><path d="M23.247,54.038l0,9.936l-2.232,0l0,-9.936l2.232,0Zm-2.4,-3.576c0,-0.352 0.136,-0.648 0.408,-0.888c0.272,-0.24 0.584,-0.36 0.936,-0.36c0.352,0 0.66,0.12 0.924,0.36c0.264,0.24 0.396,0.536 0.396,0.888c0,0.352 -0.132,0.648 -0.396,0.888c-0.264,0.24 -0.572,0.36 -0.924,0.36c-0.352,0 -0.664,-0.12 -0.936,-0.36c-0.272,-0.24 -0.408,-0.536 -0.408,-0.888Z" style="fill:#fff;fill-rule:nonzero;"/><path d="M35.199,63.038c-0.448,0.368 -0.98,0.656 -1.596,0.864c-0.616,0.208 -1.244,0.312 -1.884,0.312c-1.072,0 -2.02,-0.216 -2.844,-0.648c-0.824,-0.432 -1.464,-1.044 -1.92,-1.836c-0.456,-0.792 -0.684,-1.708 -0.684,-2.748c0,-1.024 0.24,-1.932 0.72,-2.724c0.48,-0.792 1.12,-1.404 1.92,-1.836c0.8,-0.432 1.664,-0.648 2.592,-0.648c1.52,0 2.776,0.416 3.768,1.248l-1.128,1.464c-0.32,-0.24 -0.688,-0.444 -1.104,-0.612c-0.416,-0.168 -0.864,-0.252 -1.344,-0.252c-0.592,0 -1.132,0.148 -1.62,0.444c-0.488,0.296 -0.872,0.7 -1.152,1.212c-0.28,0.512 -0.42,1.08 -0.42,1.704c0,0.624 0.148,1.192 0.444,1.704c0.296,0.512 0.7,0.92 1.212,1.224c0.512,0.304 1.096,0.456 1.752,0.456c0.816,0 1.528,-0.24 2.136,-0.72l1.152,1.392Z" style="fill:#fff;fill-rule:nonzero;"/><path d="M40.239,56.39c0.256,-0.544 0.62,-1.024 1.092,-1.44c0.472,-0.416 0.972,-0.736 1.5,-0.96c0.528,-0.224 0.992,-0.344 1.392,-0.36l-0.096,2.232c-0.72,-0.032 -1.372,0.112 -1.956,0.432c-0.584,0.32 -1.04,0.764 -1.368,1.332c-0.328,0.568 -0.492,1.172 -0.492,1.812l0,4.536l-2.232,0l0,-9.936l1.992,0l0.168,2.352Z" style="fill:#fff;fill-rule:nonzero;"/><path d="M45.807,58.91c0,-0.976 0.236,-1.868 0.708,-2.676c0.472,-0.808 1.128,-1.444 1.968,-1.908c0.84,-0.464 1.788,-0.696 2.844,-0.696c1.056,0 1.996,0.232 2.82,0.696c0.824,0.464 1.464,1.096 1.92,1.896c0.456,0.8 0.684,1.696 0.684,2.688c0,0.992 -0.228,1.892 -0.684,2.7c-0.456,0.808 -1.1,1.444 -1.932,1.908c-0.832,0.464 -1.784,0.696 -2.856,0.696c-1.04,0 -1.976,-0.22 -2.808,-0.66c-0.832,-0.44 -1.484,-1.06 -1.956,-1.86c-0.472,-0.8 -0.708,-1.728 -0.708,-2.784Zm2.256,0.024c0,0.624 0.14,1.2 0.42,1.728c0.28,0.528 0.664,0.944 1.152,1.248c0.488,0.304 1.028,0.456 1.62,0.456c0.928,0 1.696,-0.328 2.304,-0.984c0.608,-0.656 0.912,-1.472 0.912,-2.448c0,-0.976 -0.304,-1.796 -0.912,-2.46c-0.608,-0.664 -1.376,-0.996 -2.304,-0.996c-0.608,0 -1.152,0.156 -1.632,0.468c-0.48,0.312 -0.86,0.732 -1.14,1.26c-0.28,0.528 -0.42,1.104 -0.42,1.728Z" style="fill:#fff;fill-rule:nonzero;"/><path d="M68.637,57.644c0,-1.22 0.295,-2.335 0.885,-3.345c0.59,-1.01 1.41,-1.805 2.46,-2.385c1.05,-0.58 2.235,-0.87 3.555,-0.87c1.32,0 2.495,0.29 3.525,0.87c1.03,0.58 1.83,1.37 2.4,2.37c0.57,1 0.855,2.12 0.855,3.36c0,1.24 -0.285,2.365 -0.855,3.375c-0.57,1.01 -1.375,1.805 -2.415,2.385c-1.04,0.58 -2.23,0.87 -3.57,0.87c-1.3,0 -2.47,-0.275 -3.51,-0.825c-1.04,-0.55 -1.855,-1.325 -2.445,-2.325c-0.59,-1 -0.885,-2.16 -0.885,-3.48Zm2.82,0.03c0,0.78 0.175,1.5 0.525,2.16c0.35,0.66 0.83,1.18 1.44,1.56c0.61,0.38 1.285,0.57 2.025,0.57c1.16,0 2.12,-0.41 2.88,-1.23c0.76,-0.82 1.14,-1.84 1.14,-3.06c0,-1.22 -0.38,-2.245 -1.14,-3.075c-0.76,-0.83 -1.72,-1.245 -2.88,-1.245c-0.76,0 -1.44,0.195 -2.04,0.585c-0.6,0.39 -1.075,0.915 -1.425,1.575c-0.35,0.66 -0.525,1.38 -0.525,2.16Z" style="fill:#fff;fill-rule:nonzero;"/><path d="M93.927,51.044c1.16,0 2.21,0.28 3.15,0.84c0.94,0.56 1.68,1.345 2.22,2.355c0.54,1.01 0.81,2.175 0.81,3.495c0,1.3 -0.29,2.445 -0.87,3.435c-0.58,0.99 -1.38,1.755 -2.4,2.295c-1.02,0.54 -2.16,0.81 -3.42,0.81c-0.9,0 -1.76,-0.195 -2.58,-0.585c-0.82,-0.39 -1.48,-0.915 -1.98,-1.575l0,7.83l-2.79,0l0,-18.6l2.43,0l0.24,2.1c0.64,-0.72 1.405,-1.3 2.295,-1.74c0.89,-0.44 1.855,-0.66 2.895,-0.66Zm-1.05,10.98c0.78,0 1.505,-0.185 2.175,-0.555c0.67,-0.37 1.205,-0.88 1.605,-1.53c0.4,-0.65 0.6,-1.375 0.6,-2.175c0,-0.82 -0.185,-1.56 -0.555,-2.22c-0.37,-0.66 -0.875,-1.18 -1.515,-1.56c-0.64,-0.38 -1.35,-0.57 -2.13,-0.57c-1.06,0 -1.965,0.295 -2.715,0.885c-0.75,0.59 -1.245,1.385 -1.485,2.385l0,2.07c0.16,0.96 0.615,1.745 1.365,2.355c0.75,0.61 1.635,0.915 2.655,0.915Z" style="fill:#fff;fill-rule:nonzero;"/><path d="M109.677,61.874c1.04,0 2.05,-0.36 3.03,-1.08l1.29,2.07c-0.66,0.44 -1.375,0.785 -2.145,1.035c-0.77,0.25 -1.515,0.375 -2.235,0.375c-1.38,0 -2.585,-0.285 -3.615,-0.855c-1.03,-0.57 -1.825,-1.355 -2.385,-2.355c-0.56,-1 -0.84,-2.13 -0.84,-3.39c0,-1.22 0.305,-2.335 0.915,-3.345c0.61,-1.01 1.445,-1.81 2.505,-2.4c1.06,-0.59 2.22,-0.885 3.48,-0.885c1.62,0 2.975,0.475 4.065,1.425c1.09,0.95 1.835,2.275 2.235,3.975l-9.84,3.45c0.36,0.62 0.845,1.105 1.455,1.455c0.61,0.35 1.305,0.525 2.085,0.525Zm-0.21,-8.61c-1.14,0 -2.08,0.4 -2.82,1.2c-0.74,0.8 -1.11,1.82 -1.11,3.06c0,0.3 0.01,0.53 0.03,0.69l7.23,-2.67c-0.3,-0.68 -0.725,-1.23 -1.275,-1.65c-0.55,-0.42 -1.235,-0.63 -2.055,-0.63Zm0.99,-4.08l-1.8,0l2.49,-4.02l3.12,0l-3.81,4.02Z" style="fill:#fff;fill-rule:nonzero;"/><rect x="62.051" y="43.864" width="2.6" height="27.365" style="fill:#fff;"/><path d="M77.542,71.24l-13.826,0.018l-0.003,-2.625l13.825,-0.018l0.004,2.625Z" style="fill:#fff;"/></g></g></svg>