<?xml version="1.0" encoding="UTF-8" standalone="no"?><!DOCTYPE svg PUBLIC "-//W3C//DTD SVG 1.1//EN" "http://www.w3.org/Graphics/SVG/1.1/DTD/svg11.dtd"><svg width="100%" height="100%" viewBox="0 0 165 129" version="1.1" xmlns="http://www.w3.org/2000/svg" xmlns:xlink="http://www.w3.org/1999/xlink" xml:space="preserve" xmlns:serif="http://www.serif.com/" style="fill-rule:evenodd;clip-rule:evenodd;stroke-linejoin:round;stroke-miterlimit:1.41421;"><g><path d="M33.431,75.68c0.96,0 1.724,0.272 2.292,0.816c0.568,0.544 0.868,1.264 0.9,2.16l0,7.368l-2.232,0l0,-6.552c-0.048,-1.168 -0.576,-1.784 -1.584,-1.848c-0.576,0 -1.092,0.172 -1.548,0.516c-0.456,0.344 -0.812,0.796 -1.068,1.356c-0.256,0.56 -0.392,1.16 -0.408,1.8l0,4.728l-2.256,0l0,-6.552c-0.048,-1.168 -0.592,-1.784 -1.632,-1.848c-0.56,0 -1.068,0.172 -1.524,0.516c-0.456,0.344 -0.812,0.8 -1.068,1.368c-0.256,0.568 -0.384,1.172 -0.384,1.812l0,4.704l-2.232,0l0,-9.936l2.016,0l0.168,1.872c0.384,-0.72 0.908,-1.28 1.572,-1.68c0.664,-0.4 1.42,-0.6 2.268,-0.6c0.8,0 1.472,0.188 2.016,0.564c0.544,0.376 0.896,0.892 1.056,1.548c0.416,-0.656 0.944,-1.172 1.584,-1.548c0.64,-0.376 1.328,-0.564 2.064,-0.564Z" style="fill:#fff;fill-rule:nonzero;"/><path d="M42.719,76.088l0,9.936l-2.232,0l0,-9.936l2.232,0Zm-2.4,-3.576c0,-0.352 0.136,-0.648 0.408,-0.888c0.272,-0.24 0.584,-0.36 0.936,-0.36c0.352,0 0.66,0.12 0.924,0.36c0.264,0.24 0.396,0.536 0.396,0.888c0,0.352 -0.132,0.648 -0.396,0.888c-0.264,0.24 -0.572,0.36 -0.924,0.36c-0.352,0 -0.664,-0.12 -0.936,-0.36c-0.272,-0.24 -0.408,-0.536 -0.408,-0.888Z" style="fill:#fff;fill-rule:nonzero;"/><path d="M54.671,85.088c-0.448,0.368 -0.98,0.656 -1.596,0.864c-0.616,0.208 -1.244,0.312 -1.884,0.312c-1.072,0 -2.02,-0.216 -2.844,-0.648c-0.824,-0.432 -1.464,-1.044 -1.92,-1.836c-0.456,-0.792 -0.684,-1.708 -0.684,-2.748c0,-1.024 0.24,-1.932 0.72,-2.724c0.48,-0.792 1.12,-1.404 1.92,-1.836c0.8,-0.432 1.664,-0.648 2.592,-0.648c1.52,0 2.776,0.416 3.768,1.248l-1.128,1.464c-0.32,-0.24 -0.688,-0.444 -1.104,-0.612c-0.416,-0.168 -0.864,-0.252 -1.344,-0.252c-0.592,0 -1.132,0.148 -1.62,0.444c-0.488,0.296 -0.872,0.7 -1.152,1.212c-0.28,0.512 -0.42,1.08 -0.42,1.704c0,0.624 0.148,1.192 0.444,1.704c0.296,0.512 0.7,0.92 1.212,1.224c0.512,0.304 1.096,0.456 1.752,0.456c0.816,0 1.528,-0.24 2.136,-0.72l1.152,1.392Z" style="fill:#fff;fill-rule:nonzero;"/><path d="M59.711,78.44c0.256,-0.544 0.62,-1.024 1.092,-1.44c0.472,-0.416 0.972,-0.736 1.5,-0.96c0.528,-0.224 0.992,-0.344 1.392,-0.36l-0.096,2.232c-0.72,-0.032 -1.372,0.112 -1.956,0.432c-0.584,0.32 -1.04,0.764 -1.368,1.332c-0.328,0.568 -0.492,1.172 -0.492,1.812l0,4.536l-2.232,0l0,-9.936l1.992,0l0.168,2.352Z" style="fill:#fff;fill-rule:nonzero;"/><path d="M65.279,80.96c0,-0.976 0.236,-1.868 0.708,-2.676c0.472,-0.808 1.128,-1.444 1.968,-1.908c0.84,-0.464 1.788,-0.696 2.844,-0.696c1.056,0 1.996,0.232 2.82,0.696c0.824,0.464 1.464,1.096 1.92,1.896c0.456,0.8 0.684,1.696 0.684,2.688c0,0.992 -0.228,1.892 -0.684,2.7c-0.456,0.808 -1.1,1.444 -1.932,1.908c-0.832,0.464 -1.784,0.696 -2.856,0.696c-1.04,0 -1.976,-0.22 -2.808,-0.66c-0.832,-0.44 -1.484,-1.06 -1.956,-1.86c-0.472,-0.8 -0.708,-1.728 -0.708,-2.784Zm2.256,0.024c0,0.624 0.14,1.2 0.42,1.728c0.28,0.528 0.664,0.944 1.152,1.248c0.488,0.304 1.028,0.456 1.62,0.456c0.928,0 1.696,-0.328 2.304,-0.984c0.608,-0.656 0.912,-1.472 0.912,-2.448c0,-0.976 -0.304,-1.796 -0.912,-2.46c-0.608,-0.664 -1.376,-0.996 -2.304,-0.996c-0.608,0 -1.152,0.156 -1.632,0.468c-0.48,0.312 -0.86,0.732 -1.14,1.26c-0.28,0.528 -0.42,1.104 -0.42,1.728Z" style="fill:#fff;fill-rule:nonzero;"/><path d="M88.109,79.694c0,-1.22 0.295,-2.335 0.885,-3.345c0.59,-1.01 1.41,-1.805 2.46,-2.385c1.05,-0.58 2.235,-0.87 3.555,-0.87c1.32,0 2.495,0.29 3.525,0.87c1.03,0.58 1.83,1.37 2.4,2.37c0.57,1 0.855,2.12 0.855,3.36c0,1.24 -0.285,2.365 -0.855,3.375c-0.57,1.01 -1.375,1.805 -2.415,2.385c-1.04,0.58 -2.23,0.87 -3.57,0.87c-1.3,0 -2.47,-0.275 -3.51,-0.825c-1.04,-0.55 -1.855,-1.325 -2.445,-2.325c-0.59,-1 -0.885,-2.16 -0.885,-3.48Zm2.82,0.03c0,0.78 0.175,1.5 0.525,2.16c0.35,0.66 0.83,1.18 1.44,1.56c0.61,0.38 1.285,0.57 2.025,0.57c1.16,0 2.12,-0.41 2.88,-1.23c0.76,-0.82 1.14,-1.84 1.14,-3.06c0,-1.22 -0.38,-2.245 -1.14,-3.075c-0.76,-0.83 -1.72,-1.245 -2.88,-1.245c-0.76,0 -1.44,0.195 -2.04,0.585c-0.6,0.39 -1.075,0.915 -1.425,1.575c-0.35,0.66 -0.525,1.38 -0.525,2.16Z" style="fill:#fff;fill-rule:nonzero;"/><path d="M113.399,73.094c1.16,0 2.21,0.28 3.15,0.84c0.94,0.56 1.68,1.345 2.22,2.355c0.54,1.01 0.81,2.175 0.81,3.495c0,1.3 -0.29,2.445 -0.87,3.435c-0.58,0.99 -1.38,1.755 -2.4,2.295c-1.02,0.54 -2.16,0.81 -3.42,0.81c-0.9,0 -1.76,-0.195 -2.58,-0.585c-0.82,-0.39 -1.48,-0.915 -1.98,-1.575l0,7.83l-2.79,0l0,-18.6l2.43,0l0.24,2.1c0.64,-0.72 1.405,-1.3 2.295,-1.74c0.89,-0.44 1.855,-0.66 2.895,-0.66Zm-1.05,10.98c0.78,0 1.505,-0.185 2.175,-0.555c0.67,-0.37 1.205,-0.88 1.605,-1.53c0.4,-0.65 0.6,-1.375 0.6,-2.175c0,-0.82 -0.185,-1.56 -0.555,-2.22c-0.37,-0.66 -0.875,-1.18 -1.515,-1.56c-0.64,-0.38 -1.35,-0.57 -2.13,-0.57c-1.06,0 -1.965,0.295 -2.715,0.885c-0.75,0.59 -1.245,1.385 -1.485,2.385l0,2.07c0.16,0.96 0.615,1.745 1.365,2.355c0.75,0.61 1.635,0.915 2.655,0.915Z" style="fill:#fff;fill-rule:nonzero;"/><path d="M129.149,83.924c1.04,0 2.05,-0.36 3.03,-1.08l1.29,2.07c-0.66,0.44 -1.375,0.785 -2.145,1.035c-0.77,0.25 -1.515,0.375 -2.235,0.375c-1.38,0 -2.585,-0.285 -3.615,-0.855c-1.03,-0.57 -1.825,-1.355 -2.385,-2.355c-0.56,-1 -0.84,-2.13 -0.84,-3.39c0,-1.22 0.305,-2.335 0.915,-3.345c0.61,-1.01 1.445,-1.81 2.505,-2.4c1.06,-0.59 2.22,-0.885 3.48,-0.885c1.62,0 2.975,0.475 4.065,1.425c1.09,0.95 1.835,2.275 2.235,3.975l-9.84,3.45c0.36,0.62 0.845,1.105 1.455,1.455c0.61,0.35 1.305,0.525 2.085,0.525Zm-0.21,-8.61c-1.14,0 -2.08,0.4 -2.82,1.2c-0.74,0.8 -1.11,1.82 -1.11,3.06c0,0.3 0.01,0.53 0.03,0.69l7.23,-2.67c-0.3,-0.68 -0.725,-1.23 -1.275,-1.65c-0.55,-0.42 -1.235,-0.63 -2.055,-0.63Zm0.99,-4.08l-1.8,0l2.49,-4.02l3.12,0l-3.81,4.02Z" style="fill:#fff;fill-rule:nonzero;"/><rect x="81.523" y="65.914" width="2.6" height="27.365" style="fill:#fff;"/><path d="M97.014,93.29l-13.826,0.018l-0.003,-2.625l13.825,-0.018l0.004,2.625Z" style="fill:#fff;"/><rect x="0" y="0" width="164.321" height="128.071" style="fill:none;"/></g></svg>